<svg width="48" height="48" viewBox="0 0 48 48" fill="none" xmlns="http://www.w3.org/2000/svg">
<rect width="48" height="48" rx="8" fill="url(#paint0_linear_274_2679)"/>
<path d="M31.3333 16.575V29.85C31.3331 29.9625 31.3758 30.0709 31.453 30.154C31.5301 30.2371 31.6362 30.2888 31.7503 30.299C31.8643 30.3091 31.9781 30.277 32.0693 30.2089C32.1604 30.1408 32.2223 30.0417 32.2427 29.931L32.25 29.85V17.7H33.3958C33.7984 17.7 34.1863 17.8487 34.4824 18.1164C34.7786 18.3842 34.9614 18.7515 34.9945 19.1454L35 19.275V30.075C35 30.8221 34.7089 31.5409 34.1863 32.084C33.6637 32.6271 32.9492 32.9532 32.1895 32.9955L32.0208 33H15.9792C15.2182 33 14.4861 32.7142 13.933 32.2011C13.3798 31.688 13.0477 30.9865 13.0046 30.2406L13 30.075V16.575C13 16.1797 13.1514 15.7989 13.4241 15.5081C13.6968 15.2174 14.0709 15.0379 14.4722 15.0054L14.6042 15H29.7292C30.1318 15 30.5196 15.1487 30.8158 15.4164C31.1119 15.6842 31.2947 16.0515 31.3278 16.4454L31.3333 16.575ZM20.1014 23.1036H17.8125C17.4099 23.1036 17.022 23.2523 16.7259 23.52C16.4297 23.7878 16.247 24.1551 16.2138 24.549L16.2083 24.6786V26.925C16.2083 27.3203 16.3597 27.7011 16.6325 27.9919C16.9052 28.2826 17.2793 28.4621 17.6805 28.4946L17.8125 28.5H20.1014C20.5042 28.5 20.8921 28.3512 21.1883 28.0833C21.4845 27.8153 21.6672 27.4478 21.7001 27.0537L21.7047 26.925V24.6786C21.7049 24.2832 21.5536 23.9021 21.2809 23.6112C21.0081 23.3202 20.6339 23.1406 20.2325 23.1081L20.1014 23.1036ZM27.4375 27.15H24.2292L24.1357 27.1563C23.9711 27.1785 23.8203 27.2585 23.7112 27.3814C23.602 27.5043 23.5419 27.6619 23.5419 27.825C23.5419 27.9881 23.602 28.1457 23.7112 28.2686C23.8203 28.3915 23.9711 28.4715 24.1357 28.4937L24.2292 28.5H27.4375L27.531 28.4937C27.6956 28.4715 27.8463 28.3915 27.9555 28.2686C28.0647 28.1457 28.1248 27.9881 28.1248 27.825C28.1248 27.6619 28.0647 27.5043 27.9555 27.3814C27.8463 27.2585 27.6956 27.1785 27.531 27.1563L27.4375 27.15ZM17.8125 24.4536H20.1014C20.1529 24.4536 20.2029 24.4707 20.2433 24.5021C20.2837 24.5334 20.3122 24.5772 20.3242 24.6264L20.3306 24.6786V26.925C20.3305 26.9757 20.313 27.0249 20.2809 27.0646C20.2488 27.1043 20.2039 27.1321 20.1537 27.1437L20.1014 27.15H17.8125C17.7609 27.1499 17.7108 27.1327 17.6704 27.1012C17.6299 27.0697 17.6015 27.0257 17.5898 26.9763L17.5833 26.925V24.6786C17.5832 24.6278 17.6006 24.5784 17.6328 24.5385C17.6649 24.4986 17.7098 24.4706 17.7603 24.459L17.8125 24.4536ZM27.4375 23.1036H24.2292L24.1357 23.109C23.9704 23.1305 23.8188 23.2102 23.7089 23.3333C23.599 23.4564 23.5385 23.6145 23.5385 23.7781C23.5385 23.9418 23.599 24.0999 23.7089 24.223C23.8188 24.3461 23.9704 24.4258 24.1357 24.4473L24.2292 24.4536H27.4375L27.531 24.4473C27.6962 24.4258 27.8479 24.3461 27.9578 24.223C28.0676 24.0999 28.1282 23.9418 28.1282 23.7781C28.1282 23.6145 28.0676 23.4564 27.9578 23.3333C27.8479 23.2102 27.6962 23.1305 27.531 23.109L27.4375 23.1036ZM27.4375 19.0473H16.8958L16.8023 19.0536C16.6378 19.0758 16.487 19.1558 16.3778 19.2787C16.2687 19.4016 16.2085 19.5592 16.2085 19.7223C16.2085 19.8854 16.2687 20.043 16.3778 20.1659C16.487 20.2888 16.6378 20.3688 16.8023 20.391L16.8958 20.3973H27.4375L27.531 20.391C27.6956 20.3688 27.8463 20.2888 27.9555 20.1659C28.0647 20.043 28.1248 19.8854 28.1248 19.7223C28.1248 19.5592 28.0647 19.4016 27.9555 19.2787C27.8463 19.1558 27.6956 19.0758 27.531 19.0536L27.4375 19.0473Z" fill="white"/>
<defs>
<linearGradient id="paint0_linear_274_2679" x1="2.18182" y1="44.1818" x2="49.4984" y2="36.3052" gradientUnits="userSpaceOnUse">
<stop stop-color="#FF8900"/>
<stop offset="1" stop-color="#FFB967"/>
</linearGradient>
</defs>
</svg>
