<svg width="48" height="48" viewBox="0 0 48 48" fill="none" xmlns="http://www.w3.org/2000/svg">
<rect width="48" height="48" rx="8" fill="url(#paint0_linear_274_2697)"/>
<g clip-path="url(#clip0_274_2697)">
<path d="M16.3329 35.0362C15.7073 35.1665 15.1162 34.6916 15.1162 34.0527V15.4325C15.1162 14.9631 15.4426 14.5564 15.9018 14.4588C20.8431 13.4085 25.8011 12.7136 30.7406 12.3806C31.0275 12.3619 31.26 12.5813 31.26 12.87V32.4919C31.26 32.7806 31.0275 33.03 30.7406 33.0488C25.9448 33.3721 21.1314 34.0365 16.3329 35.0362Z" fill="white"/>
<path d="M17.3906 21.2512C21.2531 20.4862 25.125 19.9387 28.9856 19.6125M17.3906 23.8556C19.0367 23.5289 20.6903 23.2413 22.35 22.9931M17.3906 26.4581C19.0367 26.1314 20.6903 25.8438 22.35 25.5956M17.3906 31.7944C21.2531 31.0294 25.125 30.4819 28.9856 30.1556M17.3906 29.0625C19.0367 28.7357 20.6903 28.4482 22.35 28.2" stroke="#FF6362" stroke-width="0.46875" stroke-miterlimit="10" stroke-linecap="round" stroke-linejoin="round"/>
<path d="M24.1614 28.4156C25.6994 28.2133 27.2416 28.0452 28.787 27.9112C29.0664 27.8869 29.2914 27.6412 29.2914 27.36V22.2262C29.2914 21.945 29.0645 21.7369 28.787 21.7612C27.2458 21.8944 25.7045 22.0631 24.1614 22.2656C23.882 22.3031 23.6552 22.5619 23.6552 22.8412V27.975C23.657 28.2562 23.882 28.4531 24.1614 28.4156ZM17.7114 18.6394C18.092 18.5644 18.4708 18.4931 18.8514 18.4237C19.1308 18.3731 19.3558 18.105 19.3558 17.8237V16.5075C19.3558 16.2262 19.1289 16.0406 18.8514 16.0912C18.4708 16.1606 18.092 16.2337 17.7114 16.3069C17.432 16.3612 17.207 16.635 17.207 16.9144V18.2306C17.2052 18.5119 17.432 18.6937 17.7114 18.6394ZM20.7039 18.0994C21.0845 18.0356 21.4633 17.9756 21.8439 17.9175C22.1233 17.8744 22.3502 17.6137 22.3502 17.3325V16.0162C22.3502 15.735 22.1233 15.5419 21.8439 15.585C21.4633 15.6431 21.0827 15.705 20.7039 15.7669C20.4245 15.8137 20.1995 16.08 20.1995 16.3594V17.6756C20.1995 17.9569 20.4245 18.1462 20.7039 18.0994ZM23.6983 17.6475C24.0789 17.595 24.4595 17.5462 24.8383 17.4975C25.1177 17.4619 25.3445 17.2087 25.3445 16.9275V15.6112C25.3445 15.33 25.1177 15.1294 24.8383 15.165C24.4577 15.2119 24.077 15.2625 23.6983 15.315C23.4189 15.3525 23.192 15.6131 23.192 15.8925V17.2087C23.1939 17.49 23.4208 17.685 23.6983 17.6475Z" fill="#FF6362"/>
</g>
<defs>
<linearGradient id="paint0_linear_274_2697" x1="2.18182" y1="44.1818" x2="49.4984" y2="36.3052" gradientUnits="userSpaceOnUse">
<stop stop-color="#FF5857"/>
<stop offset="1" stop-color="#FF9696"/>
</linearGradient>
<clipPath id="clip0_274_2697">
<rect width="24" height="24" fill="white" transform="translate(12 12)"/>
</clipPath>
</defs>
</svg>
