<svg width="48" height="48" viewBox="0 0 48 48" fill="none" xmlns="http://www.w3.org/2000/svg">
<rect width="48" height="48" rx="8" fill="url(#paint0_linear_274_2752)"/>
<path fill-rule="evenodd" clip-rule="evenodd" d="M17 15C16.4696 15 15.9609 15.2107 15.5858 15.5858C15.2107 15.9609 15 16.4696 15 17V31C15 31.5304 15.2107 32.0391 15.5858 32.4142C15.9609 32.7893 16.4696 33 17 33H28.5C28.5707 33 28.6397 32.993 28.707 32.979C28.8023 32.993 28.9 33 29 33H31C31.5304 33 32.0391 32.7893 32.4142 32.4142C32.7893 32.0391 33 31.5304 33 31V19C33 18.7348 32.8946 18.4804 32.7071 18.2929C32.5196 18.1054 32.2652 18 32 18H31C30.7348 18 30.4804 18.1054 30.2929 18.2929C30.1054 18.4804 30 18.7348 30 19C30 19.2652 30.1054 19.5196 30.2929 19.7071C30.4804 19.8946 30.7348 20 31 20V31H29V17C29 16.4696 28.7893 15.9609 28.4142 15.5858C28.0391 15.2107 27.5304 15 27 15H17ZM24 19C24 18.7348 24.1054 18.4804 24.2929 18.2929C24.4804 18.1054 24.7348 18 25 18H25.5C25.7652 18 26.0196 18.1054 26.2071 18.2929C26.3946 18.4804 26.5 18.7348 26.5 19C26.5 19.2652 26.3946 19.5196 26.2071 19.7071C26.0196 19.8946 25.7652 20 25.5 20H25C24.7348 20 24.4804 19.8946 24.2929 19.7071C24.1054 19.5196 24 19.2652 24 19ZM24 22C24 21.7348 24.1054 21.4804 24.2929 21.2929C24.4804 21.1054 24.7348 21 25 21H25.5C25.7652 21 26.0196 21.1054 26.2071 21.2929C26.3946 21.4804 26.5 21.7348 26.5 22C26.5 22.2652 26.3946 22.5196 26.2071 22.7071C26.0196 22.8946 25.7652 23 25.5 23H25C24.7348 23 24.4804 22.8946 24.2929 22.7071C24.1054 22.5196 24 22.2652 24 22ZM18 26C18 25.7348 18.1054 25.4804 18.2929 25.2929C18.4804 25.1054 18.7348 25 19 25H25C25.2652 25 25.5196 25.1054 25.7071 25.2929C25.8946 25.4804 26 25.7348 26 26C26 26.2652 25.8946 26.5196 25.7071 26.7071C25.5196 26.8946 25.2652 27 25 27H19C18.7348 27 18.4804 26.8946 18.2929 26.7071C18.1054 26.5196 18 26.2652 18 26ZM18 29C18 28.7348 18.1054 28.4804 18.2929 28.2929C18.4804 28.1054 18.7348 28 19 28H25C25.2652 28 25.5196 28.1054 25.7071 28.2929C25.8946 28.4804 26 28.7348 26 29C26 29.2652 25.8946 29.5196 25.7071 29.7071C25.5196 29.8946 25.2652 30 25 30H19C18.7348 30 18.4804 29.8946 18.2929 29.7071C18.1054 29.5196 18 29.2652 18 29ZM19 18C18.7348 18 18.4804 18.1054 18.2929 18.2929C18.1054 18.4804 18 18.7348 18 19V22C18 22.2652 18.1054 22.5196 18.2929 22.7071C18.4804 22.8946 18.7348 23 19 23H22C22.2652 23 22.5196 22.8946 22.7071 22.7071C22.8946 22.5196 23 22.2652 23 22V19C23 18.7348 22.8946 18.4804 22.7071 18.2929C22.5196 18.1054 22.2652 18 22 18H19ZM20 21V20H21V21H20Z" fill="white"/>
<defs>
<linearGradient id="paint0_linear_274_2752" x1="2.18182" y1="44.1818" x2="49.4984" y2="36.3052" gradientUnits="userSpaceOnUse">
<stop stop-color="#7E00EC"/>
<stop offset="1" stop-color="#B45FFF"/>
</linearGradient>
</defs>
</svg>
