<svg width="222" height="222" viewBox="0 0 222 222" fill="none" xmlns="http://www.w3.org/2000/svg">
<g filter="url(#filter0_d_1505_139)">
<path fill-rule="evenodd" clip-rule="evenodd" d="M112.068 189.981C170.272 189.981 217.731 187.587 217.731 184.644C217.731 181.702 170.272 179.308 112.068 179.308C53.8712 179.308 6.4043 181.702 6.4043 184.644C6.39637 187.587 53.8712 189.981 112.068 189.981Z" fill="white" fill-opacity="0.65" shape-rendering="crispEdges"/>
</g>
<path opacity="0.1" fill-rule="evenodd" clip-rule="evenodd" d="M32.5703 72.9273C45.2639 50.5132 81.7512 35.2666 124.122 36.8761C176.03 38.9217 217.092 65.522 215.784 96.3642C215.181 111.421 204.565 124.717 187.843 134.12C175.15 156.534 138.663 171.781 96.2922 170.171C44.3839 168.126 3.32181 141.525 4.63002 110.683C5.22466 95.6347 15.8489 82.3306 32.5703 72.9273Z" fill="url(#paint0_linear_1505_139)"/>
<path fill-rule="evenodd" clip-rule="evenodd" d="M171.622 72.2536C175.229 73.6331 183.261 73.1337 188.113 69.8116C189.604 68.8046 194.741 65.3082 192.64 62.3746C190.547 61.8116 186.686 64.7056 186.385 60.6937C186.829 58.7116 191.229 62.2081 192.688 60.884C194.408 58.8305 195.28 53.8196 193.068 51.6551C191.736 51.3935 185.972 56.4599 184.838 55.1041C184.093 53.558 189.009 52.6304 191.086 51.3935C193.052 49.9267 191.213 46.3509 190.317 44.0675C188.842 46.8425 187.106 48.8167 186.242 48.1349C184.355 46.2399 189.929 45.7325 190.317 44.0675C189.017 40.7534 190 39.3738 188.272 38.2559C185.79 38.3827 184.64 38.5096 182.69 39.8416C178.519 42.8386 182.785 49.7206 181.049 49.9188C179.566 49.3876 180.502 43.457 179.621 43.0764C177.941 41.9902 174.492 44.234 174.42 45.9862C174.317 48.5789 178.178 54.2716 176.997 55.0486C175.514 56.0476 173.913 47.5561 170.86 47.1676C168.323 47.0883 165.794 49.7444 164.414 51.7979C161.996 54.2081 173.136 58.9574 172.652 60.0832C169.996 61.8989 162.995 52.337 161.1 57.0862C160.307 59.7264 161.37 62.2715 162.559 64.7056C164.407 68.4558 169.029 71.3339 171.622 72.2536ZM172.771 52.2022C173.176 52.337 173.39 52.8127 173.239 53.2646C173.088 53.7166 172.636 53.9782 172.224 53.8434C171.82 53.7086 171.606 53.2329 171.756 52.781C171.907 52.3291 172.359 52.0674 172.771 52.2022ZM181.033 58.1804C179.899 58.8226 181.707 59.441 182.389 59.219C183.277 59.1159 184.521 58.7512 184.751 57.776C184.006 56.9276 182.484 57.4113 181.033 58.1804ZM179.82 63.5321C180.43 61.7244 184.196 62.8265 184.458 63.8493C184.41 64.8166 179.74 64.9038 179.82 63.5321ZM170.71 63.0009C170.036 62.7551 170.424 63.7383 170.757 63.9365C171.114 64.2695 171.725 64.6659 172.208 64.4122C172.303 63.7938 171.55 63.326 170.71 63.0009ZM179.368 49.0942C180.042 49.5224 180.2 50.6165 180.137 51.3776C179.598 51.6472 179.257 50.8226 178.995 50.3231C178.678 49.7919 178.813 48.9753 179.368 49.0942Z" fill="#0EBAA0"/>
<path d="M164.121 82.1239C164.121 82.0525 164.145 81.9891 164.192 81.9336C173.873 69.8188 180.89 56.911 185.655 42.4652C185.711 42.2987 185.893 42.2035 186.059 42.259C186.226 42.3145 186.321 42.4969 186.266 42.6634C183.752 50.2748 180.525 57.6405 176.664 64.5621C173.247 70.6909 169.219 76.669 164.692 82.338C164.581 82.4807 164.375 82.4965 164.24 82.3855C164.161 82.3142 164.121 82.219 164.121 82.1239Z" fill="#16888C"/>
<path d="M181.636 53.1134C181.644 52.9469 181.771 52.8042 181.946 52.7962C184.99 52.6694 187.393 51.2898 189.081 48.713C189.177 48.5624 189.383 48.5227 189.525 48.6179C189.676 48.713 189.716 48.9192 189.621 49.0619C188.756 50.378 187.694 51.4167 186.473 52.1461C185.157 52.931 183.642 53.3671 181.969 53.4384C181.795 53.4464 181.644 53.3116 181.636 53.1292C181.636 53.1292 181.636 53.1213 181.636 53.1134ZM175.119 66.0766C175.119 66.029 175.135 65.9814 175.159 65.9339C175.238 65.7753 175.436 65.7119 175.595 65.7991C180.368 68.2728 185.363 67.8764 190.041 64.6494C190.191 64.5464 190.39 64.586 190.493 64.7287C190.596 64.8794 190.556 65.0776 190.413 65.1807C185.529 68.5503 180.304 68.9626 175.302 66.3699C175.175 66.3144 175.111 66.1955 175.119 66.0766ZM168.887 51.4642C168.887 51.3374 168.975 51.2105 169.101 51.1629C169.268 51.1074 169.45 51.1947 169.514 51.3612C171.004 55.6426 173.668 58.1401 178.695 59.9874C178.861 60.0509 178.949 60.2332 178.885 60.3997C178.822 60.5662 178.639 60.6534 178.473 60.59C175.952 59.6624 174.096 58.6237 172.63 57.3314C170.957 55.8487 169.736 53.9697 168.903 51.5673C168.887 51.5435 168.879 51.5039 168.887 51.4642ZM163.242 59.1867C163.242 59.0598 163.329 58.9329 163.456 58.8933C163.623 58.8299 163.805 58.9171 163.869 59.0915C166.493 66.4254 170.394 68.3124 173.502 69.137C173.676 69.1846 173.779 69.359 173.732 69.5334C173.684 69.7079 173.51 69.8109 173.335 69.7634C170.077 68.8992 165.978 66.9329 163.258 59.3135C163.25 59.2659 163.242 59.2263 163.242 59.1867Z" fill="#16888C"/>
<path fill-rule="evenodd" clip-rule="evenodd" d="M176.308 79.6665C178.084 83.0916 184.434 88.047 190.27 88.7685C192.054 89.0064 198.214 89.7913 198.587 86.2076C197.39 84.4078 192.577 84.0034 195.011 80.8003C196.652 79.611 197.635 85.1451 199.61 85.1214C202.258 84.7249 206.238 81.5535 206.016 78.4693C205.191 77.391 197.524 77.3514 197.564 75.5833C198.032 73.9341 202.321 76.503 204.708 76.9549C207.15 77.1531 208.149 73.2681 208.989 70.9609C206.048 72.063 203.439 72.3881 203.241 71.2939C203.082 68.6299 207.594 71.9441 208.989 70.9609C210.218 67.623 211.859 67.2424 211.312 65.2603C209.362 63.7063 208.426 63.0403 206.079 62.739C200.965 62.2157 199.594 70.1998 198.175 69.1929C197.413 67.8133 202.044 63.9917 201.639 63.1196C201.108 61.2009 197.033 60.5904 195.82 61.8589C194.02 63.7301 193.148 70.5486 191.737 70.3504C189.968 70.1126 194.408 62.6994 192.371 60.3842C190.523 58.6399 186.876 58.9571 184.482 59.5755C181.073 59.7816 186.266 70.7231 185.148 71.2384C181.953 70.842 183.055 59.0364 178.488 61.3436C176.149 62.7945 175.253 65.403 174.532 68.0115C173.414 72.0313 174.968 77.2483 176.308 79.6665ZM190.452 65.4109C190.666 65.7836 190.508 66.2751 190.095 66.5209C189.683 66.7588 189.168 66.6478 188.962 66.2751C188.74 65.9025 188.906 65.4109 189.318 65.1651C189.731 64.9352 190.238 65.0383 190.452 65.4109ZM192.672 75.3613C191.396 75.0838 192.347 76.7488 192.997 77.0421C193.727 77.5496 194.908 78.1046 195.725 77.5337C195.733 76.3999 194.274 75.7498 192.672 75.3613ZM188.216 78.5644C189.873 77.6209 191.959 80.943 191.483 81.8786C190.801 82.5763 187.249 79.5396 188.216 78.5644ZM181.754 72.1264C181.406 71.5001 181.049 72.4911 181.168 72.8638C181.215 73.3554 181.414 74.0451 181.945 74.1799C182.413 73.7835 182.159 72.9351 181.754 72.1264ZM197.453 67.4565C197.675 68.2335 197.065 69.1453 196.51 69.6686C195.931 69.5179 196.216 68.6696 196.351 68.1304C196.478 67.5279 197.112 67.0125 197.453 67.4565Z" fill="#24D1B3"/>
<path d="M164.058 82.2904C164.058 82.1397 164.169 82.005 164.328 81.9812C179.606 79.333 193.425 74.3222 206.571 66.6711C206.722 66.5839 206.92 66.6315 207.015 66.79C207.102 66.9407 207.055 67.1389 206.896 67.234C199.966 71.2697 192.664 74.6393 185.188 77.2557C178.559 79.5788 171.582 81.3786 164.439 82.6234C164.264 82.6551 164.098 82.5362 164.066 82.3617C164.058 82.33 164.05 82.3062 164.058 82.2904Z" fill="#16888C"/>
<path d="M196.389 72.182C196.389 72.1107 196.413 72.0473 196.461 71.9838C196.572 71.849 196.778 71.8253 196.913 71.9363C199.275 73.855 201.987 74.4179 204.976 73.6171C205.15 73.5695 205.325 73.6726 205.372 73.847C205.42 74.0215 205.317 74.1959 205.142 74.2435C201.947 75.1077 199.045 74.5051 196.508 72.4437C196.429 72.3803 196.389 72.2772 196.389 72.182ZM182.919 77.5576C182.919 77.4308 182.998 77.3118 183.125 77.2643C183.291 77.2008 183.482 77.2801 183.545 77.4466C185.48 82.4654 189.484 85.4862 195.121 86.176C195.295 86.1998 195.422 86.3583 195.398 86.5328C195.374 86.7072 195.216 86.834 195.041 86.8103C189.151 86.0888 184.972 82.9332 182.942 77.6765C182.927 77.6448 182.919 77.6052 182.919 77.5576ZM186.851 67.409C186.891 65.7678 187.264 64.1108 187.969 62.3823C188.041 62.2158 188.223 62.1365 188.389 62.2079C188.556 62.2793 188.635 62.4616 188.564 62.6281C186.843 66.8223 187.176 70.4536 189.713 75.1711C189.801 75.3297 189.737 75.5279 189.579 75.6072C189.42 75.6944 189.222 75.631 189.143 75.4724C187.874 73.1097 187.168 71.1038 186.93 69.1613C186.867 68.5825 186.835 68.0037 186.851 67.409ZM177.004 71.4764C177.051 69.5101 177.511 67.195 178.621 64.4279C178.685 64.2614 178.875 64.1821 179.042 64.2455C179.208 64.309 179.287 64.4993 179.224 64.6658C176.322 71.8887 177.995 75.8847 179.779 78.5645C179.874 78.7152 179.834 78.9134 179.692 79.0085C179.541 79.1037 179.343 79.064 179.248 78.9213C178.058 77.1533 176.925 74.8381 177.004 71.4764Z" fill="#16888C"/>
<path fill-rule="evenodd" clip-rule="evenodd" d="M150.77 75.7816C152.61 72.3882 153.157 64.3566 150.493 59.1158C149.684 57.5063 146.885 51.9563 143.714 53.6609C142.889 55.6589 145.252 59.869 141.24 59.647C139.329 58.9493 143.373 55.0405 142.247 53.4231C140.431 51.4489 135.579 49.9345 133.145 51.8453C132.717 53.1297 136.982 59.5043 135.492 60.4557C133.866 60.9949 133.581 55.9999 132.63 53.7799C131.432 51.6391 127.65 52.9949 125.264 53.5896C127.825 55.4131 129.561 57.3874 128.768 58.1644C126.651 59.7897 126.865 54.2001 125.264 53.5896C121.807 54.4459 120.57 53.2962 119.238 54.8581C119.048 57.3398 119.016 58.4894 120.079 60.5984C122.513 65.1256 129.886 61.7877 129.855 63.532C129.141 64.9274 123.377 63.2386 122.885 64.0553C121.585 65.5776 123.369 69.2961 125.097 69.5894C127.658 70.0334 133.795 66.9334 134.421 68.2099C135.214 69.8114 126.588 70.2871 125.811 73.2683C125.407 75.7737 127.706 78.628 129.561 80.2613C131.631 82.9649 137.799 72.5389 138.846 73.1732C140.304 76.0433 129.91 81.7439 134.374 84.2414C136.887 85.3752 139.551 84.6458 142.12 83.7895C146.068 82.4416 149.525 78.2316 150.77 75.7816ZM131.036 72.0394C131.218 71.6509 131.718 71.5081 132.146 71.7143C132.574 71.9204 132.772 72.4041 132.582 72.7926C132.392 73.1811 131.892 73.3238 131.464 73.1176C131.044 72.9115 130.854 72.4279 131.036 72.0394ZM138.037 64.6182C138.528 65.8313 139.369 64.1108 139.242 63.4051C139.258 62.5171 139.052 61.2248 138.116 60.8759C137.181 61.5102 137.466 63.088 138.037 64.6182ZM143.19 66.5211C141.478 65.6806 143.064 62.089 144.102 61.9621C145.062 62.1366 144.538 66.7827 143.19 66.5211ZM141.478 75.4804C141.145 76.1226 142.168 75.8609 142.413 75.5517C142.794 75.2425 143.262 74.6875 143.071 74.1801C142.477 74.0056 141.914 74.6875 141.478 75.4804ZM128.816 65.0939C129.331 64.4755 130.433 64.4676 131.179 64.6261C131.377 65.197 130.513 65.4269 129.989 65.6172C129.418 65.8709 128.626 65.6251 128.816 65.0939Z" fill="#0EBAA0"/>
<path d="M159.587 84.4945C159.524 84.4866 159.452 84.4548 159.405 84.3993C148.654 73.228 136.761 64.5938 123.06 57.9893C122.902 57.91 122.83 57.7197 122.91 57.5611C122.989 57.4026 123.179 57.3312 123.338 57.4105C130.561 60.8911 137.443 65.0457 143.801 69.7711C149.439 73.9574 154.838 78.7304 159.873 83.9554C159.999 84.0822 159.991 84.2883 159.865 84.4152C159.785 84.4866 159.682 84.5103 159.587 84.4945Z" fill="#16888C"/>
<path d="M133.097 63.3649C132.93 63.3411 132.811 63.1904 132.827 63.016C133.097 59.9794 132.042 57.4264 129.703 55.4046C129.569 55.2857 129.553 55.0874 129.672 54.9527C129.791 54.8179 129.989 54.802 130.124 54.9209C131.321 55.9517 132.209 57.133 132.772 58.4412C133.382 59.8446 133.612 61.4065 133.47 63.0794C133.454 63.2539 133.295 63.3887 133.121 63.3728C133.113 63.3728 133.105 63.3728 133.097 63.3649ZM145.101 71.5154C145.053 71.5075 145.006 71.4917 144.966 71.4599C144.823 71.3569 144.784 71.1587 144.887 71.008C147.963 66.5997 148.217 61.5889 145.624 56.5304C145.545 56.3719 145.608 56.1737 145.767 56.0944C145.925 56.0151 146.124 56.0785 146.203 56.2371C148.906 61.5175 148.637 66.7583 145.418 71.3727C145.339 71.4837 145.22 71.5313 145.101 71.5154ZM129.807 75.7969C129.68 75.7731 129.569 75.6779 129.537 75.5432C129.497 75.3687 129.616 75.1943 129.791 75.1626C134.231 74.2349 137.053 71.9277 139.535 67.1785C139.614 67.0199 139.812 66.9565 139.971 67.0437C140.13 67.123 140.193 67.3212 140.106 67.4798C138.861 69.8584 137.592 71.563 136.118 72.8474C134.437 74.3142 132.407 75.2736 129.918 75.7969C129.886 75.7969 129.846 75.7969 129.807 75.7969ZM136.728 82.3934C136.601 82.3697 136.49 82.2745 136.459 82.1397C136.419 81.9653 136.53 81.7909 136.704 81.7592C144.316 80.11 146.694 76.4867 147.915 73.5134C147.987 73.3469 148.169 73.2677 148.336 73.339C148.502 73.4104 148.581 73.5927 148.51 73.7592C147.226 76.8831 144.744 80.6809 136.839 82.3934C136.807 82.3934 136.768 82.3934 136.728 82.3934Z" fill="#16888C"/>
<path fill-rule="evenodd" clip-rule="evenodd" d="M158.73 72.1027C162.361 70.7866 168.094 65.1335 169.568 59.4408C170.036 57.7044 171.614 51.6946 168.109 50.8621C166.167 51.8135 165.144 56.531 162.29 53.7005C161.323 51.9166 166.936 51.6629 167.166 49.7045C167.118 47.0246 164.494 42.6719 161.402 42.4895C160.228 43.1634 159.19 50.7669 157.446 50.4894C155.876 49.8155 158.976 45.8909 159.737 43.5836C160.252 41.1892 156.526 39.6986 154.353 38.5569C155.059 41.6174 155.051 44.2496 153.941 44.3051C151.277 44.1149 155.154 40.0792 154.353 38.5569C151.206 36.9078 151.039 35.2269 149.002 35.5124C147.21 37.2408 146.425 38.0812 145.822 40.3726C144.641 45.3755 152.379 47.7699 151.198 49.0544C149.731 49.6331 146.544 44.5351 145.632 44.8284C143.658 45.1059 142.524 49.0702 143.626 50.4419C145.251 52.4636 151.896 54.2238 151.515 55.5954C151.055 57.3159 144.276 51.9562 141.715 53.6688C139.749 55.2783 139.582 58.9334 139.892 61.3912C139.654 64.7926 151.174 61.0661 151.547 62.2475C150.738 65.3634 139.178 62.7391 140.867 67.5676C142.001 70.0809 144.474 71.3019 146.964 72.3564C150.786 73.9739 156.161 73.1176 158.73 72.1027ZM146.433 56.2218C146.829 56.0553 147.297 56.2773 147.487 56.7134C147.67 57.1574 147.495 57.6489 147.099 57.8075C146.702 57.974 146.235 57.752 146.044 57.3159C145.87 56.8799 146.036 56.3883 146.433 56.2218ZM156.589 55.31C156.153 56.5389 157.929 55.8174 158.294 55.2069C158.896 54.5489 159.602 53.4468 159.134 52.5667C158.016 52.4161 157.184 53.7798 156.589 55.31ZM159.19 60.1464C158.468 58.3784 162.036 56.7451 162.9 57.3397C163.503 58.1088 160.03 61.2326 159.19 60.1464ZM151.967 65.7202C151.301 65.9819 152.236 66.4655 152.617 66.4021C153.109 66.4179 153.822 66.3149 154.02 65.8074C153.687 65.2841 152.823 65.4189 151.967 65.7202ZM149.374 49.5459C150.175 49.427 151 50.1485 151.444 50.7669C151.214 51.3219 150.413 50.9255 149.898 50.7273C149.319 50.5291 148.883 49.8234 149.374 49.5459Z" fill="#24D1B3"/>
<path d="M159.736 84.5894C159.586 84.5657 159.467 84.4388 159.467 84.2802C158.825 68.7878 155.653 54.4371 149.778 40.4035C149.707 40.237 149.786 40.0467 149.953 39.9833C150.119 39.9119 150.309 39.9912 150.373 40.1577C153.473 47.5472 155.867 55.2299 157.493 62.9841C158.936 69.8581 159.816 77.0097 160.117 84.2564C160.125 84.4309 159.982 84.5815 159.808 84.5894C159.776 84.5894 159.76 84.5894 159.736 84.5894Z" fill="#16888C"/>
<path d="M153.926 51.2102C153.854 51.2022 153.791 51.1705 153.743 51.115C153.624 50.9882 153.624 50.782 153.759 50.6552C155.971 48.562 156.883 45.9456 156.471 42.8852C156.447 42.7107 156.574 42.5442 156.748 42.5204C156.923 42.4967 157.089 42.6235 157.113 42.7979C157.557 46.0804 156.574 48.8792 154.203 51.1229C154.116 51.2022 154.021 51.226 153.926 51.2102ZM157.502 65.2675C157.375 65.2517 157.272 65.1565 157.24 65.0217C157.2 64.8473 157.303 64.6729 157.478 64.6332C162.703 63.3647 166.215 59.7968 167.634 54.2944C167.682 54.1199 167.856 54.0169 168.031 54.0644C168.205 54.112 168.308 54.2864 168.261 54.4609C166.778 60.2091 163.107 63.9434 157.628 65.2675C157.589 65.2675 157.541 65.2754 157.502 65.2675ZM147.956 60.0505C146.338 59.7968 144.737 59.218 143.119 58.2904C142.961 58.2032 142.913 58.0049 143 57.8464C143.087 57.6878 143.286 57.6402 143.444 57.7274C147.377 59.9792 151.024 60.1219 156.035 58.219C156.201 58.1556 156.392 58.2428 156.455 58.4093C156.518 58.5758 156.431 58.7661 156.265 58.8295C153.751 59.7809 151.674 60.217 149.724 60.2012C149.121 60.1853 148.534 60.1377 147.956 60.0505ZM150.707 70.3418C148.764 70.0405 146.528 69.2794 143.928 67.8205C143.769 67.7333 143.714 67.5351 143.801 67.3844C143.888 67.2259 144.086 67.1704 144.237 67.2576C151.024 71.0712 155.202 69.9295 158.088 68.5103C158.247 68.431 158.445 68.4944 158.524 68.6609C158.604 68.8195 158.54 69.0177 158.374 69.097C156.471 70.0326 154.021 70.8572 150.707 70.3418Z" fill="#16888C"/>
<path d="M183.13 66.7666H16.9297C15.2728 66.7666 13.9297 68.1097 13.9297 69.7666V179.619C13.9297 181.276 15.2728 182.619 16.9297 182.619H183.13C184.787 182.619 186.13 181.276 186.13 179.619V69.7666C186.13 68.1097 184.787 66.7666 183.13 66.7666Z" fill="url(#paint1_linear_1505_139)"/>
<path d="M184.164 68.5664H13.9297V182.619H184.164V68.5664Z" fill="#BBDFFF"/>
<path fill-rule="evenodd" clip-rule="evenodd" d="M13.9297 68.5664H161.124C173.793 68.5664 184.156 78.929 184.156 91.5989V176.435C184.156 178.575 183.863 180.645 183.308 182.619H13.9297V68.5664Z" fill="white"/>
<path d="M176.577 108.344H21.5098V110.588H176.577V108.344Z" fill="#8DCCFF"/>
<path d="M176.577 83.623H21.5098V84.7489H176.577V83.623Z" fill="#84B2FE"/>
<path d="M38.9688 88.8955H21.8906V105.974H38.9688V88.8955Z" fill="#8DCCFF"/>
<path d="M176.195 88.2451H159.117V105.323H176.195V88.2451Z" fill="#8DCCFF"/>
<path fill-rule="evenodd" clip-rule="evenodd" d="M183.756 87.6807C176.919 87.6807 170.534 86.1515 163.235 87.6807C166.608 80.6883 164.567 73.8589 162.5 68.5C173.433 69.2715 182.95 77.776 183.756 87.6807Z" fill="#ECECEC"/>
<path d="M176.576 115.733H139.748V116.97H176.576V115.733Z" fill="#ECECEC"/>
<path d="M69.8503 115.733H21.5098V116.97H69.8503V115.733Z" fill="#ECECEC"/>
<path d="M132.328 115.733H77.9219V116.97H132.328V115.733Z" fill="#ECECEC"/>
<path d="M176.576 118.318H139.748V119.555H176.576V118.318Z" fill="#ECECEC"/>
<path d="M69.8503 118.318H21.5098V119.555H69.8503V118.318Z" fill="#ECECEC"/>
<path d="M132.328 118.318H77.9219V119.555H132.328V118.318Z" fill="#ECECEC"/>
<path d="M176.576 120.681H139.748V121.918H176.576V120.681Z" fill="#ECECEC"/>
<path d="M69.8503 120.681H21.5098V121.918H69.8503V120.681Z" fill="#ECECEC"/>
<path d="M132.328 120.681H77.9219V121.918H132.328V120.681Z" fill="#ECECEC"/>
<path d="M176.576 123.377H139.748V124.614H176.576V123.377Z" fill="#ECECEC"/>
<path d="M69.8503 123.377H21.5098V124.614H69.8503V123.377Z" fill="#ECECEC"/>
<path d="M132.328 123.377H77.9219V124.614H132.328V123.377Z" fill="#ECECEC"/>
<path d="M176.576 125.589H139.748V126.826H176.576V125.589Z" fill="#ECECEC"/>
<path d="M69.8503 125.589H21.5098V126.826H69.8503V125.589Z" fill="#ECECEC"/>
<path d="M132.328 125.589H77.9219V126.826H132.328V125.589Z" fill="#ECECEC"/>
<path d="M176.576 128.205H139.748V129.442H176.576V128.205Z" fill="#ECECEC"/>
<path d="M69.8503 128.205H21.5098V129.442H69.8503V128.205Z" fill="#ECECEC"/>
<path d="M132.328 128.205H77.9219V129.442H132.328V128.205Z" fill="#ECECEC"/>
<path d="M69.8503 130.671H21.5098V131.908H69.8503V130.671Z" fill="#ECECEC"/>
<path d="M69.8503 133.256H21.5098V134.493H69.8503V133.256Z" fill="#ECECEC"/>
<path d="M69.8503 135.618H21.5098V136.855H69.8503V135.618Z" fill="#ECECEC"/>
<path d="M69.8503 138.322H21.5098V139.559H69.8503V138.322Z" fill="#ECECEC"/>
<path d="M69.8503 140.534H21.5098V141.771H69.8503V140.534Z" fill="#ECECEC"/>
<path d="M69.8503 143.143H21.5098V144.379H69.8503V143.143Z" fill="#ECECEC"/>
<path d="M176.576 130.893H139.748V132.129H176.576V130.893Z" fill="#ECECEC"/>
<path d="M132.328 130.893H77.9219V132.129H132.328V130.893Z" fill="#ECECEC"/>
<path d="M176.576 133.478H139.748V134.714H176.576V133.478Z" fill="#ECECEC"/>
<path d="M132.328 133.478H77.9219V134.714H132.328V133.478Z" fill="#ECECEC"/>
<path d="M176.576 135.84H139.748V137.077H176.576V135.84Z" fill="#ECECEC"/>
<path d="M132.328 135.84H77.9219V137.077H132.328V135.84Z" fill="#ECECEC"/>
<path d="M176.576 138.544H139.748V139.781H176.576V138.544Z" fill="#ECECEC"/>
<path d="M132.328 138.544H77.9219V139.781H132.328V138.544Z" fill="#ECECEC"/>
<path d="M176.576 140.756H139.748V141.993H176.576V140.756Z" fill="#ECECEC"/>
<path d="M132.328 140.756H77.9219V141.993H132.328V140.756Z" fill="#ECECEC"/>
<path d="M176.576 143.372H139.748V144.609H176.576V143.372Z" fill="#ECECEC"/>
<path d="M132.328 143.372H77.9219V144.609H132.328V143.372Z" fill="#ECECEC"/>
<path d="M176.576 145.957H139.748V147.194H176.576V145.957Z" fill="#ECECEC"/>
<path d="M132.328 145.957H77.9219V147.194H132.328V145.957Z" fill="#ECECEC"/>
<path d="M176.576 148.542H139.748V149.779H176.576V148.542Z" fill="#ECECEC"/>
<path d="M132.328 148.542H77.9219V149.779H132.328V148.542Z" fill="#ECECEC"/>
<path d="M176.576 150.896H139.748V152.133H176.576V150.896Z" fill="#ECECEC"/>
<path d="M132.328 150.896H77.9219V152.133H132.328V150.896Z" fill="#ECECEC"/>
<path d="M176.831 157.707H77.9219V158.944H176.831V157.707Z" fill="#5CB8FF"/>
<path d="M176.831 160.292H77.9219V161.529H176.831V160.292Z" fill="#ECECEC"/>
<path d="M176.831 162.646H77.9219V163.883H176.831V162.646Z" fill="#ECECEC"/>
<path d="M176.831 165.351H77.9219V166.587H176.831V165.351Z" fill="#ECECEC"/>
<path d="M176.831 167.562H77.9219V168.799H176.831V167.562Z" fill="#ECECEC"/>
<path d="M176.831 170.179H77.9219V171.416H176.831V170.179Z" fill="#ECECEC"/>
<path d="M176.831 172.875H77.9219V174.112H176.831V172.875Z" fill="#ECECEC"/>
<path d="M176.831 175.459H77.9219V176.696H176.831V175.459Z" fill="#ECECEC"/>
<path d="M176.831 177.814H77.9219V179.051H176.831V177.814Z" fill="#ECECEC"/>
<path d="M69.8503 147.614H21.5098V179.051H69.8503V147.614Z" fill="#8DCCFF"/>
<path fill-rule="evenodd" clip-rule="evenodd" d="M46.4209 155.162L48.2207 159.895L56.9976 152.062L54.1671 161.711L59.4792 160.561L55.5467 164.811L61.4217 169.029L53.1919 168.466L56.2999 174.928L47.3089 170.163L44.0027 175.292L41.862 169.544L33.0137 172.668L37.3506 166.349L29.9453 157.58L38.8887 160.997L38.8253 151.38L44.2088 160.22L46.4209 155.162Z" fill="white"/>
<path d="M38.7611 160.602L30.341 157.208C30.2696 157.177 30.2379 157.097 30.2617 157.026C30.2934 156.955 30.3727 156.923 30.4441 156.947L38.4678 160.182L38.3726 156.526C38.3726 156.447 38.4281 156.384 38.5074 156.384C38.5867 156.384 38.6422 156.447 38.6501 156.519L38.7611 160.602ZM48.3626 159.476L46.9038 155.837C46.8721 155.765 46.9117 155.686 46.9831 155.654C47.0544 155.623 47.1337 155.662 47.1654 155.734L48.4736 159L51.3993 156.336C51.4548 156.281 51.542 156.289 51.5975 156.344C51.653 156.4 51.6451 156.487 51.5896 156.542L48.3626 159.476ZM55.9741 157.391C55.9582 157.391 55.9503 157.391 55.9344 157.383C55.8631 157.359 55.8155 157.288 55.8393 157.208L57.1554 152.57C57.1792 152.499 57.2506 152.451 57.3299 152.475C57.4012 152.499 57.4488 152.57 57.425 152.649L56.1089 157.288C56.093 157.351 56.0375 157.391 55.9741 157.391ZM54.872 161.244C54.8086 161.244 54.7531 161.196 54.7372 161.133C54.7214 161.054 54.7689 160.982 54.8403 160.966L57.98 160.245C58.0593 160.229 58.1306 160.277 58.1465 160.348C58.1624 160.427 58.1148 160.499 58.0434 160.515L54.9037 161.236C54.8958 161.236 54.8799 161.244 54.872 161.244ZM57.4646 165.922C57.4329 165.922 57.4091 165.914 57.3854 165.898L55.8155 164.74L58.3923 161.997C58.4478 161.942 58.535 161.942 58.5905 161.989C58.646 162.045 58.646 162.132 58.5984 162.187L56.2436 164.701L57.5598 165.676C57.6232 165.724 57.6391 165.811 57.5915 165.874C57.5519 165.898 57.5043 165.922 57.4646 165.922ZM46.1585 173.065C46.1347 173.065 46.1109 173.058 46.0871 173.042C46.0237 173.002 45.9999 172.915 46.0396 172.851L47.4112 170.608L49.988 171.955C50.0594 171.995 50.0831 172.074 50.0435 172.146C50.0039 172.217 49.9246 172.241 49.8532 172.201L47.5143 170.972L46.2774 172.994C46.2536 173.042 46.2061 173.065 46.1585 173.065ZM33.1398 171.86C33.116 171.86 33.0843 171.852 33.0605 171.837C32.9971 171.797 32.9812 171.71 33.0209 171.638L36.5174 166.477L34.4797 164.074C34.4321 164.019 34.4401 163.924 34.4956 163.876C34.5511 163.829 34.6462 163.837 34.6938 163.892L36.8662 166.461L33.2508 171.797C33.227 171.837 33.1874 171.86 33.1398 171.86ZM55.6173 172.55C55.5697 172.55 55.5142 172.518 55.4904 172.471L53.6193 168.8L61.3259 169.299C61.4051 169.307 61.4606 169.371 61.4527 169.45C61.4448 169.529 61.3814 169.585 61.3021 169.577L54.0871 169.109L55.7362 172.344C55.7679 172.415 55.7441 172.495 55.6728 172.534C55.6569 172.542 55.6411 172.55 55.6173 172.55Z" fill="white"/>
<path fill-rule="evenodd" clip-rule="evenodd" d="M181.192 148.05H206.389C207 148.05 207.491 148.541 207.491 149.152V182.254C207.491 182.856 207 183.356 206.389 183.356H181.192C180.582 183.356 180.082 182.856 180.082 182.254V149.152C180.082 148.541 180.582 148.05 181.192 148.05Z" fill="#0F77EB"/>
<path fill-rule="evenodd" clip-rule="evenodd" d="M181.089 148.05H203.987C204.534 148.05 204.986 148.502 204.986 149.057V182.357C204.986 182.912 204.534 183.364 203.987 183.364H181.089C180.542 183.364 180.082 182.912 180.082 182.357V149.057C180.082 148.502 180.542 148.05 181.089 148.05Z" fill="#BBDFFF"/>
<path d="M203.296 151.348H181.77V159.546H203.296V151.348Z" fill="#5CB8FF"/>
<path d="M203.296 151.348H181.77V152.624H203.296V151.348Z" fill="#0F77EB"/>
<path fill-rule="evenodd" clip-rule="evenodd" d="M190.88 155.352H195.645C195.994 155.352 196.28 155.637 196.28 155.986C196.28 156.335 195.994 156.612 195.645 156.612H190.88C190.532 156.612 190.246 156.335 190.246 155.986C190.246 155.637 190.532 155.352 190.88 155.352Z" fill="#E3F3FF"/>
<path d="M203.296 161.727H181.77V169.933H203.296V161.727Z" fill="#5CB8FF"/>
<path d="M203.296 161.727H181.77V163.011H203.296V161.727Z" fill="#0F77EB"/>
<path fill-rule="evenodd" clip-rule="evenodd" d="M190.88 165.738H195.645C195.994 165.738 196.28 166.024 196.28 166.373C196.28 166.721 195.994 166.999 195.645 166.999H190.88C190.532 166.999 190.246 166.721 190.246 166.373C190.246 166.024 190.532 165.738 190.88 165.738Z" fill="#E3F3FF"/>
<path d="M203.296 172.089H181.77V180.295H203.296V172.089Z" fill="#5CB8FF"/>
<path d="M203.296 172.089H181.77V173.373H203.296V172.089Z" fill="#0F77EB"/>
<path fill-rule="evenodd" clip-rule="evenodd" d="M190.88 176.102H195.645C195.994 176.102 196.28 176.387 196.28 176.736C196.28 177.077 195.994 177.362 195.645 177.362H190.88C190.532 177.362 190.246 177.077 190.246 176.736C190.246 176.387 190.532 176.102 190.88 176.102Z" fill="#E3F3FF"/>
<path fill-rule="evenodd" clip-rule="evenodd" d="M105.166 163.114C106.038 161.148 109.099 164.153 109.352 162.797C109.154 160.823 106.53 156.002 111.184 154.195C119.778 151.047 111.168 162.242 112.365 164.938C113.071 166.135 116.686 164.09 116.266 166.674C115.394 169.846 110.637 170.29 107.822 172.097C106.934 169.092 104.27 165.358 105.166 163.114Z" fill="#9999FE"/>
<path d="M106.481 176.846C106.465 176.846 106.457 176.846 106.441 176.838C106.354 176.814 106.298 176.727 106.322 176.64C106.837 174.61 107.638 172.121 108.415 169.718C109.263 167.094 110.136 164.382 110.683 162.154C111.285 159.681 111.388 158.127 111.016 157.405C110.976 157.326 111.008 157.223 111.087 157.183C111.166 157.143 111.269 157.175 111.309 157.254C112.229 159.007 110.532 164.255 108.732 169.813C107.955 172.216 107.154 174.697 106.647 176.711C106.623 176.79 106.552 176.846 106.481 176.846Z" fill="#CCCCFE"/>
<path d="M108.731 169.441C108.708 169.441 108.676 169.433 108.652 169.425C108.573 169.385 108.541 169.282 108.581 169.203C109.366 167.704 110.848 167.466 112.862 167.308C112.949 167.3 113.029 167.371 113.037 167.458C113.044 167.546 112.973 167.625 112.886 167.633C110.682 167.815 109.516 168.117 108.866 169.353C108.842 169.401 108.787 169.441 108.731 169.441ZM109.27 167.752C109.263 167.752 109.247 167.752 109.239 167.752C109.152 167.736 109.088 167.649 109.104 167.562C109.35 166.23 107.907 164.295 107.146 163.978C107.058 163.946 107.019 163.851 107.058 163.764C107.09 163.677 107.185 163.637 107.272 163.677C108.153 164.041 109.714 166.095 109.429 167.625C109.421 167.696 109.35 167.752 109.27 167.752Z" fill="#CCCCFE"/>
<path fill-rule="evenodd" clip-rule="evenodd" d="M97.8387 164.28C97.6405 161.917 102.192 163.177 101.716 161.734C100.471 159.927 95.3492 156.684 98.8932 152.45C105.506 144.815 103.175 160.236 105.775 162.186C107.091 162.963 109.494 159.055 110.469 161.782C111.325 165.31 106.965 168.283 105.212 171.526C102.747 169.116 98.1717 166.936 97.8387 164.28Z" fill="#CCCCFE"/>
<path d="M106.362 176.854C106.291 176.854 106.219 176.806 106.204 176.735C105.617 174.499 105.062 171.669 104.523 168.925C103.936 165.944 103.333 162.852 102.667 160.418C101.922 157.707 101.201 156.145 100.44 155.645C100.36 155.598 100.344 155.494 100.392 155.415C100.44 155.336 100.543 155.32 100.622 155.368C101.454 155.923 102.208 157.492 102.985 160.323C103.659 162.773 104.261 165.865 104.848 168.854C105.387 171.589 105.934 174.412 106.521 176.64C106.545 176.727 106.489 176.814 106.402 176.838C106.386 176.846 106.378 176.854 106.362 176.854Z" fill="#9999FE"/>
<path d="M104.569 168.498C104.482 168.498 104.411 168.427 104.403 168.339C104.355 166.484 105.663 165.469 107.511 164.232C107.59 164.185 107.685 164.201 107.741 164.28C107.788 164.351 107.772 164.454 107.693 164.51C105.655 165.874 104.688 166.793 104.728 168.339C104.736 168.419 104.664 168.498 104.569 168.498C104.577 168.498 104.577 168.498 104.569 168.498ZM104.189 166.579C104.117 166.579 104.054 166.532 104.03 166.468C103.554 165.041 101.112 163.939 100.208 164.05C100.121 164.058 100.034 163.995 100.026 163.907C100.018 163.82 100.082 163.733 100.169 163.725C100.692 163.662 101.604 163.931 102.428 164.391C103.007 164.708 104.014 165.39 104.339 166.373C104.371 166.46 104.323 166.556 104.236 166.579C104.228 166.579 104.212 166.579 104.189 166.579Z" fill="#9999FE"/>
<path fill-rule="evenodd" clip-rule="evenodd" d="M108.281 182.373L109.764 183.102H106.561H103.357L104.84 182.373H108.281Z" fill="#BE96F8"/>
<path fill-rule="evenodd" clip-rule="evenodd" d="M113.347 176.323C113.062 179.82 110.136 182.571 106.56 182.571C102.992 182.571 100.067 179.82 99.7812 176.323H113.347Z" fill="#DFCFFD"/>
<path fill-rule="evenodd" clip-rule="evenodd" d="M105.023 181.731C102.724 181.398 100.86 179.392 100.527 176.815L101.051 176.783C101.376 179.178 102.969 181.096 105.023 181.723V181.731Z" fill="white"/>
<path d="M162.147 179.859C161.148 180.319 159.546 181.12 156.343 181.318C155.804 181.548 155.978 182.603 156.311 182.531H162.845H163.225H169.758C170.091 182.603 170.266 181.548 169.727 181.318C166.531 181.12 164.922 180.319 163.923 179.859V151.578H162.147V179.859Z" fill="#5CB8FF"/>
<path d="M170.703 158.547H155.955C155.218 158.547 154.6 159.451 154.6 160.561V161.021C154.6 162.131 155.218 163.034 155.955 163.034H170.703C171.448 163.034 172.058 162.131 172.058 161.021V160.561C172.05 159.451 171.448 158.547 170.703 158.547Z" fill="#F7855A"/>
<path d="M146.504 144.593C145.862 143.927 145.585 143.958 144.958 143.308C143.904 143.181 142.612 143.261 141.509 143.998L141.946 145.869C143.325 145.29 144.808 145.1 146.504 144.593ZM139.258 170.995C140.059 171.732 140.851 172.477 141.652 173.207C140.257 175.181 140.851 176.505 140.154 177.631C138.949 178.099 137.942 177.425 137.529 176.806C135.531 177.441 133.129 176.156 130.972 175.237C130.481 173.381 135.619 175.57 137.973 174.111L139.258 170.995ZM149.771 176.719C150.778 177.124 151.785 177.536 152.8 177.932C152.205 180.271 153.236 181.302 152.974 182.594C152.031 183.466 150.857 183.189 150.247 182.769C148.598 184.061 145.894 183.72 143.555 183.641C142.429 182.079 148.011 182.285 149.7 180.089L149.771 176.719Z" fill="#FFAA81"/>
<path d="M162.963 136.783L159.086 132.431L155.288 141.398L143.633 143.245L144.164 145.513C148.707 145.108 153.25 144.696 157.801 144.3C158.927 143.808 161.242 139.289 162.963 136.783Z" fill="#EE7005"/>
<path d="M150.271 134.714L150.913 133.191L149.62 132.47L148.598 133.746L150.271 134.714Z" fill="#FFAA81"/>
<path d="M146.535 131.757L146.551 132.193C147.296 132.161 148.2 132.034 148.414 132.661C148.509 133.295 148.581 133.977 148.47 134.666C148.367 135.269 147.518 135.436 146.686 135.451L146.702 135.864C147.637 135.887 148.723 135.753 148.834 134.896C148.922 134.024 148.842 133.16 148.739 132.359C148.501 131.447 147.32 131.804 146.535 131.757Z" fill="#2C7EFE"/>
<path d="M147.219 130.979L147.465 136.276C147.481 136.545 147.298 136.775 147.068 136.775L143.897 136.934C143.667 136.942 143.469 136.728 143.445 136.474L143.199 131.17C144.103 131.043 144.19 131.598 145.237 131.55C146.276 131.487 146.521 130.979 147.219 130.979Z" fill="#2C7EFE"/>
<path d="M145.189 130.48C146.299 130.432 147.203 130.63 147.219 130.908C147.235 131.201 146.339 131.487 145.237 131.534C144.127 131.59 143.207 131.399 143.191 131.106C143.184 130.813 144.072 130.543 145.189 130.48Z" fill="#0643A3"/>
<path d="M145.204 131.114C145.91 131.082 146.512 131.154 146.798 131.273C146.433 131.407 145.862 131.502 145.236 131.534C144.602 131.566 144.031 131.51 143.658 131.415C143.92 131.265 144.514 131.146 145.204 131.114Z" fill="#060352"/>
<path d="M149.518 132.272C148.908 132.01 148.234 131.804 147.718 132.295C147.354 132.66 147.433 134.817 148.052 134.793C148.511 134.769 148.844 134.928 149.344 134.563C150.113 134.016 149.812 133.279 149.701 132.486C149.693 132.43 149.55 132.295 149.518 132.272Z" fill="#FFAA81"/>
<path d="M164.502 129.854L161.347 130.337C160.133 131.027 159.166 131.59 158.754 133.287L159.325 151.126H168.355C168.197 145.132 168.038 139.122 167.872 133.128C167.436 131.542 166.072 130.369 164.502 129.854Z" fill="#FD7F0B"/>
<path d="M163.687 133.643C164.018 132.95 164.771 132.564 165.528 132.699V132.699C166.68 132.905 167.305 134.193 166.803 135.251C165.298 138.425 163.667 142.372 162.63 142.563C162.067 143.205 154.598 137.576 150.285 134.975L150.769 133.041L161.433 138.361L163.687 133.643Z" fill="#EE7005"/>
<path d="M168.007 137.529L166.516 135.864C165.327 138.417 164.098 141.255 163.155 142.222L168.3 148.914L168.007 137.529ZM163.987 133.033L159.404 137.354L161.434 138.361L163.987 133.033Z" fill="#FD7F0B"/>
<path d="M145.124 151.387C146.821 149.128 160.624 151.213 168.362 151.126C168.458 165.841 155.146 158.396 149.326 158.42L142.714 174.158L138.266 173.112C140.517 165.516 143.11 153.885 145.124 151.387Z" fill="#1F1F1F"/>
<path d="M148.763 158.412C150.46 156.684 154.258 159.617 160.545 160.347L153.037 162.559L153.195 178.995L149.001 179.145C148.684 171.732 146.583 160.45 148.763 158.412Z" fill="#1F1F1F"/>
<path d="M144.531 123.091C143.675 123.876 143.596 125.144 144.396 125.969C145.935 127.539 145.681 127.872 144.833 129.592C144.547 130.179 145.483 128.958 145.657 128.688C145.808 128.451 146.03 128.181 145.966 127.412C145.879 126.524 145.427 126.484 144.626 125.255C144.063 124.415 144.206 123.947 144.531 123.091Z" fill="#84B2FE"/>
<path fill-rule="evenodd" clip-rule="evenodd" d="M160.609 128.196L163.456 126.928L164.288 130.099C163.305 131.645 161.981 131.558 161.117 131.281L160.609 128.196Z" fill="#FF9866"/>
<path fill-rule="evenodd" clip-rule="evenodd" d="M164.081 119.824C161.616 120.118 159.174 120.395 156.708 120.688C156.232 122.282 157.588 128.276 159.174 129.497C161.164 131.004 163.844 129.132 164.295 127.206C164.795 125.422 164.874 121.212 164.081 119.824Z" fill="#FFAA81"/>
<path fill-rule="evenodd" clip-rule="evenodd" d="M159.246 121.426C158.295 121.061 157.558 122.361 156.63 121.957C155.052 120.363 154.45 118.603 157.058 117.089C157.09 117.517 157.375 117.691 157.573 117.739C157.938 117.438 158.224 116.914 158.969 116.898C158.572 117.43 158.572 117.731 158.905 118.08C159.952 118.27 161.236 117.089 162.735 117.366C164.122 117.786 164.733 118.476 165.28 119.412C166.549 121.941 165.248 123.955 164.709 125.001C164.463 125.271 164.352 125.398 163.361 124.629C164.035 123.765 164.297 122.702 163.401 122.258C162.116 121.568 162.79 123.321 161.95 123.669C161.776 122.916 159.92 121.616 159.246 121.426Z" fill="#060352"/>
<path fill-rule="evenodd" clip-rule="evenodd" d="M132.035 145.283H150.121C150.343 145.283 150.541 145.481 150.541 145.703V146.338C150.541 146.56 150.343 146.758 150.121 146.758H132.035C131.79 146.758 131.615 146.56 131.615 146.338V145.703C131.615 145.481 131.798 145.283 132.035 145.283Z" fill="#2C7EFE"/>
<path fill-rule="evenodd" clip-rule="evenodd" d="M121.513 133.287C124.288 133.287 127.078 133.287 129.853 133.287C132.628 133.287 135.419 133.287 138.194 133.287C138.654 133.287 139.138 133.684 139.273 134.143C139.78 136.102 140.287 138.084 140.795 140.042C141.326 142.001 141.826 143.959 142.333 145.917C142.444 146.377 142.159 146.75 141.699 146.75C138.924 146.75 136.172 146.75 133.405 146.75C130.63 146.75 127.863 146.75 125.088 146.75C124.628 146.75 124.161 146.377 124.034 145.917C123.503 143.959 123.003 142.001 122.472 140.042C121.941 138.084 121.441 136.102 120.91 134.143C120.767 133.684 121.053 133.287 121.513 133.287Z" fill="#84B2FE"/>
<path fill-rule="evenodd" clip-rule="evenodd" d="M131.614 138.346C132.232 138.346 132.232 138.433 132.518 138.591C132.074 138.877 131.883 139.408 132.058 140.042C132.208 140.661 132.692 141.208 133.287 141.493C133.065 141.628 133.112 141.715 132.494 141.715C131.875 141.715 130.599 140.97 130.361 140.042C130.123 139.099 130.979 138.346 131.614 138.346Z" fill="white"/>
<path d="M120.529 148.351H119.086V183.736H120.529V148.351Z" fill="#DEAD73"/>
<path d="M175.062 148.351H173.619V183.736H175.062V148.351Z" fill="#DEAD73"/>
<path d="M179.55 146.733H114.6V149.794H179.55V146.733Z" fill="#FFCDAD"/>
<path fill-rule="evenodd" clip-rule="evenodd" d="M200.886 111.737C205.413 111.737 209.108 108.059 209.108 103.516C209.108 98.9883 205.413 95.3174 200.886 95.3174C196.359 95.3174 192.664 98.9962 192.664 103.516C192.664 108.059 196.367 111.737 200.886 111.737Z" fill="white"/>
<path d="M208.64 100.986C208.561 100.986 208.489 100.938 208.466 100.859C207.966 99.4794 207.11 98.2584 205.992 97.3308C205.913 97.2673 205.905 97.1484 205.968 97.0612C206.031 96.9819 206.15 96.974 206.238 97.0374C207.403 98.0126 208.299 99.2891 208.822 100.732C208.854 100.827 208.806 100.938 208.711 100.978C208.688 100.978 208.664 100.986 208.64 100.986Z" fill="#8183F1"/>
<path d="M200.887 111.92C198.635 111.92 196.526 111.048 194.94 109.462C193.355 107.876 192.482 105.759 192.482 103.515C192.482 98.893 196.256 95.127 200.895 95.127C202.314 95.127 203.67 95.4679 204.914 96.1497C205.01 96.1973 205.041 96.3162 204.994 96.4035C204.946 96.4986 204.827 96.5303 204.74 96.4827C203.551 95.8326 202.258 95.5075 200.903 95.5075C196.47 95.5075 192.871 99.0992 192.871 103.515C192.871 107.947 196.47 111.547 200.903 111.547C205.335 111.547 208.934 107.947 208.934 103.515C208.934 102.905 208.863 102.326 208.728 101.803C208.704 101.7 208.76 101.597 208.863 101.573C208.966 101.549 209.069 101.605 209.093 101.708C209.235 102.271 209.315 102.873 209.315 103.515C209.299 108.154 205.525 111.92 200.887 111.92Z" fill="#8183F1"/>
<path fill-rule="evenodd" clip-rule="evenodd" d="M198.405 105.339L194.877 103.468C194.71 103.365 194.663 103.555 194.726 103.659L197.914 107.139C198.254 107.44 198.508 107.44 198.889 107.139C201.608 104.721 204.304 102.295 207.023 99.8766C207.111 99.7894 207.023 99.6229 206.873 99.7101L198.405 105.339Z" fill="#0643A3"/>
<path fill-rule="evenodd" clip-rule="evenodd" d="M97.6478 61.5099C103.198 61.5099 107.741 56.9985 107.741 51.4168C107.741 45.8668 103.206 41.3555 97.6478 41.3555C92.0978 41.3555 87.5547 45.8668 87.5547 51.4168C87.5547 56.9985 92.0898 61.5099 97.6478 61.5099Z" fill="white"/>
<path d="M107.163 48.3082C107.068 48.3082 106.981 48.2527 106.949 48.1576C106.331 46.4609 105.284 44.9624 103.913 43.8206C103.817 43.7414 103.802 43.5907 103.881 43.4956C103.96 43.4004 104.111 43.3846 104.206 43.4639C105.633 44.6531 106.735 46.223 107.377 47.999C107.425 48.1179 107.361 48.2527 107.243 48.2924C107.219 48.3082 107.195 48.3082 107.163 48.3082Z" fill="url(#paint2_linear_1505_139)"/>
<path d="M97.6492 61.7394C94.89 61.7394 92.2974 60.669 90.347 58.7186C88.3965 56.7682 87.3262 54.1755 87.3262 51.4164C87.3262 45.7395 91.9565 41.1172 97.6492 41.1172C99.3935 41.1172 101.051 41.5374 102.581 42.3699C102.692 42.4333 102.731 42.5681 102.676 42.687C102.612 42.798 102.478 42.8377 102.359 42.7822C100.9 41.9893 99.3142 41.585 97.6492 41.585C92.2102 41.585 87.794 45.9933 87.794 51.4164C87.794 56.8554 92.2181 61.2716 97.6492 61.2716C103.088 61.2716 107.504 56.8475 107.504 51.4164C107.504 50.6711 107.417 49.9575 107.251 49.3074C107.219 49.1805 107.29 49.0537 107.417 49.022C107.544 48.9903 107.671 49.0616 107.703 49.1885C107.877 49.8783 107.972 50.6235 107.972 51.4085C107.972 57.1091 103.342 61.7394 97.6492 61.7394Z" fill="url(#paint3_linear_1505_139)"/>
<path fill-rule="evenodd" clip-rule="evenodd" d="M94.5967 53.6604L90.2677 51.3691C90.0616 51.2422 90.0061 51.4722 90.0854 51.6069L93.9942 55.8804C94.4144 56.2452 94.7236 56.2452 95.1914 55.8804C98.5293 52.9072 101.843 49.934 105.181 46.9608C105.284 46.8577 105.181 46.6516 104.999 46.7547L94.5967 53.6604Z" fill="url(#paint4_linear_1505_139)"/>
<path d="M52.4702 102H49.8338L53.8509 90.3636H57.0213L61.0327 102H58.3963L55.4815 93.0227H55.3906L52.4702 102ZM52.3054 97.4261H58.5327V99.3466H52.3054V97.4261ZM65.9247 102.17C65.0308 102.17 64.2618 101.981 63.6179 101.602C62.9777 101.22 62.4853 100.689 62.1406 100.011C61.7997 99.3333 61.6293 98.553 61.6293 97.6705C61.6293 96.7765 61.8016 95.9924 62.1463 95.3182C62.4948 94.6402 62.9891 94.1117 63.6293 93.733C64.2694 93.3504 65.0308 93.1591 65.9134 93.1591C66.6747 93.1591 67.3414 93.2973 67.9134 93.5739C68.4853 93.8504 68.938 94.2386 69.2713 94.7386C69.6046 95.2386 69.7884 95.8258 69.8224 96.5H67.5384C67.474 96.0644 67.3035 95.714 67.027 95.4489C66.7543 95.1799 66.3963 95.0455 65.9531 95.0455C65.5781 95.0455 65.2505 95.1477 64.9702 95.3523C64.6937 95.553 64.4777 95.8466 64.3224 96.233C64.1671 96.6193 64.0895 97.0871 64.0895 97.6364C64.0895 98.1932 64.1652 98.6667 64.3168 99.0568C64.4721 99.447 64.6899 99.7443 64.9702 99.9489C65.2505 100.153 65.5781 100.256 65.9531 100.256C66.2296 100.256 66.4777 100.199 66.6974 100.085C66.9209 99.9716 67.1046 99.8068 67.2486 99.5909C67.3963 99.3712 67.4929 99.108 67.5384 98.8011H69.8224C69.7846 99.4678 69.6027 100.055 69.277 100.562C68.955 101.066 68.5099 101.46 67.9418 101.744C67.3736 102.028 66.7012 102.17 65.9247 102.17ZM73.7926 96.9545V102H71.3722V93.2727H73.679V94.8125H73.7812C73.9744 94.3049 74.2983 93.9034 74.7528 93.608C75.2074 93.3087 75.7585 93.1591 76.4062 93.1591C77.0123 93.1591 77.5407 93.2917 77.9915 93.5568C78.4422 93.822 78.7926 94.2008 79.0426 94.6932C79.2926 95.1818 79.4176 95.7652 79.4176 96.4432V102H76.9972V96.875C77.0009 96.3409 76.8646 95.9242 76.5881 95.625C76.3116 95.322 75.9309 95.1705 75.446 95.1705C75.1203 95.1705 74.8324 95.2405 74.5824 95.3807C74.3362 95.5208 74.143 95.7254 74.0028 95.9943C73.8665 96.2595 73.7964 96.5795 73.7926 96.9545ZM85.2685 102.17C84.3859 102.17 83.6226 101.983 82.9787 101.608C82.3385 101.229 81.8442 100.703 81.4957 100.028C81.1473 99.3504 80.973 98.5644 80.973 97.6705C80.973 96.7689 81.1473 95.9811 81.4957 95.3068C81.8442 94.6288 82.3385 94.1023 82.9787 93.7273C83.6226 93.3485 84.3859 93.1591 85.2685 93.1591C86.151 93.1591 86.9124 93.3485 87.5526 93.7273C88.1965 94.1023 88.6927 94.6288 89.0412 95.3068C89.3897 95.9811 89.5639 96.7689 89.5639 97.6705C89.5639 98.5644 89.3897 99.3504 89.0412 100.028C88.6927 100.703 88.1965 101.229 87.5526 101.608C86.9124 101.983 86.151 102.17 85.2685 102.17ZM85.2798 100.295C85.6813 100.295 86.0166 100.182 86.2855 99.9545C86.5545 99.7235 86.7571 99.4091 86.8935 99.0114C87.0336 98.6136 87.1037 98.161 87.1037 97.6534C87.1037 97.1458 87.0336 96.6932 86.8935 96.2955C86.7571 95.8977 86.5545 95.5833 86.2855 95.3523C86.0166 95.1212 85.6813 95.0057 85.2798 95.0057C84.8745 95.0057 84.5336 95.1212 84.2571 95.3523C83.9844 95.5833 83.7779 95.8977 83.6378 96.2955C83.5014 96.6932 83.4332 97.1458 83.4332 97.6534C83.4332 98.161 83.5014 98.6136 83.6378 99.0114C83.7779 99.4091 83.9844 99.7235 84.2571 99.9545C84.5336 100.182 84.8745 100.295 85.2798 100.295ZM95.081 102.17C94.1984 102.17 93.4351 101.983 92.7912 101.608C92.151 101.229 91.6567 100.703 91.3082 100.028C90.9598 99.3504 90.7855 98.5644 90.7855 97.6705C90.7855 96.7689 90.9598 95.9811 91.3082 95.3068C91.6567 94.6288 92.151 94.1023 92.7912 93.7273C93.4351 93.3485 94.1984 93.1591 95.081 93.1591C95.9635 93.1591 96.7249 93.3485 97.3651 93.7273C98.009 94.1023 98.5052 94.6288 98.8537 95.3068C99.2022 95.9811 99.3764 96.7689 99.3764 97.6705C99.3764 98.5644 99.2022 99.3504 98.8537 100.028C98.5052 100.703 98.009 101.229 97.3651 101.608C96.7249 101.983 95.9635 102.17 95.081 102.17ZM95.0923 100.295C95.4938 100.295 95.8291 100.182 96.098 99.9545C96.367 99.7235 96.5696 99.4091 96.706 99.0114C96.8461 98.6136 96.9162 98.161 96.9162 97.6534C96.9162 97.1458 96.8461 96.6932 96.706 96.2955C96.5696 95.8977 96.367 95.5833 96.098 95.3523C95.8291 95.1212 95.4938 95.0057 95.0923 95.0057C94.687 95.0057 94.3461 95.1212 94.0696 95.3523C93.7969 95.5833 93.5904 95.8977 93.4503 96.2955C93.3139 96.6932 93.2457 97.1458 93.2457 97.6534C93.2457 98.161 93.3139 98.6136 93.4503 99.0114C93.5904 99.4091 93.7969 99.7235 94.0696 99.9545C94.3461 100.182 94.687 100.295 95.0923 100.295ZM114.432 90.3636V102H112.307L107.244 94.6761H107.159V102H104.699V90.3636H106.858L111.881 97.6818H111.983V90.3636H114.432ZM120.396 102.17C119.499 102.17 118.726 101.989 118.078 101.625C117.434 101.258 116.938 100.739 116.589 100.068C116.241 99.3939 116.067 98.5966 116.067 97.6761C116.067 96.7784 116.241 95.9905 116.589 95.3125C116.938 94.6345 117.429 94.1061 118.061 93.7273C118.697 93.3485 119.444 93.1591 120.3 93.1591C120.875 93.1591 121.411 93.2519 121.908 93.4375C122.408 93.6193 122.843 93.8939 123.214 94.2614C123.589 94.6288 123.881 95.0909 124.089 95.6477C124.298 96.2008 124.402 96.8485 124.402 97.5909V98.2557H117.033V96.7557H122.124C122.124 96.4072 122.048 96.0985 121.896 95.8295C121.745 95.5606 121.535 95.3504 121.266 95.1989C121 95.0436 120.692 94.9659 120.339 94.9659C119.972 94.9659 119.646 95.0511 119.362 95.2216C119.082 95.3883 118.862 95.6136 118.703 95.8977C118.544 96.178 118.463 96.4905 118.459 96.8352V98.2614C118.459 98.6932 118.538 99.0663 118.697 99.3807C118.86 99.6951 119.089 99.9375 119.385 100.108C119.68 100.278 120.031 100.364 120.436 100.364C120.705 100.364 120.951 100.326 121.175 100.25C121.398 100.174 121.589 100.061 121.749 99.9091C121.908 99.7576 122.029 99.572 122.112 99.3523L124.351 99.5C124.237 100.038 124.004 100.508 123.652 100.909C123.304 101.307 122.853 101.617 122.3 101.841C121.75 102.061 121.116 102.17 120.396 102.17ZM127.641 102L125.266 93.2727H127.714L129.067 99.1364H129.146L130.555 93.2727H132.959L134.391 99.1023H134.464L135.794 93.2727H138.237L135.868 102H133.305L131.805 96.5114H131.697L130.197 102H127.641ZM146.79 95.7614L144.574 95.8977C144.536 95.7083 144.455 95.5379 144.33 95.3864C144.205 95.2311 144.04 95.108 143.835 95.017C143.634 94.9223 143.394 94.875 143.114 94.875C142.739 94.875 142.422 94.9545 142.165 95.1136C141.907 95.2689 141.778 95.4773 141.778 95.7386C141.778 95.947 141.862 96.1231 142.028 96.267C142.195 96.411 142.481 96.5265 142.886 96.6136L144.466 96.9318C145.314 97.1061 145.947 97.3864 146.364 97.7727C146.78 98.1591 146.989 98.6667 146.989 99.2955C146.989 99.8674 146.82 100.369 146.483 100.801C146.15 101.233 145.691 101.57 145.108 101.812C144.528 102.051 143.86 102.17 143.102 102.17C141.947 102.17 141.027 101.93 140.341 101.449C139.659 100.964 139.259 100.305 139.142 99.4716L141.523 99.3466C141.595 99.6989 141.769 99.9678 142.045 100.153C142.322 100.335 142.676 100.426 143.108 100.426C143.532 100.426 143.873 100.345 144.131 100.182C144.392 100.015 144.525 99.8011 144.528 99.5398C144.525 99.3201 144.432 99.1402 144.25 99C144.068 98.8561 143.788 98.7462 143.409 98.6705L141.898 98.3693C141.045 98.1989 140.411 97.9034 139.994 97.483C139.581 97.0625 139.375 96.5265 139.375 95.875C139.375 95.3144 139.527 94.8314 139.83 94.4261C140.136 94.0208 140.566 93.7083 141.119 93.4886C141.676 93.2689 142.328 93.1591 143.074 93.1591C144.176 93.1591 145.044 93.392 145.676 93.858C146.313 94.3239 146.684 94.9583 146.79 95.7614Z" fill="#404040"/>
<defs>
<filter id="filter0_d_1505_139" x="2.4043" y="179.308" width="219.326" height="18.6729" filterUnits="userSpaceOnUse" color-interpolation-filters="sRGB">
<feFlood flood-opacity="0" result="BackgroundImageFix"/>
<feColorMatrix in="SourceAlpha" type="matrix" values="0 0 0 0 0 0 0 0 0 0 0 0 0 0 0 0 0 0 127 0" result="hardAlpha"/>
<feOffset dy="4"/>
<feGaussianBlur stdDeviation="2"/>
<feComposite in2="hardAlpha" operator="out"/>
<feColorMatrix type="matrix" values="0 0 0 0 0 0 0 0 0 0 0 0 0 0 0 0 0 0 0.03 0"/>
<feBlend mode="normal" in2="BackgroundImageFix" result="effect1_dropShadow_1505_139"/>
<feBlend mode="normal" in="SourceGraphic" in2="effect1_dropShadow_1505_139" result="shape"/>
</filter>
<linearGradient id="paint0_linear_1505_139" x1="56.1257" y1="126.284" x2="215.184" y2="120.081" gradientUnits="userSpaceOnUse">
<stop stop-color="#0F77EB"/>
<stop offset="1" stop-color="#12C0FF"/>
</linearGradient>
<linearGradient id="paint1_linear_1505_139" x1="55.9383" y1="144.44" x2="185.639" y2="139.687" gradientUnits="userSpaceOnUse">
<stop stop-color="#0F77EB"/>
<stop offset="1" stop-color="#12C0FF"/>
</linearGradient>
<linearGradient id="paint2_linear_1505_139" x1="104.699" y1="46.695" x2="107.386" y2="46.6468" gradientUnits="userSpaceOnUse">
<stop stop-color="#0F77EB"/>
<stop offset="1" stop-color="#12C0FF"/>
</linearGradient>
<linearGradient id="paint3_linear_1505_139" x1="92.3628" y1="54.9434" x2="107.925" y2="54.5593" gradientUnits="userSpaceOnUse">
<stop stop-color="#0F77EB"/>
<stop offset="1" stop-color="#12C0FF"/>
</linearGradient>
<linearGradient id="paint4_linear_1505_139" x1="93.7519" y1="53.0472" x2="105.176" y2="52.5939" gradientUnits="userSpaceOnUse">
<stop stop-color="#0F77EB"/>
<stop offset="1" stop-color="#12C0FF"/>
</linearGradient>
</defs>
</svg>
