<svg width="20" height="20" viewBox="0 0 20 20" fill="none" xmlns="http://www.w3.org/2000/svg">
<path d="M2.08301 9.99967C2.08301 6.26772 2.08301 4.40175 3.24237 3.24237C4.40175 2.08301 6.26772 2.08301 9.99967 2.08301C13.7316 2.08301 15.5976 2.08301 16.757 3.24237C17.9163 4.40175 17.9163 6.26772 17.9163 9.99967C17.9163 13.7316 17.9163 15.5976 16.757 16.757C15.5976 17.9163 13.7316 17.9163 9.99967 17.9163C6.26772 17.9163 4.40175 17.9163 3.24237 16.757C2.08301 15.5976 2.08301 13.7316 2.08301 9.99967Z" stroke="url(#paint0_linear_1600_2)" stroke-width="1.25"/>
<path d="M2.08301 7.5H17.9163" stroke="url(#paint1_linear_1600_2)" stroke-width="1.25" stroke-linejoin="round"/>
<path d="M10.833 10.833H14.1663" stroke="url(#paint2_linear_1600_2)" stroke-width="1.25" stroke-linecap="round" stroke-linejoin="round"/>
<path d="M10.833 14.167H12.4997" stroke="url(#paint3_linear_1600_2)" stroke-width="1.25" stroke-linecap="round" stroke-linejoin="round"/>
<path d="M5.83301 5H5.84049" stroke="url(#paint4_linear_1600_2)" stroke-width="1.66667" stroke-linecap="round" stroke-linejoin="round"/>
<path d="M9.16602 5H9.17352" stroke="url(#paint5_linear_1600_2)" stroke-width="1.66667" stroke-linecap="round" stroke-linejoin="round"/>
<path d="M7.5 7.5V17.9167" stroke="url(#paint6_linear_1600_2)" stroke-width="1.25" stroke-linecap="round" stroke-linejoin="round"/>
<defs>
<linearGradient id="paint0_linear_1600_2" x1="5.94557" y1="12.6985" x2="17.8799" y2="12.4043" gradientUnits="userSpaceOnUse">
<stop stop-color="#0F77EB"/>
<stop offset="1" stop-color="#12C0FF"/>
</linearGradient>
<linearGradient id="paint1_linear_1600_2" x1="5.94557" y1="8.17045" x2="16.3081" y2="4.12524" gradientUnits="userSpaceOnUse">
<stop stop-color="#0F77EB"/>
<stop offset="1" stop-color="#12C0FF"/>
</linearGradient>
<linearGradient id="paint2_linear_1600_2" x1="11.6462" y1="11.5035" x2="14.1433" y2="11.2982" gradientUnits="userSpaceOnUse">
<stop stop-color="#0F77EB"/>
<stop offset="1" stop-color="#12C0FF"/>
</linearGradient>
<linearGradient id="paint3_linear_1600_2" x1="11.2396" y1="14.8374" x2="12.4945" y2="14.7859" gradientUnits="userSpaceOnUse">
<stop stop-color="#0F77EB"/>
<stop offset="1" stop-color="#12C0FF"/>
</linearGradient>
<linearGradient id="paint4_linear_1600_2" x1="5.83483" y1="5.67045" x2="5.84048" y2="5.67045" gradientUnits="userSpaceOnUse">
<stop stop-color="#0F77EB"/>
<stop offset="1" stop-color="#12C0FF"/>
</linearGradient>
<linearGradient id="paint5_linear_1600_2" x1="9.16785" y1="5.67045" x2="9.1735" y2="5.67045" gradientUnits="userSpaceOnUse">
<stop stop-color="#0F77EB"/>
<stop offset="1" stop-color="#12C0FF"/>
</linearGradient>
<linearGradient id="paint6_linear_1600_2" x1="7.74395" y1="14.4839" x2="8.49816" y2="14.4821" gradientUnits="userSpaceOnUse">
<stop stop-color="#0F77EB"/>
<stop offset="1" stop-color="#12C0FF"/>
</linearGradient>
</defs>
</svg>
