<?xml version="1.0" encoding="utf-8"?>
<!-- Generator: Adobe Illustrator 27.0.0, SVG Export Plug-In . SVG Version: 6.00 Build 0)  -->
<svg version="1.1" id="Layer_1" xmlns="http://www.w3.org/2000/svg" xmlns:xlink="http://www.w3.org/1999/xlink" x="0px" y="0px"
	 viewBox="0 0 80 80" style="enable-background:new 0 0 80 80;" xml:space="preserve">
<style type="text/css">
	.st0{fill:#FAFCFE;}
	.st1{fill:#0C8CFE;}
	.st2{fill:#0B8BFE;}
	.st3{fill:#0D8CFE;}
	.st4{fill:#020202;}
	.st5{fill:#FFFFFF;}
</style>
<g>
	<g>
		<path class="st1" d="M15.86,20.65L1.82,48.22c-2.23,4.38-0.49,9.73,3.89,11.96l0,0c4.38,2.23,9.73,0.49,11.96-3.89l14.04-27.57
			c2.23-4.38,0.49-9.73-3.89-11.96l0,0C23.44,14.53,18.09,16.27,15.86,20.65z"/>
		<path class="st1" d="M44.15,20.65L30.11,48.22c-2.23,4.38-0.49,9.73,3.89,11.96l0,0c4.38,2.23,9.73,0.49,11.96-3.89l14.04-27.57
			c2.23-4.38,0.49-9.73-3.89-11.96l0,0C51.73,14.53,46.38,16.27,44.15,20.65z"/>
	</g>
	<circle class="st1" cx="67.66" cy="52.89" r="11.32"/>
</g>
</svg>
