<?xml version="1.0" encoding="utf-8"?>
<!-- Generator: Adobe Illustrator 27.0.0, SVG Export Plug-In . SVG Version: 6.00 Build 0)  -->
<svg version="1.1" id="Layer_1" xmlns="http://www.w3.org/2000/svg" xmlns:xlink="http://www.w3.org/1999/xlink" x="0px" y="0px"
	 viewBox="0 0 280 80" style="enable-background:new 0 0 280 80;" xml:space="preserve">
<style type="text/css">
	.st0{fill:#FAFCFE;}
	.st1{fill:#0C8CFE;}
	.st2{fill:#0B8BFE;}
	.st3{fill:#0D8CFE;}
	.st4{fill:#020202;}
	.st5{fill:#FFFFFF;}
</style>
<g>
	<g>
		<path class="st1" d="M12.11,30.62L2.27,49.94C0.71,53,1.93,56.76,5,58.32l0,0c3.07,1.56,6.82,0.34,8.38-2.72l9.84-19.32
			c1.56-3.07,0.34-6.82-2.72-8.38l0,0C17.42,26.34,13.67,27.55,12.11,30.62z"/>
		<path class="st1" d="M31.93,30.62l-9.84,19.32c-1.56,3.07-0.34,6.82,2.72,8.38l0,0c3.07,1.56,6.82,0.34,8.38-2.72l9.84-19.32
			c1.56-3.07,0.34-6.82-2.72-8.38l0,0C37.24,26.34,33.49,27.55,31.93,30.62z"/>
	</g>
	<circle class="st1" cx="48.41" cy="53.21" r="7.93"/>
</g>
<g>
	<polygon points="79.86,48.75 74.86,31.06 68.34,31.06 68.34,57.3 72.84,57.3 72.84,39.01 77.67,54.38 82.04,54.38 86.88,38.67 
		86.88,57.3 91.37,57.3 91.37,31.06 84.86,31.06 	"/>
	<path d="M104.3,31.06L94.26,57.3h5.32l1.47-4.21h9.62l1.47,4.21h5.32l-10.04-26.25H104.3z M102.73,48.33l3.14-8.95l3.14,8.95
		H102.73z"/>
	<path d="M128.59,31.06L118.56,57.3h5.32l1.47-4.21h9.62l1.47,4.21h5.32l-10.04-26.25H128.59z M127.03,48.33l3.14-8.95l3.14,8.95
		H127.03z"/>
	<polygon points="160.4,50.27 151.07,31.06 145.02,31.06 145.02,57.28 149.75,57.28 149.75,38.37 159.05,57.28 165.13,57.28 
		165.13,31.06 160.4,31.06 	"/>
	<polygon points="196.21,50.28 186.88,31.06 180.83,31.06 180.83,57.28 185.56,57.28 185.56,38.37 194.86,57.28 200.94,57.28 
		200.94,31.06 196.21,31.06 	"/>
	<polygon points="208.51,31.06 206.72,31.06 206.72,57.3 208.51,57.3 211.66,57.3 224.3,57.3 224.3,52.54 211.66,52.54 
		211.66,46.65 222.31,46.65 222.31,41.89 211.66,41.89 211.66,35.82 224.3,35.82 224.3,31.06 211.66,31.06 	"/>
	<polygon points="248.58,48.57 243.56,31.06 239.59,31.06 234.57,48.57 231.2,31.06 226.1,31.06 232.15,57.3 236.81,57.3 
		241.68,38.96 246.34,57.3 251,57.3 257.04,31.06 251.95,31.06 	"/>
	<path d="M276.88,45.36c-0.75-1.03-1.68-1.78-2.79-2.24c-1.11-0.46-2.5-0.86-4.16-1.18c-0.07-0.01-0.14-0.03-0.21-0.05
		c-0.07-0.02-0.14-0.03-0.21-0.05c-0.05-0.01-0.1-0.02-0.14-0.03c-0.05-0.01-0.1-0.01-0.15-0.03c-1.15-0.23-2.05-0.45-2.69-0.65
		c-0.64-0.2-1.17-0.53-1.61-0.97c-0.43-0.44-0.65-1.04-0.65-1.8v-0.02c0-0.9,0.42-1.6,1.25-2.1c0.83-0.5,2-0.75,3.52-0.75
		c1.01,0,2.07,0.19,3.17,0.58s2.16,0.93,3.17,1.62l2.09-4.19c-0.84-0.58-1.73-1.07-2.67-1.48c-0.94-0.41-1.9-0.72-2.88-0.94
		c-0.98-0.22-1.94-0.32-2.88-0.32c-2.05,0-3.79,0.32-5.23,0.95c-1.44,0.63-2.54,1.55-3.3,2.75c-0.76,1.2-1.14,2.65-1.14,4.35v0.02
		c0,1.91,0.4,3.39,1.21,4.43c0.81,1.04,1.79,1.77,2.94,2.18c1.16,0.42,2.61,0.76,4.37,1.04l0.4,0.06c0.04,0.01,0.07,0.02,0.1,0.02
		c0.03,0,0.06,0.01,0.1,0.02c1,0.16,1.82,0.33,2.45,0.52c0.64,0.19,1.16,0.49,1.55,0.9c0.4,0.41,0.6,0.96,0.6,1.66v0.02
		c0,1-0.45,1.77-1.34,2.32c-0.89,0.55-2.14,0.82-3.76,0.82c-1.4,0-2.76-0.23-4.08-0.68c-1.32-0.45-2.49-1.09-3.5-1.92l-2.29,4.08
		c0.83,0.69,1.77,1.27,2.82,1.76c1.05,0.49,2.18,0.86,3.38,1.11c1.2,0.25,2.42,0.38,3.67,0.38c2.11,0,3.91-0.31,5.41-0.94
		c1.5-0.63,2.64-1.53,3.42-2.72c0.78-1.19,1.17-2.62,1.17-4.3v-0.04C278,47.8,277.63,46.39,276.88,45.36z"/>
</g>
</svg>
