<svg width="20" height="20" viewBox="0 0 20 20" fill="none" xmlns="http://www.w3.org/2000/svg">
<path d="M2.05393 7.78642C1.84681 7.78642 1.65781 7.61853 1.66734 7.39908C1.7231 6.11402 1.87933 5.27744 2.31705 4.61566C2.56889 4.23493 2.8817 3.90378 3.24135 3.63719C4.21345 2.91663 5.58481 2.91663 8.32754 2.91663H11.6731C14.4159 2.91663 15.7872 2.91663 16.7594 3.63719C17.1189 3.90378 17.4318 4.23493 17.6836 4.61566C18.1213 5.27737 18.2775 6.11383 18.3333 7.39865C18.3429 7.61836 18.1536 7.78642 17.9463 7.78642C16.7914 7.78642 15.8553 8.77746 15.8553 9.99996C15.8553 11.2225 16.7914 12.2135 17.9463 12.2135C18.1536 12.2135 18.3429 12.3815 18.3333 12.6013C18.2775 13.8861 18.1213 14.7225 17.6836 15.3843C17.4318 15.765 17.1189 16.0961 16.7594 16.3627C15.7872 17.0833 14.4159 17.0833 11.6731 17.0833H8.32754C5.58481 17.0833 4.21345 17.0833 3.24135 16.3627C2.8817 16.0961 2.56889 15.765 2.31705 15.3843C1.87933 14.7225 1.7231 13.8859 1.66734 12.6009C1.65781 12.3814 1.84681 12.2135 2.05393 12.2135C3.20875 12.2135 4.14492 11.2225 4.14492 9.99996C4.14492 8.77746 3.20875 7.78642 2.05393 7.78642Z" stroke="white" stroke-width="1.25" stroke-linejoin="round"/>
<path d="M7.91699 12.0833L12.0837 7.91663" stroke="white" stroke-width="1.25" stroke-linecap="round" stroke-linejoin="round"/>
<path d="M7.91699 7.91663H7.92635M12.0743 12.0833H12.0837" stroke="white" stroke-width="1.66667" stroke-linecap="round" stroke-linejoin="round"/>
</svg>
