<svg width="20" height="20" viewBox="0 0 20 20" fill="none" xmlns="http://www.w3.org/2000/svg">
<path d="M2.08301 10C2.08301 6.26809 2.08301 4.40212 3.24237 3.24274C4.40175 2.08337 6.26772 2.08337 9.99967 2.08337C13.7316 2.08337 15.5976 2.08337 16.757 3.24274C17.9163 4.40212 17.9163 6.26809 17.9163 10C17.9163 13.732 17.9163 15.598 16.757 16.7574C15.5976 17.9167 13.7316 17.9167 9.99967 17.9167C6.26772 17.9167 4.40175 17.9167 3.24237 16.7574C2.08301 15.598 2.08301 13.732 2.08301 10Z" stroke="white" stroke-width="1.25" stroke-linejoin="round"/>
<path d="M8.33301 8.33337H9.16634" stroke="white" stroke-width="1.25" stroke-linecap="round" stroke-linejoin="round"/>
<path d="M8.33301 12.5H11.6663" stroke="white" stroke-width="1.25" stroke-linecap="round" stroke-linejoin="round"/>
<path d="M12.4647 9.55183V8.75733C12.4647 7.19678 12.4647 6.41651 12.0687 5.86951C11.3184 4.8331 9.86083 5.01174 8.73233 5.01174C7.60395 5.01174 6.14635 4.8331 5.39601 5.86951C5 6.41651 5 7.19678 5 8.75733V10.8382C5 12.8001 5 13.7811 5.60732 14.3905C6.21465 15 7.19212 15 9.14708 15H12.2385C14.4042 15 15.2699 13.4771 14.9275 11.3072C14.7237 10.0162 13.6096 9.55183 12.4647 9.55183Z" stroke="white" stroke-width="1.25" stroke-linejoin="round"/>
</svg>
