<svg width="20" height="20" viewBox="0 0 20 20" fill="none" xmlns="http://www.w3.org/2000/svg">
<g clip-path="url(#clip0_763_3642)">
<path d="M7.4991 18.3333L7.29024 15.4093C7.17795 13.8372 8.42302 12.5 9.9991 12.5C11.5752 12.5 12.8203 13.8372 12.7079 15.4093L12.4991 18.3333" stroke="white" stroke-width="1.5"/>
<path d="M1.95982 11.0112C1.66563 9.09679 1.51854 8.13965 1.88047 7.29111C2.24238 6.44256 3.04535 5.86198 4.65128 4.70084L5.85115 3.83329C7.8489 2.38885 8.84776 1.66663 10.0003 1.66663C11.1528 1.66663 12.1518 2.38885 14.1495 3.83329L15.3493 4.70084C16.9553 5.86198 17.7583 6.44256 18.1202 7.29111C18.4821 8.13965 18.335 9.09679 18.0408 11.0112L17.79 12.6436C17.3729 15.3574 17.1644 16.7143 16.1912 17.5238C15.2179 18.3333 13.795 18.3333 10.9493 18.3333H9.05134C6.20561 18.3333 4.78275 18.3333 3.80949 17.5238C2.83623 16.7143 2.62772 15.3574 2.21068 12.6436L1.95982 11.0112Z" stroke="white" stroke-width="1.5" stroke-linejoin="round"/>
</g>
<defs>
<clipPath id="clip0_763_3642">
<rect width="20" height="20" fill="white"/>
</clipPath>
</defs>
</svg>
