<svg width="20" height="20" viewBox="0 0 20 20" fill="none" xmlns="http://www.w3.org/2000/svg">
<path d="M12.5 2.08337V3.33337C12.5 4.51188 12.5 5.10114 12.8661 5.46726C13.2322 5.83337 13.8215 5.83337 15 5.83337H16.25" stroke="white" stroke-width="1.25" stroke-linecap="round" stroke-linejoin="round"/>
<path d="M3.33301 13.3333V6.66663C3.33301 4.3096 3.33301 3.13109 4.06524 2.39886C4.79747 1.66663 5.97598 1.66663 8.33301 1.66663H11.8093C12.1499 1.66663 12.3203 1.66663 12.4734 1.73006C12.6265 1.79349 12.747 1.91393 12.9878 2.15478L16.1782 5.34513C16.419 5.58599 16.5395 5.70643 16.6029 5.85957C16.6663 6.01271 16.6663 6.18303 16.6663 6.52365V13.3333C16.6663 15.6903 16.6663 16.8688 15.9341 17.601C15.2018 18.3333 14.0233 18.3333 11.6663 18.3333H8.33301C5.97598 18.3333 4.79747 18.3333 4.06524 17.601C3.33301 16.8688 3.33301 15.6903 3.33301 13.3333Z" stroke="white" stroke-width="1.25" stroke-linecap="round" stroke-linejoin="round"/>
<path d="M6.66699 9.16663H13.3337M6.66699 11.6666H13.3337M6.66699 14.1666H10.1427" stroke="white" stroke-width="1.25" stroke-linecap="round" stroke-linejoin="round"/>
</svg>
