<svg width="20" height="20" viewBox="0 0 20 20" fill="none" xmlns="http://www.w3.org/2000/svg">
<path d="M16.4586 9.16663V8.33329C16.4586 5.19059 16.4586 3.61925 15.4823 2.64293C14.506 1.66663 12.9346 1.66663 9.79196 1.66663H8.95871C5.81602 1.66663 4.24468 1.66663 3.26837 2.64293C2.29206 3.61923 2.29204 5.19056 2.29202 8.33323L2.29199 11.6666C2.29196 14.8093 2.29195 16.3806 3.26823 17.357C4.24453 18.3332 5.81593 18.3333 8.95863 18.3333" stroke="white" stroke-width="1.5" stroke-linecap="round" stroke-linejoin="round"/>
<path d="M6.04199 5.83337H12.7086M6.04199 10H12.7086" stroke="white" stroke-width="1.5" stroke-linecap="round"/>
<path d="M11.042 17.3556V18.3333H12.0198C12.361 18.3333 12.5316 18.3333 12.6849 18.2698C12.8383 18.2062 12.9589 18.0856 13.2002 17.8445L17.2198 13.8245C17.4473 13.597 17.5611 13.4832 17.6219 13.3605C17.7377 13.127 17.7377 12.853 17.6219 12.6195C17.5611 12.4967 17.4473 12.383 17.2198 12.1555C16.9922 11.928 16.8785 11.8142 16.7557 11.7534C16.5222 11.6377 16.2481 11.6377 16.0146 11.7534C15.8919 11.8142 15.7781 11.928 15.5506 12.1555L11.5309 16.1755C11.2897 16.4166 11.1691 16.5372 11.1056 16.6905C11.042 16.844 11.042 17.0145 11.042 17.3556Z" stroke="white" stroke-width="1.5" stroke-linejoin="round"/>
</svg>

