<svg width="20" height="20" viewBox="0 0 20 20" fill="none" xmlns="http://www.w3.org/2000/svg">
<path d="M8.34086 8.95833C10.2942 8.95833 11.8825 7.36917 11.8825 5.41667C11.8825 3.46417 10.2942 1.875 8.34086 1.875C6.38753 1.875 4.79919 3.46417 4.79919 5.41667C4.79919 7.36917 6.38753 8.95833 8.34086 8.95833ZM8.34086 3.125C9.60503 3.125 10.6325 4.1525 10.6325 5.41667C10.6325 6.68083 9.60503 7.70833 8.34086 7.70833C7.07669 7.70833 6.04919 6.68083 6.04919 5.41667C6.04919 4.1525 7.07669 3.125 8.34086 3.125ZM10.7342 11.5084C10.5242 11.4742 10.2842 11.4583 10 11.4583H6.66667C3.38083 11.4583 3.125 14.1825 3.125 15.0167C3.125 16.3192 3.68583 16.875 5 16.875H9.16667C9.51167 16.875 9.79167 17.155 9.79167 17.5C9.79167 17.845 9.51167 18.125 9.16667 18.125H5C2.985 18.125 1.875 17.0209 1.875 15.0167C1.875 12.7984 3.13 10.2083 6.66667 10.2083H10C10.3508 10.2083 10.6558 10.23 10.9325 10.275C11.2733 10.3291 11.5058 10.65 11.45 10.9908C11.3958 11.3316 11.065 11.5625 10.7342 11.5084ZM18.5275 14.5817L18.6383 14.52C18.7858 14.4375 18.8933 14.2992 18.9367 14.1367C18.9808 13.9733 18.9559 13.8 18.87 13.655L18.1067 12.3734C17.9334 12.0825 17.5625 11.9825 17.2642 12.1475L17.1533 12.2092C16.9892 12.3017 16.7833 12.3025 16.6166 12.2092C16.4608 12.1217 16.3641 11.9617 16.3641 11.7925C16.3641 11.3792 16.0267 11.0433 15.6109 11.0433H14.3408C13.925 11.0433 13.5875 11.3792 13.5875 11.7925C13.5875 11.9625 13.4908 12.1217 13.335 12.2092C13.1691 12.3025 12.9634 12.3025 12.7984 12.2092C12.4434 12.0117 11.99 12.1325 11.7825 12.4791L11.1466 13.5467C11.0441 13.7175 11.0141 13.9267 11.0641 14.1192C11.115 14.3125 11.2442 14.4808 11.4192 14.58C11.425 14.5825 11.43 14.5858 11.4359 14.5891C11.585 14.6783 11.6766 14.8342 11.6766 15C11.6775 15.1708 11.5808 15.3317 11.42 15.4217C11.2458 15.5208 11.1166 15.6883 11.065 15.8808C11.0133 16.075 11.0417 16.2783 11.145 16.4533L11.7833 17.5225C11.9933 17.8741 12.4383 17.9933 12.7992 17.7916C12.9633 17.6991 13.1683 17.6991 13.335 17.7925C13.4908 17.88 13.5866 18.0391 13.5866 18.2091C13.5866 18.6225 13.9242 18.9583 14.3392 18.9583H15.6117C16.0267 18.9583 16.3641 18.6225 16.3641 18.2091C16.3641 18.0391 16.4608 17.88 16.6166 17.7925C16.7825 17.6991 16.9883 17.6991 17.1533 17.7925C17.5092 17.99 17.9608 17.8691 18.1691 17.5225L18.8092 16.4492C18.9109 16.2758 18.9383 16.0734 18.8866 15.8792C18.835 15.6842 18.7083 15.5217 18.5325 15.4217C18.5275 15.4192 18.5216 15.4158 18.5166 15.4133C18.3675 15.3241 18.2759 15.1675 18.2759 15.0016C18.2767 14.83 18.3734 14.6692 18.5275 14.5817ZM17.5075 16.1908L17.31 16.5225C16.8725 16.4184 16.4034 16.4783 16.005 16.7025C15.6084 16.9258 15.3208 17.2892 15.1917 17.7083H14.7625C14.6341 17.29 14.3467 16.9266 13.9492 16.7025C13.5517 16.4783 13.0808 16.4167 12.6441 16.5225L12.4467 16.1917C12.7534 15.8717 12.93 15.445 12.9284 14.9958C12.9275 14.55 12.75 14.1267 12.4467 13.8092L12.6441 13.4775C13.0808 13.5816 13.5508 13.5225 13.9492 13.2975C14.3458 13.0742 14.6333 12.7108 14.7625 12.2917H15.1917C15.32 12.71 15.6084 13.0734 16.005 13.2975C16.4042 13.5225 16.875 13.5825 17.31 13.4775L17.5075 13.8092C17.2025 14.1284 17.0258 14.5541 17.0267 15.0016C17.0267 15.4483 17.2034 15.8725 17.5075 16.1908ZM15.85 15C15.85 15.46 15.4775 15.8333 15.0167 15.8333C14.5567 15.8333 14.1792 15.46 14.1792 15C14.1792 14.54 14.5483 14.1667 15.0083 14.1667H15.0167C15.4767 14.1667 15.85 14.54 15.85 15Z" fill="white"/>
</svg>




