<svg width="20" height="20" viewBox="0 0 20 20" fill="none" xmlns="http://www.w3.org/2000/svg">
<path d="M4.16699 16.6667L6.17771 14.656M6.17771 14.656C6.84795 15.3262 7.77388 15.7408 8.79666 15.7408C10.8422 15.7408 12.5003 14.0825 12.5003 12.037C12.5003 9.99154 10.8422 8.33337 8.79666 8.33337C6.75113 8.33337 5.09292 9.99154 5.09292 12.037C5.09292 13.0598 5.50747 13.9858 6.17771 14.656Z" stroke="white" stroke-width="1.25" stroke-linecap="round"/>
<path d="M2.50033 12.6565C1.97028 11.7429 1.66699 10.6826 1.66699 9.55196C1.66699 6.11753 4.46521 3.33337 7.91699 3.33337H12.0837C15.5354 3.33337 18.3337 6.11753 18.3337 9.55196C18.3337 12.2595 16.5945 14.563 14.167 15.4167" stroke="white" stroke-width="1.25" stroke-linecap="round"/>
</svg>


