<svg width="212" height="52" viewBox="0 0 212 52" fill="none" xmlns="http://www.w3.org/2000/svg">
<g clip-path="url(#clip0_1357_132615)">
<path d="M56.6149 46.754C55.7826 46.8033 54.9503 46.8033 54.167 46.7047C49.5159 46.2119 46.2357 42.2694 44.767 38.0312C43.9837 39.214 43.1514 40.446 42.2701 41.5795C41.7316 42.3187 41.1441 43.1072 40.5566 43.8464C40.4097 43.9942 40.3118 44.1421 40.1649 44.3392C42.0743 47.3946 44.9139 49.7108 49.1732 50.3515C51.5722 50.6964 54.0201 50.4008 56.2722 49.5137C57.3982 49.0702 58.4263 48.4788 59.3565 47.7889C59.993 47.2961 61.0211 46.5076 61.7065 45.6698C60.0419 46.2119 58.3284 46.6061 56.6149 46.754Z" fill="url(#paint0_linear_1357_132615)"/>
<path d="M57.2026 1.56348L44.7672 9.4977L48.7328 11.3211C47.8516 13.2431 46.9703 15.1157 46.0401 17.0377C45.2568 18.6147 44.4734 20.1917 43.6901 21.7194C43.4943 22.1136 43.2984 22.5079 43.0536 22.9021C42.4662 24.0356 41.8787 25.2183 41.2422 26.3025C39.9203 28.7173 38.5495 31.2306 36.9828 33.6454C34.6818 37.1936 31.9891 40.3968 28.4641 42.4174C25.037 44.3393 20.5818 44.8814 17.2037 42.9102C13.6298 40.8896 11.8673 36.5529 11.6715 32.4133C11.4756 27.5345 13.1402 22.5571 16.3225 18.8118C18.7704 15.9535 22.1975 13.7851 25.9183 13.5387C27.7787 13.3909 29.6881 13.7359 31.2547 14.7708C33.311 16.1506 34.486 18.5161 35.1714 20.8816C36.1016 24.0849 36.3464 27.436 36.6401 30.7871C38.1089 28.4709 39.4307 26.0561 40.6547 23.7892C41.2912 22.6064 41.9276 21.3744 42.5641 20.1917C41.6828 16.2492 40.0182 12.5038 37.1297 9.79339C33.3599 6.24516 27.7297 4.96386 22.687 5.94948C17.5954 6.9351 13.0423 9.99051 9.71313 13.9823C6.2371 18.1711 4.03398 23.3456 3.49544 28.7665C2.9569 34.4338 4.27877 40.3476 7.7548 44.8321C14.1194 53.0128 25.086 53.2592 33.262 47.7397C34.9756 46.557 36.4933 45.2264 37.8641 43.7479C38.3537 43.2058 38.8433 42.6638 39.2839 42.1217C39.4797 41.9245 39.6266 41.7274 39.7735 41.481C40.361 40.7418 40.9485 40.0026 41.487 39.2141C42.4662 37.9328 43.3474 36.6022 44.1797 35.3209C44.3266 35.0745 44.4734 34.8774 44.6203 34.631C45.5995 33.1033 46.5786 31.5263 47.5088 29.9493C48.4391 28.3723 49.3203 26.7953 50.1526 25.169C50.9849 23.5428 51.8172 21.9165 52.6005 20.3395C53.5797 18.3683 54.5099 16.397 55.3911 14.4258L59.4057 16.2492L57.2026 1.56348Z" fill="url(#paint1_linear_1357_132615)"/>
<path d="M57.2024 1.56348L44.767 9.4977L48.7326 11.3211C47.8514 13.2431 46.9701 15.1157 46.0399 17.0377C45.2566 18.6147 44.4733 20.1917 43.6899 21.7194C43.4941 22.1136 43.2983 22.5079 43.0535 22.9021C42.466 24.0356 41.8785 25.2183 41.242 26.3025C39.9201 28.7173 38.5493 31.2306 36.9827 33.6453C34.6816 37.1936 31.9889 40.3968 28.4639 42.4174C25.0369 44.3393 20.5817 44.8814 17.2035 42.9102C13.6296 40.8896 11.8671 36.5529 11.6713 32.4133C11.4754 27.5345 13.14 22.5571 16.3223 18.8118C18.7702 15.9535 22.1973 13.7851 25.9181 13.5387C27.7785 13.3909 29.6879 13.7359 31.2545 14.7708C31.4504 14.9186 31.6462 15.0664 31.842 15.2143C30.716 14.1301 29.4431 13.2923 27.9743 12.7502C20.5327 10.0398 11.4754 16.1999 7.75462 26.4996C4.76817 34.7788 6.09004 43.3044 10.5942 47.789C17.0567 52.9635 26.1629 52.5199 33.2129 47.7397C34.9264 46.5569 36.4441 45.2264 37.8149 43.7479C38.3045 43.2058 38.7941 42.6638 39.2347 42.1217C39.4306 41.9245 39.5774 41.7274 39.7243 41.481C40.3118 40.7418 40.8993 40.0026 41.4378 39.2141C42.417 37.9328 43.2983 36.6022 44.1306 35.3209C44.2774 35.0745 44.4243 34.8774 44.5712 34.631C45.5503 33.1033 46.5295 31.5263 47.4597 29.9493C48.3899 28.3723 49.2712 26.7953 50.1034 25.169C50.9357 23.5428 51.768 21.9165 52.5514 20.3395C53.5305 18.3683 54.4607 16.397 55.342 14.4258L59.3565 16.2492L57.2024 1.56348Z" fill="url(#paint2_linear_1357_132615)"/>
<path d="M72.2333 16.4995H86.4463C87.7338 16.4995 88.8233 16.7986 89.7147 17.3469C90.6062 17.8953 91.349 18.643 91.8937 19.4905C92.4385 20.3877 92.8347 21.3349 93.0823 22.4315C93.3299 23.5282 93.4785 24.575 93.4785 25.6717V42.421C93.4785 42.7699 93.3299 42.9195 92.9832 42.9195H75.4027C74.4123 42.9195 73.5704 42.6204 72.9266 41.9723C72.2828 41.3243 71.7876 40.6264 71.4409 39.779C71.0943 38.9316 70.8467 38.0841 70.6981 37.2367C70.5495 36.3893 70.5 35.7412 70.5 35.2926C70.5 34.495 70.599 33.5977 70.7971 32.6007C70.9952 31.6038 71.3419 30.7065 71.7381 29.9089C72.1838 29.0615 72.7285 28.3636 73.4714 27.8152C74.1647 27.217 75.0561 26.9678 76.0465 26.9678H84.4654C85.3568 26.9678 86.0501 26.7684 86.5453 26.3198C87.0405 25.921 87.3377 25.4225 87.3377 24.8243C87.3377 24.3757 87.1891 23.8772 86.8424 23.4285C86.4958 22.9799 86.0501 22.7306 85.5548 22.7306H72.3323C71.9857 22.7306 71.8371 22.5811 71.8371 22.2321V17.0478C71.7381 16.6989 71.8866 16.4995 72.2333 16.4995ZM86.7929 36.9874C87.1396 36.9874 87.2881 36.8379 87.2881 36.489V33.4482C87.2881 33.0992 87.1396 32.9497 86.7929 32.9497H77.8293C77.3341 32.9497 76.9875 33.1491 76.6903 33.5479C76.3932 33.9467 76.2446 34.3454 76.2446 34.8439C76.2446 35.4421 76.3932 35.9406 76.7398 36.3394C77.0865 36.788 77.5322 36.9874 78.1265 36.9874H86.7929Z" fill="white"/>
<path d="M118.091 36.7382C118.438 36.7382 118.586 36.8877 118.586 37.2367V42.421C118.586 42.7699 118.438 42.9195 118.091 42.9195H108.632C106.8 42.9195 105.116 42.5705 103.68 41.9225C102.244 41.2745 101.006 40.427 100.015 39.3303C99.0247 38.2835 98.2324 37.0871 97.6876 35.7911C97.1429 34.495 96.8953 33.1989 96.8953 31.9028V27.6657C96.8953 25.921 97.1429 24.3756 97.6381 23.0297C98.1333 21.6838 98.8762 20.4874 99.9161 19.5403C100.956 18.5932 102.244 17.8454 103.878 17.2971C105.512 16.7488 107.394 16.4995 109.623 16.4995H118.14C118.487 16.4995 118.636 16.6491 118.636 16.998V22.1823C118.636 22.5312 118.487 22.6808 118.14 22.6808H108.632C106.701 22.6808 105.215 23.279 104.274 24.4753C103.333 25.6717 102.838 27.1173 102.838 28.8122V31.0056C102.838 32.7004 103.284 34.0962 104.225 35.143C105.166 36.1899 106.602 36.7382 108.632 36.7382H118.091Z" fill="white"/>
<path d="M128.887 41.3243C128.887 42.421 128.441 42.9693 127.5 42.9693H124.083C123.588 42.9693 123.291 42.7699 123.043 42.3711C122.845 41.9723 122.697 41.4739 122.697 40.9754V19.8394C122.697 18.992 123.043 18.2442 123.737 17.5463C124.43 16.8485 125.321 16.4995 126.361 16.4995H137.752C138.94 16.4995 140.079 16.7488 141.119 17.2472C142.159 17.7457 143.051 18.3938 143.843 19.1914C144.635 19.9889 145.23 20.9361 145.675 21.9829C146.121 23.0297 146.319 24.1264 146.319 25.2231V42.421C146.319 42.7699 146.121 42.9195 145.774 42.9195H140.673C140.327 42.9195 140.178 42.7699 140.178 42.421V26.3198C140.178 25.4723 140.03 24.7744 139.782 24.2261C139.534 23.6778 139.188 23.279 138.742 22.9799C138.296 22.6808 137.752 22.4814 137.157 22.3318C136.563 22.2321 135.919 22.1324 135.176 22.1324H130.274C129.927 22.1324 129.58 22.282 129.234 22.5312C128.937 22.7805 128.739 23.0796 128.739 23.3787V41.3243H128.887Z" fill="white"/>
<path d="M175.488 32.7004C175.488 34.7442 175.29 36.3892 174.943 37.7351C174.596 39.0312 174.052 40.078 173.309 40.8756C172.566 41.6732 171.675 42.1717 170.585 42.5206C169.496 42.8197 168.158 42.9693 166.623 42.9693H157.66C156.124 42.9693 154.837 42.6702 153.846 42.1218C152.856 41.5735 152.014 40.8258 151.42 39.9285C150.826 39.0312 150.38 38.0342 150.182 36.8877C149.934 35.7412 149.835 34.5946 149.835 33.3983V24.4753C149.835 23.2789 150.033 22.1823 150.479 21.1853C150.875 20.1883 151.469 19.3907 152.163 18.6928C152.856 17.9949 153.698 17.4466 154.639 17.0977C155.58 16.7487 156.62 16.5493 157.66 16.5493H167.812C168.703 16.5493 169.644 16.6989 170.535 17.0478C171.476 17.3967 172.269 17.8952 173.012 18.5433C173.754 19.1913 174.299 19.9889 174.794 20.936C175.24 21.8832 175.488 22.93 175.488 24.1762V32.7004ZM169.297 25.223C169.297 24.8242 169.149 24.4753 168.901 24.1264C168.654 23.8273 168.307 23.5282 167.911 23.3288C167.515 23.1294 167.069 22.93 166.574 22.8303C166.078 22.7306 165.583 22.6807 165.039 22.6807H159.542C159.096 22.6807 158.65 22.7306 158.254 22.8303C157.808 22.93 157.412 23.0795 157.065 23.2789C156.719 23.4783 156.422 23.7276 156.174 24.0765C155.926 24.4255 155.827 24.8242 155.827 25.2729V33.3983C155.827 34.0962 155.976 34.6445 156.273 35.0931C156.57 35.5418 156.917 35.8907 157.363 36.14C157.808 36.3892 158.254 36.5388 158.749 36.6385C159.244 36.7382 159.74 36.788 160.136 36.788H164.791C165.979 36.788 167.069 36.4889 167.96 35.9406C168.852 35.3424 169.297 34.6445 169.297 33.7472V29.7094V25.223Z" fill="white"/>
<path d="M204.26 32.7004C204.26 34.7442 204.062 36.3892 203.715 37.7351C203.369 39.0312 202.824 40.078 202.081 40.8756C201.338 41.6732 200.447 42.1717 199.357 42.5206C198.268 42.8197 196.931 42.9693 195.396 42.9693H186.432C184.897 42.9693 183.609 42.6702 182.619 42.1218C181.628 41.5735 180.787 40.8258 180.192 39.9285C179.598 39.0312 179.152 38.0342 178.954 36.8877C178.707 35.7412 178.608 34.5946 178.608 33.3983V24.4753C178.608 23.2789 178.806 22.1823 179.251 21.1853C179.648 20.1883 180.242 19.3907 180.935 18.6928C181.628 17.9949 182.47 17.4466 183.411 17.0977C184.352 16.7487 185.392 16.5493 186.482 16.5493H196.634C197.525 16.5493 198.466 16.6989 199.357 17.0478C200.298 17.3967 201.091 17.8952 201.834 18.5433C202.576 19.1913 203.121 19.9889 203.616 20.936C204.062 21.8832 204.31 22.93 204.31 24.1762V32.7004H204.26ZM198.07 25.223C198.07 24.8242 197.921 24.4753 197.674 24.1264C197.426 23.8273 197.079 23.5282 196.683 23.3288C196.287 23.1294 195.841 22.93 195.346 22.8303C194.851 22.7306 194.356 22.6807 193.811 22.6807H188.314C187.868 22.6807 187.423 22.7306 187.026 22.8303C186.581 22.93 186.184 23.0795 185.838 23.2789C185.491 23.4783 185.194 23.7276 184.946 24.0765C184.699 24.4255 184.6 24.8242 184.6 25.2729V33.3983C184.6 34.0962 184.748 34.6445 185.045 35.0931C185.343 35.5418 185.689 35.8907 186.135 36.14C186.581 36.3892 187.026 36.5388 187.522 36.6385C188.017 36.7382 188.512 36.788 188.908 36.788H193.563C194.752 36.788 195.841 36.4889 196.733 35.9406C197.624 35.3424 198.07 34.6445 198.07 33.7472V29.7094V25.223Z" fill="white"/>
</g>
<defs>
<linearGradient id="paint0_linear_1357_132615" x1="43.655" y1="32.7288" x2="54.9671" y2="51.3562" gradientUnits="userSpaceOnUse">
<stop offset="0.3238" stop-color="#8340F0"/>
<stop offset="0.9222" stop-color="#6021D1"/>
</linearGradient>
<linearGradient id="paint1_linear_1357_132615" x1="3.34856" y1="26.5318" x2="59.4972" y2="26.5318" gradientUnits="userSpaceOnUse">
<stop offset="0.0778417" stop-color="#6021D1"/>
<stop offset="0.6762" stop-color="#8340F0"/>
</linearGradient>
<linearGradient id="paint2_linear_1357_132615" x1="19.7007" y1="10.8421" x2="45.6055" y2="35.6943" gradientUnits="userSpaceOnUse">
<stop offset="0.3238" stop-color="#8340F0"/>
<stop offset="0.9222" stop-color="#6021D1"/>
</linearGradient>
<clipPath id="clip0_1357_132615">
<rect width="211" height="51" fill="white" transform="translate(0.5 0.499512)"/>
</clipPath>
</defs>
</svg>
