<svg width="48" height="48" viewBox="0 0 48 48" fill="none" xmlns="http://www.w3.org/2000/svg">
<rect width="48" height="48" rx="8" fill="url(#paint0_linear_274_2928)"/>
<g clip-path="url(#clip0_274_2928)">
<path d="M19.3337 23L18.667 25.0667H20.0003L19.3337 23Z" fill="white"/>
<path d="M32.871 13H22.5161C21.9638 13 21.5161 13.4477 21.5161 14V16.6082H24.3548V18.0515H15.129C13.9226 18.0515 13 18.9897 13 20.2165V28.1546C13 29.3814 13.9226 30.3196 15.129 30.3196H15.8387V34L20.3097 30.3196H24.0645C24.6168 30.3196 25.0645 29.8719 25.0645 29.3196V25.268H32.871C34.0774 25.268 35 24.3299 35 23.1031V15.1649C35 13.9381 34.0774 13 32.871 13ZM20.6645 27.3608L20.3097 26.2062H18.1097L17.6839 27.3608H15.9806L18.3226 20.9381H20.0258L22.3677 27.3608H20.6645ZM31.4516 21.6598V23.1031C30.529 23.1031 29.5355 22.8144 28.6839 22.3814C27.8323 22.8144 26.8387 23.0309 25.8452 23.1031L25.7742 21.6598C26.271 21.6598 26.7677 21.5876 27.2645 21.4433C26.6258 20.7938 26.2 20 25.9871 19.134H27.4774C27.6903 19.7835 28.1161 20.2887 28.6129 20.7216C29.3935 20.0722 29.8903 19.134 29.9613 18.0515H25.7032V16.6082H27.8323V15.1649H29.2516V16.6082H31.5935L31.6645 17.3299C31.7355 18.8454 31.1677 20.3608 30.1032 21.4433C30.6 21.5876 31.0258 21.6598 31.4516 21.6598Z" fill="white"/>
</g>
<defs>
<linearGradient id="paint0_linear_274_2928" x1="44" y1="-1" x2="13.5" y2="48" gradientUnits="userSpaceOnUse">
<stop stop-color="#FF9B9B"/>
<stop offset="1" stop-color="#FF5857"/>
</linearGradient>
<clipPath id="clip0_274_2928">
<rect width="24" height="24" fill="white" transform="translate(12 12)"/>
</clipPath>
</defs>
</svg>
