<svg width="48" height="48" viewBox="0 0 48 48" fill="none" xmlns="http://www.w3.org/2000/svg">
<rect width="48" height="48" rx="8" fill="url(#paint0_linear_274_2939)"/>
<path d="M33.6363 24L34.8522 21.8987C34.9983 21.6458 35.038 21.3453 34.9627 21.0632C34.8873 20.7811 34.7029 20.5405 34.4502 20.3943L32.3467 19.1784V16.7555C32.3467 16.4634 32.2306 16.1833 32.0241 15.9767C31.8175 15.7702 31.5374 15.6542 31.2453 15.6542H28.8235L27.6087 13.5517C27.4628 13.2988 27.2223 13.1142 26.9402 13.0385C26.8005 13.0011 26.6548 12.9915 26.5113 13.0104C26.3679 13.0293 26.2296 13.0763 26.1043 13.1486L24.0008 14.3645L21.8973 13.1475C21.6443 13.0015 21.3437 12.9619 21.0616 13.0375C20.7794 13.1131 20.5389 13.2977 20.3928 13.5506L19.177 15.6542H16.7551C16.4631 15.6542 16.1829 15.7702 15.9764 15.9767C15.7699 16.1833 15.6538 16.4634 15.6538 16.7555V19.1773L13.5503 20.3932C13.425 20.4656 13.3152 20.562 13.2272 20.6768C13.1391 20.7917 13.0746 20.9228 13.0373 21.0626C12.9999 21.2024 12.9905 21.3482 13.0096 21.4917C13.0286 21.6351 13.0758 21.7734 13.1483 21.8987L14.3642 24L13.1483 26.1013C13.0029 26.3544 12.9635 26.6546 13.0386 26.9367C13.1137 27.2187 13.2972 27.4596 13.5492 27.6068L15.6527 28.8227V31.2445C15.6527 31.5366 15.7688 31.8167 15.9753 32.0232C16.1818 32.2298 16.462 32.3458 16.754 32.3458H19.177L20.3928 34.4493C20.4903 34.616 20.6296 34.7544 20.7968 34.851C20.964 34.9475 21.1535 34.9989 21.3466 35C21.5382 35 21.7287 34.9493 21.8984 34.8513L23.9997 33.6355L26.1032 34.8513C26.356 34.9974 26.6565 35.0372 26.9387 34.9618C27.2208 34.8864 27.4614 34.7021 27.6076 34.4493L28.8224 32.3458H31.2442C31.5363 32.3458 31.8164 32.2298 32.023 32.0232C32.2295 31.8167 32.3456 31.5366 32.3456 31.2445V28.8227L34.4491 27.6068C34.5744 27.5344 34.6842 27.438 34.7722 27.3231C34.8602 27.2083 34.9248 27.0772 34.9621 26.9374C34.9994 26.7976 35.0088 26.6517 34.9898 26.5083C34.9707 26.3648 34.9236 26.2265 34.8511 26.1013L33.6363 24ZM21.2464 18.4824C21.6846 18.4825 22.1049 18.6567 22.4147 18.9668C22.7245 19.2768 22.8985 19.6972 22.8984 20.1354C22.8982 20.5737 22.724 20.994 22.414 21.3038C22.1039 21.6136 21.6835 21.7876 21.2453 21.7874C20.807 21.7873 20.3867 21.613 20.0769 21.303C19.7671 20.993 19.5931 20.5726 19.5933 20.1343C19.5934 19.6961 19.7677 19.2758 20.0777 18.966C20.3877 18.6562 20.8081 18.4822 21.2464 18.4824ZM21.5768 29.0551L19.8146 27.7346L26.4226 18.924L28.1847 20.2445L21.5768 29.0551ZM26.753 29.4956C26.536 29.4955 26.3211 29.4527 26.1206 29.3696C25.9202 29.2865 25.738 29.1647 25.5846 29.0112C25.4312 28.8577 25.3096 28.6755 25.2266 28.4749C25.1436 28.2744 25.1009 28.0595 25.101 27.8425C25.1011 27.6255 25.1439 27.4106 25.227 27.2101C25.3101 27.0097 25.4319 26.8275 25.5854 26.6741C25.7389 26.5207 25.9211 26.3991 26.1217 26.3161C26.3222 26.2331 26.5371 26.1904 26.7541 26.1905C27.1924 26.1907 27.6127 26.3649 27.9225 26.6749C28.2323 26.9849 28.4062 27.4053 28.4061 27.8436C28.406 28.2819 28.2317 28.7022 27.9217 29.012C27.6117 29.3218 27.1913 29.4957 26.753 29.4956Z" fill="white"/>
<defs>
<linearGradient id="paint0_linear_274_2939" x1="44" y1="-1" x2="14" y2="46.5" gradientUnits="userSpaceOnUse">
<stop stop-color="#1DEDC8"/>
<stop offset="1" stop-color="#07B495"/>
</linearGradient>
</defs>
</svg>
