<svg width="48" height="48" viewBox="0 0 48 48" fill="none" xmlns="http://www.w3.org/2000/svg">
<rect width="48" height="48" rx="8" fill="url(#paint0_linear_274_2948)"/>
<path d="M15.1111 22.8889H21.7778C22.0725 22.8889 22.3551 22.7718 22.5635 22.5635C22.7718 22.3551 22.8889 22.0725 22.8889 21.7778V15.1111C22.8889 14.8164 22.7718 14.5338 22.5635 14.3254C22.3551 14.1171 22.0725 14 21.7778 14H15.1111C14.8164 14 14.5338 14.1171 14.3254 14.3254C14.1171 14.5338 14 14.8164 14 15.1111V21.7778C14 22.0725 14.1171 22.3551 14.3254 22.5635C14.5338 22.7718 14.8164 22.8889 15.1111 22.8889ZM26.2222 22.8889H32.8889C33.1836 22.8889 33.4662 22.7718 33.6746 22.5635C33.8829 22.3551 34 22.0725 34 21.7778V15.1111C34 14.8164 33.8829 14.5338 33.6746 14.3254C33.4662 14.1171 33.1836 14 32.8889 14H26.2222C25.9275 14 25.6449 14.1171 25.4365 14.3254C25.2282 14.5338 25.1111 14.8164 25.1111 15.1111V21.7778C25.1111 22.0725 25.2282 22.3551 25.4365 22.5635C25.6449 22.7718 25.9275 22.8889 26.2222 22.8889ZM15.1111 34H21.7778C22.0725 34 22.3551 33.8829 22.5635 33.6746C22.7718 33.4662 22.8889 33.1836 22.8889 32.8889V26.2222C22.8889 25.9275 22.7718 25.6449 22.5635 25.4365C22.3551 25.2282 22.0725 25.1111 21.7778 25.1111H15.1111C14.8164 25.1111 14.5338 25.2282 14.3254 25.4365C14.1171 25.6449 14 25.9275 14 26.2222V32.8889C14 33.1836 14.1171 33.4662 14.3254 33.6746C14.5338 33.8829 14.8164 34 15.1111 34ZM29.5556 34C32.0067 34 34 32.0067 34 29.5556C34 27.1044 32.0067 25.1111 29.5556 25.1111C27.1044 25.1111 25.1111 27.1044 25.1111 29.5556C25.1111 32.0067 27.1044 34 29.5556 34Z" fill="white"/>
<defs>
<linearGradient id="paint0_linear_274_2948" x1="9.5" y1="48" x2="53.9356" y2="34.1611" gradientUnits="userSpaceOnUse">
<stop stop-color="#7E00EC"/>
<stop offset="1" stop-color="#B45FFF"/>
</linearGradient>
</defs>
</svg>
