<svg width="994" height="691" viewBox="0 0 994 691" fill="none" xmlns="http://www.w3.org/2000/svg">
<g filter="url(#filter0_b_732_15134)">
<rect width="994" height="624" rx="40" fill="white" fill-opacity="0.2"/>
<path d="M710.643 593.233C635.257 635.138 539.294 655.824 439.822 632.756C407.832 625.332 375.483 613.393 343.35 596.17C88.6997 459.747 155.956 120.679 334.408 65.9953C512.861 11.3114 552.963 130.565 654.121 193.968C755.278 257.379 845.505 218.099 862.816 372.617C871.383 449.102 808.283 538.97 710.643 593.233Z" fill="url(#paint0_linear_732_15134)"/>
<path d="M684.404 523.392C700.126 439.541 810.397 381.672 829.991 402.177C849.584 422.682 732.835 504.617 732.835 504.617C732.835 504.617 834.548 419.947 886.038 455.946C937.528 491.944 742.047 529.976 742.047 529.976C742.047 529.976 878.748 501.513 886.95 544.801C895.151 588.089 743.905 567.706 719.263 583.971" fill="url(#paint1_linear_732_15134)"/>
<path d="M682.809 561.854C711.971 509.363 854.597 469.719 854.597 469.719" stroke="white" stroke-width="2.3888" stroke-miterlimit="10" stroke-linecap="round"/>
<path d="M692.378 573.879C715.161 543.538 851.407 545.739 851.407 545.739" stroke="white" stroke-width="2.3888" stroke-miterlimit="10" stroke-linecap="round"/>
<path d="M688.786 553.098C699.214 500.706 773.943 433.125 800.373 420.209" stroke="white" stroke-width="2.3888" stroke-miterlimit="10" stroke-linecap="round"/>
<path d="M308.15 389.487C294.55 305.266 185.773 244.633 165.668 264.637C145.562 284.641 260.209 369.496 260.209 369.496C260.209 369.496 160.664 282.286 108.281 316.975C55.8982 351.664 250.36 394.614 250.36 394.614C250.36 394.614 114.42 362.712 105.128 405.778C95.8357 448.846 247.549 432.284 271.772 449.167" fill="url(#paint2_linear_732_15134)"/>
<path d="M308.773 427.979C280.944 374.767 139.364 331.538 139.364 331.538" stroke="white" stroke-width="2.3888" stroke-miterlimit="10" stroke-linecap="round"/>
<path d="M298.905 439.757C276.894 408.851 140.636 407.612 140.636 407.612" stroke="white" stroke-width="2.3888" stroke-miterlimit="10" stroke-linecap="round"/>
<path d="M303.021 419.073C293.919 366.435 220.917 296.99 194.822 283.411" stroke="white" stroke-width="2.3888" stroke-miterlimit="10" stroke-linecap="round"/>
<path d="M710.645 593.233C635.258 635.138 539.295 655.824 439.823 632.756L479.372 527.52L467.951 458.434L560.71 433.573L706.707 469.267L710.645 593.233Z" fill="url(#paint3_linear_732_15134)"/>
<path d="M754.537 269.649L740.143 300.462L731.273 319.452L724.08 334.854L715.763 352.656L706.892 371.654L701.958 382.227C701.958 382.227 702.681 394.327 703.564 409.568C703.911 415.592 704.287 422.105 704.653 428.558C705.678 446.727 706.625 464.413 706.706 469.267C706.805 475.237 696.56 476.451 683.825 476.245C678.971 476.174 673.759 475.889 668.61 475.594C662.525 475.227 656.536 474.845 651.379 474.729C648.863 474.675 644.829 474.703 639.681 474.774C635.327 474.828 630.168 474.925 624.466 475.024C615.801 475.184 605.87 475.371 595.536 475.515C590.52 475.586 585.416 475.65 580.32 475.693C570.425 475.782 560.546 475.799 551.39 475.693C546.018 475.631 540.896 475.523 536.175 475.362C518.389 474.774 506.219 473.399 507.388 470.633C508.85 467.144 509.289 449.002 509.289 428.558C509.289 422.329 509.245 415.878 509.183 409.568C509.032 395.666 508.772 382.431 508.566 373.605C508.548 372.927 508.54 372.276 508.531 371.652C508.389 366.129 508.299 362.782 508.299 362.782L483.34 355.26L474.675 352.654L465.467 349.879C465.467 349.879 467.43 336.851 470.543 319.45C471.604 313.516 472.792 307.072 474.094 300.46C476.281 289.306 478.762 277.678 481.367 267.247C483.134 260.205 484.956 253.701 486.793 248.257C487.275 246.811 487.767 245.446 488.248 244.161C493.639 229.937 512.013 217.854 536.176 209.109C541.031 207.352 546.126 205.727 551.392 204.245C560.083 201.81 569.257 199.766 578.645 198.16C579.198 198.061 579.76 197.973 580.322 197.884C585.347 197.045 590.433 196.339 595.537 195.769C605.211 194.68 614.946 194.064 624.468 193.984C625.852 193.965 627.225 193.965 628.599 193.974C632.32 194.001 636.015 194.144 639.683 194.421C641.396 194.546 643.101 194.697 644.805 194.877C652.933 195.725 660.913 197.144 668.614 199.098C673.815 200.418 678.901 201.98 683.829 203.765C710.029 213.224 731.908 228.947 744.688 248.259C748.668 254.273 751.765 260.627 753.834 267.249C754.083 268.042 754.314 268.846 754.537 269.649Z" fill="url(#paint4_linear_732_15134)"/>
<path d="M519.563 273.808L508.302 362.783L483.343 355.262L519.563 273.808Z" fill="url(#paint5_linear_732_15134)"/>
<path d="M701.961 382.229C701.961 382.229 706.521 458.329 706.709 469.269C706.896 480.2 672.345 475.186 651.383 474.731C630.42 474.275 503.751 479.29 507.393 470.635C510.294 463.746 509.16 399.577 508.572 373.609C588.804 381.525 673.541 356.244 693.932 273.808L724.084 334.854L701.961 382.229Z" fill="url(#paint6_linear_732_15134)"/>
<path opacity="0.25" d="M704.656 428.56H509.292C509.292 422.331 509.247 415.88 509.186 409.57H703.567C703.914 415.594 704.29 422.107 704.656 428.56Z" fill="white"/>
<g opacity="0.45">
<path opacity="0.25" d="M690.54 352.656C690.53 352.762 690.53 352.861 690.521 352.959C690.119 360.49 689.085 366.192 686.926 368.101C685.721 369.164 682.392 370.368 677.618 371.654H508.535C508.393 366.13 508.303 362.783 508.303 362.783L474.679 352.654L690.54 352.656Z" fill="white"/>
<path opacity="0.25" d="M690.058 319.452H513.212C514.275 313.518 515.461 307.074 516.763 300.462H689.389C689.451 305.782 689.756 312.42 690.058 319.452Z" fill="white"/>
<path opacity="0.25" d="M721.129 248.26C711.992 249.813 703.06 255.978 696.928 267.251H524.034C525.801 260.209 527.622 253.705 529.46 248.26H721.129Z" fill="white"/>
</g>
<path d="M644.806 194.878C640.147 208.487 623.666 224.799 599.438 221.605C580.262 219.08 577.942 206.56 578.646 198.162C595.101 195.342 612.226 193.87 628.601 193.976C634.053 194.014 639.46 194.316 644.806 194.878Z" fill="white"/>
<path d="M573.163 115.362C561.315 113.843 552.051 98.35 555.088 93.3387C558.125 88.3255 571.037 93.3387 571.037 93.3387C571.037 93.3387 557.52 82.2513 561.164 72.9851C564.81 63.7189 582.732 76.6311 582.732 76.6311C582.732 76.6311 578.327 60.5306 585.313 57.9493C592.3 55.3679 594.882 71.3153 603.388 74.0498C611.894 76.7843 633.917 75.1126 644.551 85.746C655.182 96.3776 648.804 107.769 648.804 107.769C648.804 107.769 662.625 111.871 659.435 125.844C656.245 139.817 645.554 141.536 642.242 148.727C638.93 155.918 635.74 168.677 622.678 166.398" fill="#1F1F1F"/>
<path d="M633.517 194.727C633.187 196.664 626.208 209.987 607.487 210.334C588.766 210.674 588.159 199.163 588.159 199.163C588.159 199.163 588.346 197.049 588.471 193.692C588.615 189.667 588.658 183.841 588.159 177.747L622.889 161.443L631.108 157.587C631.108 157.587 631.214 158.934 631.375 161.121C632.064 170.089 633.777 193.165 633.517 194.727Z" fill="url(#paint7_linear_732_15134)"/>
<path d="M631.377 161.122C629.548 175.864 610.487 196.645 588.473 193.692C588.617 189.667 588.66 183.842 588.161 177.747L622.891 161.443L631.377 161.122Z" fill="#D25482"/>
<path d="M569.34 104.14C595.314 116.443 629.514 111.905 629.514 111.905C629.514 111.905 628.488 139.132 630.881 142.32C633.274 145.51 633.046 131.612 639.88 129.105C646.714 126.599 654.371 133.95 649.716 142.699C645.059 151.45 634.45 149.003 634.45 149.003C634.45 149.003 631.792 183.216 598.984 183.102C566.176 182.988 567.544 146.192 567.885 130.245C568.225 114.297 569.34 104.14 569.34 104.14Z" fill="url(#paint8_linear_732_15134)"/>
<path d="M640.07 142.051C637.64 136.573 642.958 132.428 646.146 136.573" stroke="#D16B83" stroke-width="0.9555" stroke-miterlimit="10" stroke-linecap="round"/>
<path d="M596.421 134.347L591.821 150.587C591.287 152.47 592.445 154.416 594.355 154.846L599.44 155.991" stroke="#D16B83" stroke-width="0.9555" stroke-miterlimit="10" stroke-linecap="round" stroke-linejoin="round"/>
<path d="M626.615 142.051C626.615 149.287 620.75 155.152 613.514 155.152C606.278 155.152 600.413 149.287 600.413 142.051C600.413 134.815 606.278 128.95 613.514 128.95C620.75 128.952 626.615 134.817 626.615 142.051Z" stroke="white" stroke-width="0.9555" stroke-miterlimit="10"/>
<path d="M591.692 140.088C591.692 147.324 585.827 153.189 578.591 153.189C571.355 153.189 565.49 147.324 565.49 140.088C565.49 132.852 571.355 126.987 578.591 126.987C585.825 126.987 591.692 132.854 591.692 140.088Z" stroke="white" stroke-width="0.9555" stroke-miterlimit="10"/>
<path d="M591.59 138.471L600.694 139.343" stroke="white" stroke-width="0.9555" stroke-miterlimit="10"/>
<path d="M610.679 143.994C612.44 143.994 613.869 142.566 613.869 140.804C613.869 139.042 612.44 137.614 610.679 137.614C608.917 137.614 607.488 139.042 607.488 140.804C607.488 142.566 608.917 143.994 610.679 143.994Z" fill="#330E49"/>
<path d="M578.591 142.533C580.353 142.533 581.781 141.105 581.781 139.343C581.781 137.581 580.353 136.153 578.591 136.153C576.829 136.153 575.4 137.581 575.4 139.343C575.4 141.105 576.829 142.533 578.591 142.533Z" fill="#330E49"/>
<path d="M574.53 122.12C574.53 122.12 579.011 117.943 586.378 122.12" stroke="#330E49" stroke-width="0.9555" stroke-miterlimit="10" stroke-linecap="round" stroke-linejoin="round"/>
<path d="M618.688 123.048C618.688 123.048 614.207 118.872 606.841 123.048" stroke="#330E49" stroke-width="0.9555" stroke-miterlimit="10" stroke-linecap="round" stroke-linejoin="round"/>
<path d="M597.619 165.625C597.619 165.625 603.77 169.878 611.062 164.181" stroke="#D16B83" stroke-width="0.9555" stroke-miterlimit="10" stroke-linecap="round" stroke-linejoin="round"/>
<path d="M626.333 139.343L633.519 138.471" stroke="white" stroke-width="0.9555" stroke-miterlimit="10" stroke-linecap="round"/>
<path d="M574.191 610.374C572.165 622.859 561.94 632.915 548.759 634.191L347.632 653.663C331.935 655.18 317.978 643.687 316.462 627.99L315.524 618.316L303.379 492.826L292.1 376.302L285.745 310.723L278.427 235.114C276.911 219.41 288.403 205.452 304.1 203.935L505.23 184.463C520.927 182.946 534.883 194.439 536.4 210.136L551.133 362.299L553.685 388.66C553.685 388.669 553.685 388.669 553.685 388.669L554.051 392.479L560.413 458.174L562.51 479.876L574.432 603.021C574.673 605.529 574.584 607.993 574.191 610.374Z" fill="#1F1F1F"/>
<path d="M550.253 608.24L341.189 628.475C333.436 629.226 326.542 623.548 325.791 615.795L289.929 245.288C289.178 237.535 294.856 230.641 302.61 229.89L511.674 209.654C519.427 208.903 526.321 214.582 527.072 222.335L562.934 592.841C563.685 600.595 558.007 607.489 550.253 608.24Z" fill="white"/>
<path opacity="0.2" d="M504.877 377.227L343.003 393.1C339.549 393.438 336.473 390.912 336.135 387.459C335.797 384.005 338.322 380.931 341.776 380.591L503.649 364.718C507.103 364.38 510.179 366.905 510.517 370.359C510.855 373.813 508.33 376.889 504.877 377.227Z" fill="#0F77EB"/>
<path opacity="0.2" d="M510.839 418.528L348.965 434.401C345.511 434.739 342.435 432.213 342.097 428.76C341.759 425.306 344.284 422.232 347.738 421.892L509.611 406.019C513.065 405.681 516.141 408.206 516.479 411.66C516.819 415.114 514.294 418.188 510.839 418.528Z" fill="#0F77EB"/>
<path opacity="0.2" d="M516.802 459.827L354.929 475.7C351.475 476.038 348.401 473.512 348.061 470.059C347.723 466.605 350.248 463.531 353.701 463.191L515.575 447.318C519.029 446.98 522.103 449.505 522.443 452.959C522.781 456.415 520.256 459.489 516.802 459.827Z" fill="#0F77EB"/>
<path d="M522.764 501.128L360.89 517.001C357.437 517.339 354.361 514.814 354.023 511.36C353.684 507.906 356.21 504.832 359.663 504.492L521.537 488.619C524.991 488.281 528.067 490.807 528.405 494.26C528.745 497.714 526.22 500.79 522.764 501.128Z" fill="#D6E9FC"/>
<path d="M528.727 542.429L366.853 558.302C363.4 558.64 360.323 556.115 359.985 552.661C359.647 549.207 362.173 546.131 365.626 545.793L527.5 529.92C530.954 529.582 534.03 532.108 534.368 535.561C534.706 539.015 532.181 542.089 528.727 542.429Z" fill="#D6E9FC"/>
<path d="M494.024 247.457L391.91 257.342L327.185 263.606H327.178C326.401 263.681 325.687 263.937 325.063 264.32C323.492 265.284 322.521 267.08 322.71 269.04L327.256 315.998L329.781 342.092C330.047 344.832 332.477 346.832 335.207 346.569L437.328 336.684L502.053 330.42C504.793 330.154 506.794 327.724 506.529 324.984L501.982 278.026L499.457 251.932C499.196 249.2 496.764 247.192 494.024 247.457Z" fill="#D6E9FC"/>
<path d="M506.604 234.722L514.374 314.99C514.665 318.001 512.467 320.67 509.456 320.961L326.13 338.705C323.128 338.995 320.459 336.798 320.166 333.787L312.396 253.52C312.105 250.518 314.303 247.84 317.305 247.549L500.63 229.804C503.643 229.513 506.312 231.721 506.604 234.722Z" fill="url(#paint9_linear_732_15134)"/>
<path d="M509.378 263.393L514.373 314.99C514.664 318 512.466 320.67 509.455 320.961L438.336 327.844C441.151 294.587 467.371 267.047 501.78 263.716C504.329 263.47 506.864 263.359 509.378 263.393Z" fill="url(#paint10_linear_732_15134)"/>
<path d="M317.393 305.116L312.398 253.52C312.107 250.509 314.305 247.84 317.316 247.549L388.435 240.664C385.62 273.92 359.4 301.461 324.991 304.791C322.441 305.04 319.907 305.15 317.393 305.116Z" fill="url(#paint11_linear_732_15134)"/>
<path d="M347.786 262.558L349.632 281.638L347.396 281.855L335.549 267.879L335.363 267.897L336.812 282.879L334.502 283.102L332.656 264.022L334.892 263.805L346.78 277.814L346.966 277.796L345.513 262.778L347.786 262.558ZM354.256 281.191L352.41 262.111L363.925 260.996L364.123 263.046L354.918 263.937L355.542 270.384L364.151 269.551L364.349 271.601L355.74 272.434L356.368 278.918L365.722 278.013L365.92 280.063L354.256 281.191ZM373.401 279.339L366.338 260.763L368.686 260.536L374.177 275.69L374.363 275.672L376.922 259.739L379.53 259.487L385.096 274.634L385.282 274.616L387.766 258.69L390.114 258.463L386.743 278.048L384.358 278.279L378.676 263.481L378.527 263.496L375.786 279.108L373.401 279.339ZM403.889 261.945C403.686 261.012 403.162 260.323 402.316 259.878C401.471 259.433 400.47 259.266 399.315 259.378C398.47 259.46 397.744 259.668 397.137 260.003C396.536 260.337 396.082 260.76 395.774 261.272C395.473 261.784 395.352 262.345 395.41 262.953C395.46 263.463 395.623 263.889 395.901 264.232C396.184 264.568 396.53 264.839 396.939 265.044C397.346 265.242 397.769 265.399 398.207 265.513C398.643 265.622 399.043 265.705 399.406 265.764L401.395 266.098C401.904 266.181 402.474 266.307 403.105 266.478C403.742 266.649 404.36 266.905 404.957 267.249C405.56 267.585 406.075 268.044 406.501 268.623C406.927 269.202 407.183 269.939 407.269 270.834C407.369 271.865 407.189 272.823 406.729 273.707C406.276 274.591 405.557 275.328 404.573 275.919C403.596 276.509 402.374 276.874 400.909 277.016C399.542 277.148 398.338 277.042 397.295 276.698C396.259 276.353 395.416 275.814 394.769 275.081C394.127 274.346 393.719 273.461 393.543 272.425L395.928 272.194C396.06 272.909 396.36 273.482 396.828 273.913C397.302 274.337 397.876 274.633 398.55 274.799C399.23 274.959 399.949 275.003 400.707 274.929C401.589 274.844 402.367 274.624 403.041 274.271C403.715 273.911 404.231 273.454 404.592 272.898C404.951 272.337 405.097 271.708 405.03 271.013C404.968 270.379 404.742 269.881 404.349 269.518C403.957 269.154 403.46 268.876 402.858 268.684C402.256 268.491 401.611 268.334 400.922 268.213L398.509 267.769C396.977 267.485 395.738 266.987 394.791 266.276C393.845 265.565 393.31 264.567 393.185 263.281C393.082 262.213 393.281 261.254 393.781 260.403C394.288 259.545 395.01 258.848 395.949 258.312C396.893 257.769 397.974 257.439 399.191 257.321C400.421 257.202 401.536 257.317 402.535 257.666C403.533 258.008 404.349 258.531 404.981 259.234C405.62 259.938 406.001 260.769 406.125 261.729L403.889 261.945Z" fill="white"/>
<path d="M269.765 360.131C267.294 325.419 277.967 311.373 291.865 308.641C305.764 305.906 331.132 297.249 333.714 303.4C336.295 309.55 324.285 317.599 312.374 321.17C307.815 322.537 305.992 324.36 305.992 324.36C305.992 324.36 313.737 334.157 311.005 353.068C308.27 371.978 290.272 380.635 283.208 375.168C276.144 369.701 270.266 367.182 269.765 360.131Z" fill="url(#paint12_linear_732_15134)"/>
<path d="M581.365 396.662C575.898 395.902 562.683 359.296 550.987 362.335C539.291 365.372 552.81 384.967 554.633 391.041C556.456 397.117 522.432 387.549 515.9 380.41C509.368 373.271 503.294 386.637 509.522 395.903C515.749 405.17 521.52 408.055 521.52 408.055C521.52 408.055 508.306 395.601 501.471 403.347C494.637 411.092 521.065 432.509 521.065 432.509C521.065 432.509 500.409 414.585 497.067 425.219C493.726 435.85 508.915 455.292 535.04 457.722C561.165 460.152 581.974 455.597 581.974 455.597L581.365 396.662Z" fill="url(#paint13_linear_732_15134)"/>
<path d="M517.735 405.349C525.393 413.104 534.392 413.787 534.392 413.787" stroke="#D16B83" stroke-width="0.9555" stroke-miterlimit="10" stroke-linecap="round" stroke-linejoin="round"/>
<path d="M516.509 428.558C525.471 436.913 535.039 438.583 535.039 438.583" stroke="#D16B83" stroke-width="0.9555" stroke-miterlimit="10" stroke-linecap="round" stroke-linejoin="round"/>
<g opacity="0.27">
<path d="M394.183 611.187L326.034 617.362L315.522 618.317L303.378 492.826L313.791 491.881L382.797 485.625C387.16 485.233 391.025 488.453 391.417 492.818L392.185 501.304L393.319 513.824L395.95 542.825L397.084 555.336L401.367 602.56C401.769 606.93 398.548 610.795 394.183 611.187Z" fill="#9F7AF6"/>
<path d="M574.191 610.375L421.402 624.385C419.037 624.6 416.887 623.27 415.95 621.236C415.69 620.683 415.522 620.085 415.468 619.443L409.543 554.114L408.409 541.604L405.777 512.602L404.634 500.082L404.618 499.851C404.35 496.844 406.564 494.184 409.571 493.917L552.089 480.835L562.511 479.88L574.433 603.025C574.672 605.53 574.583 607.993 574.191 610.375Z" fill="#9F7AF6"/>
</g>
<path d="M760.973 352.656C760.642 359.081 760.125 365.452 759.411 371.653C758.027 383.727 755.887 395.123 752.861 404.876C749.783 414.826 745.776 423.063 740.698 428.56C734.835 434.905 722.298 440.241 706.707 444.659C659.261 458.098 583.572 463.006 581.975 461.979C579.842 460.604 579.539 393.625 581.975 390.431C583.929 387.87 645.761 379.382 673.815 372.619C675.162 372.289 676.43 371.967 677.616 371.655C682.39 370.37 685.719 369.166 686.923 368.103C689.083 366.194 690.117 360.491 690.519 352.96C690.528 352.863 690.528 352.764 690.538 352.658C691.029 343.145 690.547 330.795 690.056 319.454C689.753 312.421 689.449 305.783 689.387 300.464C689.342 296.752 689.406 293.682 689.664 291.558C690.859 281.743 693.438 273.666 696.927 267.25C703.058 255.98 711.991 249.814 721.129 248.26C724.252 247.724 727.403 247.724 730.462 248.26C739.921 249.867 748.621 256.389 753.546 267.25C754.876 270.177 755.93 273.425 756.643 276.978C758.009 283.724 759.133 291.711 759.945 300.464C760.517 306.487 760.926 312.868 761.176 319.454C761.589 330.205 761.554 341.501 760.973 352.656Z" fill="url(#paint14_linear_732_15134)"/>
<path d="M673.818 372.617C680.61 370.976 685.419 369.431 686.927 368.103C689.086 366.194 690.121 360.492 690.522 352.961C701.365 356.629 712.867 361.304 713.965 364.918C716.089 371.904 673.818 372.617 673.818 372.617Z" fill="#0F77EB"/>
<path d="M752.861 404.876C749.782 414.826 745.776 423.063 740.697 428.56C734.834 434.905 722.298 440.241 706.707 444.659C708.153 422.368 726.696 404.734 749.353 404.734C750.531 404.734 751.701 404.779 752.861 404.876Z" fill="#0F77EB"/>
<path d="M381.72 494.662L134.575 520.501C127.733 521.216 121.607 516.25 120.892 509.408L111.889 423.3C111.173 416.458 116.14 410.334 122.982 409.618L370.127 383.779C376.969 383.064 383.095 388.03 383.81 394.872L392.813 480.98C393.527 487.82 388.56 493.946 381.72 494.662Z" fill="url(#paint15_linear_732_15134)"/>
<path opacity="0.74" d="M252.95 432.032L148.564 442.946C146.875 443.123 145.362 441.896 145.185 440.208C145.008 438.517 146.235 437.004 147.925 436.829L252.311 425.915C254.002 425.738 255.515 426.965 255.69 428.653C255.866 430.344 254.641 431.857 252.95 432.032Z" fill="white"/>
<path opacity="0.74" d="M255.343 454.919L150.957 465.832C149.267 466.01 147.756 464.783 147.578 463.092C147.403 461.402 148.628 459.891 150.318 459.713L254.705 448.8C256.395 448.622 257.908 449.849 258.084 451.54C258.259 453.23 257.034 454.743 255.343 454.919Z" fill="white"/>
<path opacity="0.74" d="M216.571 482.11L153.35 488.72C151.659 488.898 150.146 487.671 149.971 485.982C149.795 484.292 151.021 482.779 152.711 482.603L215.933 475.993C217.623 475.816 219.136 477.043 219.311 478.733C219.487 480.42 218.26 481.933 216.571 482.11Z" fill="white"/>
<path d="M291.138 474.314L290.199 474.411C287.767 474.665 285.591 472.9 285.335 470.468L283.544 453.327C283.29 450.895 285.055 448.719 287.485 448.465L288.424 448.366C290.856 448.112 293.032 449.877 293.286 452.309L295.078 469.45C295.335 471.882 293.57 474.06 291.138 474.314Z" fill="url(#paint16_linear_732_15134)"/>
<path d="M319.678 471.329L319.216 471.378C316.654 471.645 314.358 469.785 314.089 467.222L310.135 429.41C309.868 426.847 311.728 424.552 314.291 424.283L314.752 424.234C317.315 423.967 319.61 425.828 319.879 428.39L323.833 466.202C324.102 468.767 322.24 471.062 319.678 471.329Z" fill="url(#paint17_linear_732_15134)"/>
<path d="M348.224 468.344C345.533 468.626 343.125 466.673 342.843 463.981L340.359 440.226C340.077 437.535 342.031 435.127 344.722 434.845C347.414 434.563 349.821 436.517 350.103 439.208L352.588 462.963C352.868 465.655 350.914 468.064 348.224 468.344Z" fill="url(#paint18_linear_732_15134)"/>
<path d="M396.854 673.23L245.939 689.009C239.932 689.637 234.553 685.277 233.925 679.269L218.146 528.353C217.518 522.346 221.878 516.967 227.885 516.34L378.8 500.56C384.807 499.933 390.186 504.292 390.814 510.299L406.593 661.215C407.223 667.223 402.861 672.603 396.854 673.23Z" fill="white"/>
<path d="M377.592 516.02L388.102 616.544C388.193 617.427 387.56 618.208 386.679 618.3L244.527 633.162C243.653 633.253 242.872 632.62 242.779 631.737L232.269 531.213C232.177 530.339 232.81 529.549 233.684 529.457L375.845 514.593C376.718 514.505 377.5 515.146 377.592 516.02Z" fill="#D6E9FC"/>
<path d="M375.718 569.78L379.842 609.232C379.924 610.02 379.353 610.726 378.562 610.81L250.914 624.156C250.13 624.238 249.428 623.668 249.345 622.876L245.619 587.236L256.01 574.419C260.069 569.412 267.418 568.644 272.426 572.703L286.341 583.984C291.349 588.043 298.699 587.276 302.757 582.268L330.451 548.106C334.512 543.098 341.862 542.33 346.869 546.389L375.718 569.78Z" fill="white"/>
<path d="M300.452 644.996L254.367 649.815C252.12 650.051 250.108 648.42 249.873 646.171C249.638 643.924 251.27 641.912 253.517 641.677L299.602 636.858C301.849 636.623 303.86 638.255 304.096 640.502C304.329 642.749 302.699 644.763 300.452 644.996Z" fill="#D6E9FC"/>
<path d="M347.216 649.67L252.757 659.545C251.946 659.631 251.22 659.04 251.134 658.23C251.05 657.419 251.638 656.693 252.449 656.607L346.908 646.732C347.718 646.646 348.445 647.236 348.531 648.046C348.617 648.859 348.027 649.586 347.216 649.67Z" fill="#D6E9FC"/>
<path d="M348.466 661.62L254.007 671.497C253.195 671.581 252.468 670.993 252.384 670.182C252.3 669.371 252.888 668.645 253.699 668.559L348.158 658.682C348.968 658.598 349.695 659.186 349.781 659.997C349.867 660.809 349.277 661.536 348.466 661.62Z" fill="#D6E9FC"/>
<path d="M742.962 658.319L434.586 690.894C430.451 691.326 426.749 688.324 426.315 684.191L409.12 519.734C408.689 515.598 411.69 511.896 415.824 511.465L724.199 478.89C728.335 478.459 732.037 481.46 732.47 485.594L749.665 650.051C750.099 654.184 747.097 657.886 742.962 658.319Z" fill="white"/>
<path d="M540.667 527.134L549.7 604.057C549.778 604.734 549.301 605.338 548.626 605.417L439.848 618.19C439.179 618.269 438.574 617.791 438.494 617.115L429.461 540.192C429.382 539.523 429.86 538.911 430.529 538.832L539.314 526.057C539.982 525.981 540.588 526.465 540.667 527.134Z" fill="#D6E9FC"/>
<path d="M539.755 568.345L543.3 598.535C543.37 599.138 542.939 599.685 542.335 599.757L444.654 611.227C444.054 611.298 443.51 610.868 443.44 610.262L440.237 582.989L448.074 573.067C451.135 569.19 456.759 568.531 460.636 571.592L471.409 580.101C475.285 583.162 480.909 582.502 483.971 578.625L504.858 552.179C507.921 548.302 513.545 547.642 517.422 550.703L539.755 568.345Z" fill="white"/>
<path d="M713.479 622.973L576.167 637.329C572.424 637.721 569.073 635.004 568.681 631.26L559.355 542.069C558.963 538.326 561.68 534.975 565.424 534.583L702.736 520.227C706.479 519.834 709.83 522.552 710.222 526.295L719.548 615.487C719.94 619.23 717.222 622.583 713.479 622.973Z" fill="#D6E9FC"/>
<path d="M690.86 548.72L582.938 560.003C581.457 560.158 580.131 559.083 579.978 557.603C579.823 556.122 580.899 554.796 582.378 554.641L690.3 543.358C691.781 543.202 693.107 544.278 693.262 545.758C693.417 547.241 692.341 548.565 690.86 548.72Z" fill="white"/>
<path d="M692.748 566.785L584.826 578.069C583.345 578.224 582.019 577.148 581.865 575.669C581.71 574.188 582.786 572.861 584.266 572.706L692.188 561.423C693.669 561.268 694.995 562.344 695.15 563.823C695.305 565.304 694.229 566.63 692.748 566.785Z" fill="white"/>
<path d="M694.641 584.849L586.718 596.132C585.237 596.287 583.911 595.212 583.756 593.732C583.601 592.251 584.677 590.925 586.156 590.77L694.078 579.487C695.559 579.332 696.886 580.407 697.041 581.887C697.196 583.368 696.12 584.694 694.641 584.849Z" fill="white"/>
<path d="M647.207 608.07L588.606 614.196C587.125 614.351 585.799 613.275 585.644 611.796C585.489 610.315 586.565 608.989 588.044 608.834L646.645 602.707C648.126 602.552 649.452 603.628 649.605 605.107C649.764 606.589 648.688 607.915 647.207 608.07Z" fill="white"/>
<path d="M478.674 605.672L435.862 610.149C433.774 610.367 431.906 608.852 431.687 606.763C431.468 604.676 432.985 602.807 435.072 602.588L477.885 598.112C479.972 597.893 481.841 599.409 482.059 601.497C482.276 603.584 480.761 605.455 478.674 605.672Z" fill="#D6E9FC"/>
<path d="M522.118 610.013L434.366 619.187C433.613 619.267 432.938 618.719 432.858 617.966C432.78 617.213 433.327 616.538 434.08 616.458L521.831 607.284C522.584 607.204 523.259 607.752 523.339 608.505C523.419 609.26 522.871 609.935 522.118 610.013Z" fill="#D6E9FC"/>
<path d="M523.279 621.115L435.527 630.291C434.772 630.369 434.097 629.822 434.019 629.069C433.941 628.316 434.488 627.641 435.241 627.561L522.992 618.386C523.745 618.308 524.42 618.854 524.5 619.607C524.58 620.362 524.032 621.037 523.279 621.115Z" fill="#D6E9FC"/>
</g>
<defs>
<filter id="filter0_b_732_15134" x="-44" y="-44" width="1082" height="778.935" filterUnits="userSpaceOnUse" color-interpolation-filters="sRGB">
<feFlood flood-opacity="0" result="BackgroundImageFix"/>
<feGaussianBlur in="BackgroundImageFix" stdDeviation="22"/>
<feComposite in2="SourceAlpha" operator="in" result="effect1_backgroundBlur_732_15134"/>
<feBlend mode="normal" in="SourceGraphic" in2="effect1_backgroundBlur_732_15134" result="shape"/>
</filter>
<linearGradient id="paint0_linear_732_15134" x1="359.127" y1="119.866" x2="1554.81" y2="1993.58" gradientUnits="userSpaceOnUse">
<stop stop-color="white" stop-opacity="0.31"/>
<stop offset="1" stop-color="#3483F6"/>
</linearGradient>
<linearGradient id="paint1_linear_732_15134" x1="948.367" y1="444.492" x2="699.572" y2="530.158" gradientUnits="userSpaceOnUse">
<stop stop-color="#A8FBD6"/>
<stop offset="0.9888" stop-color="#388AAA"/>
</linearGradient>
<linearGradient id="paint2_linear_732_15134" x1="46.2596" y1="303.956" x2="292.818" y2="395.864" gradientUnits="userSpaceOnUse">
<stop stop-color="#A8FBD6"/>
<stop offset="0.9888" stop-color="#388AAA"/>
</linearGradient>
<linearGradient id="paint3_linear_732_15134" x1="542.177" y1="258.774" x2="569.517" y2="515.771" gradientUnits="userSpaceOnUse">
<stop stop-color="#B9F5FC"/>
<stop offset="1" stop-color="#3483F6"/>
</linearGradient>
<linearGradient id="paint4_linear_732_15134" x1="535.986" y1="383.236" x2="753.866" y2="377.736" gradientUnits="userSpaceOnUse">
<stop stop-color="#0F77EB"/>
<stop offset="1" stop-color="#12C0FF"/>
</linearGradient>
<linearGradient id="paint5_linear_732_15134" x1="508.582" y1="159.587" x2="499.924" y2="347.779" gradientUnits="userSpaceOnUse">
<stop stop-color="#F097F8"/>
<stop offset="1" stop-color="#8F5FF5"/>
</linearGradient>
<linearGradient id="paint6_linear_732_15134" x1="560.197" y1="409.551" x2="723.571" y2="405.238" gradientUnits="userSpaceOnUse">
<stop stop-color="#0F77EB"/>
<stop offset="1" stop-color="#12C0FF"/>
</linearGradient>
<linearGradient id="paint7_linear_732_15134" x1="639.671" y1="265.543" x2="585.446" y2="108.792" gradientUnits="userSpaceOnUse">
<stop stop-color="#F7CBCE"/>
<stop offset="1" stop-color="#F08EA3"/>
</linearGradient>
<linearGradient id="paint8_linear_732_15134" x1="596.087" y1="192.78" x2="645.983" y2="-59.4329" gradientUnits="userSpaceOnUse">
<stop stop-color="#F7CBCE"/>
<stop offset="1" stop-color="#F08EA3"/>
</linearGradient>
<linearGradient id="paint9_linear_732_15134" x1="361.656" y1="302.826" x2="513.71" y2="295.875" gradientUnits="userSpaceOnUse">
<stop stop-color="#0F77EB"/>
<stop offset="1" stop-color="#12C0FF"/>
</linearGradient>
<linearGradient id="paint10_linear_732_15134" x1="456.892" y1="306.602" x2="514.21" y2="304.935" gradientUnits="userSpaceOnUse">
<stop stop-color="#0F77EB"/>
<stop offset="1" stop-color="#12C0FF"/>
</linearGradient>
<linearGradient id="paint11_linear_732_15134" x1="330.928" y1="283.88" x2="388.246" y2="282.213" gradientUnits="userSpaceOnUse">
<stop stop-color="#0F77EB"/>
<stop offset="1" stop-color="#12C0FF"/>
</linearGradient>
<linearGradient id="paint12_linear_732_15134" x1="340.722" y1="301.533" x2="191.718" y2="425.019" gradientUnits="userSpaceOnUse">
<stop stop-color="#F7CBCE"/>
<stop offset="1" stop-color="#F08EA3"/>
</linearGradient>
<linearGradient id="paint13_linear_732_15134" x1="492.852" y1="423.274" x2="849.186" y2="354.012" gradientUnits="userSpaceOnUse">
<stop stop-color="#F7CBCE"/>
<stop offset="1" stop-color="#F08EA3"/>
</linearGradient>
<linearGradient id="paint14_linear_732_15134" x1="624.462" y1="391.505" x2="761.06" y2="388.657" gradientUnits="userSpaceOnUse">
<stop stop-color="#0F77EB"/>
<stop offset="1" stop-color="#12C0FF"/>
</linearGradient>
<linearGradient id="paint15_linear_732_15134" x1="180.386" y1="475.468" x2="391.822" y2="464.763" gradientUnits="userSpaceOnUse">
<stop stop-color="#0F77EB"/>
<stop offset="1" stop-color="#12C0FF"/>
</linearGradient>
<linearGradient id="paint16_linear_732_15134" x1="256.827" y1="354.834" x2="359.353" y2="691.12" gradientUnits="userSpaceOnUse">
<stop stop-color="#B9F5FC"/>
<stop offset="1" stop-color="#3483F6"/>
</linearGradient>
<linearGradient id="paint17_linear_732_15134" x1="285.934" y1="345.96" x2="388.46" y2="682.244" gradientUnits="userSpaceOnUse">
<stop stop-color="#B9F5FC"/>
<stop offset="1" stop-color="#3483F6"/>
</linearGradient>
<linearGradient id="paint18_linear_732_15134" x1="311.857" y1="338.056" x2="414.383" y2="674.341" gradientUnits="userSpaceOnUse">
<stop stop-color="#B9F5FC"/>
<stop offset="1" stop-color="#3483F6"/>
</linearGradient>
</defs>
</svg>
