<svg width="302" height="58" viewBox="0 0 302 58" fill="none" xmlns="http://www.w3.org/2000/svg">
<path d="M71.0517 14.8396H78.4679L88.3997 39.0811H88.7917L98.7235 14.8396H106.14V48.2942H100.324V25.3105H100.014L90.7683 48.1962H86.4231L77.1774 25.2615H76.867V48.2942H71.0517V14.8396ZM116.478 48.8006C114.888 48.8006 113.456 48.5174 112.182 47.9511C110.919 47.374 109.917 46.5245 109.176 45.4029C108.446 44.2812 108.082 42.8981 108.082 41.2537C108.082 39.838 108.343 38.6673 108.866 37.7416C109.388 36.816 110.102 36.0754 111.006 35.52C111.91 34.9646 112.928 34.5454 114.06 34.2622C115.204 33.9682 116.385 33.7558 117.605 33.6252C119.075 33.4727 120.268 33.3366 121.183 33.2168C122.097 33.0861 122.762 32.8901 123.175 32.6287C123.6 32.3565 123.812 31.9372 123.812 31.3709V31.2729C123.812 30.0423 123.448 29.0894 122.718 28.4142C121.988 27.739 120.937 27.4014 119.565 27.4014C118.117 27.4014 116.968 27.7172 116.119 28.3489C115.28 28.9805 114.714 29.7265 114.42 30.5868L108.898 29.8027C109.334 28.2781 110.053 27.0039 111.055 25.9803C112.057 24.9457 113.282 24.1725 114.73 23.6607C116.178 23.1379 117.779 22.8766 119.533 22.8766C120.741 22.8766 121.945 23.0181 123.143 23.3013C124.341 23.5844 125.435 24.0527 126.426 24.7061C127.417 25.3486 128.212 26.2253 128.811 27.3361C129.421 28.4469 129.726 29.8354 129.726 31.5016V48.2942H124.041V44.8475H123.845C123.486 45.5444 122.979 46.1978 122.326 46.8077C121.683 47.4066 120.872 47.8913 119.892 48.2615C118.923 48.6209 117.785 48.8006 116.478 48.8006ZM118.013 44.4554C119.201 44.4554 120.23 44.2213 121.101 43.753C121.972 43.2738 122.642 42.6422 123.11 41.8581C123.589 41.074 123.829 40.2191 123.829 39.2935V36.3368C123.644 36.4893 123.328 36.6308 122.881 36.7615C122.446 36.8922 121.956 37.0065 121.411 37.1046C120.867 37.2026 120.328 37.2897 119.794 37.3659C119.26 37.4422 118.798 37.5075 118.406 37.5619C117.523 37.6817 116.734 37.8778 116.037 38.15C115.34 38.4223 114.79 38.8034 114.387 39.2935C113.984 39.7726 113.783 40.3934 113.783 41.1557C113.783 42.2447 114.18 43.0669 114.975 43.6223C115.77 44.1777 116.783 44.4554 118.013 44.4554ZM139.672 48.8006C138.082 48.8006 136.65 48.5174 135.376 47.9511C134.113 47.374 133.111 46.5245 132.37 45.4029C131.641 44.2812 131.276 42.8981 131.276 41.2537C131.276 39.838 131.537 38.6673 132.06 37.7416C132.583 36.816 133.296 36.0754 134.2 35.52C135.104 34.9646 136.122 34.5454 137.254 34.2622C138.398 33.9682 139.579 33.7558 140.799 33.6252C142.269 33.4727 143.462 33.3366 144.377 33.2168C145.291 33.0861 145.956 32.8901 146.369 32.6287C146.794 32.3565 147.007 31.9372 147.007 31.3709V31.2729C147.007 30.0423 146.642 29.0894 145.912 28.4142C145.182 27.739 144.132 27.4014 142.759 27.4014C141.311 27.4014 140.162 27.7172 139.313 28.3489C138.474 28.9805 137.908 29.7265 137.614 30.5868L132.092 29.8027C132.528 28.2781 133.247 27.0039 134.249 25.9803C135.251 24.9457 136.476 24.1725 137.924 23.6607C139.373 23.1379 140.973 22.8766 142.727 22.8766C143.936 22.8766 145.139 23.0181 146.337 23.3013C147.535 23.5844 148.629 24.0527 149.62 24.7061C150.611 25.3486 151.406 26.2253 152.005 27.3361C152.615 28.4469 152.92 29.8354 152.92 31.5016V48.2942H147.235V44.8475H147.039C146.68 45.5444 146.173 46.1978 145.52 46.8077C144.878 47.4066 144.066 47.8913 143.086 48.2615C142.117 48.6209 140.979 48.8006 139.672 48.8006ZM141.208 44.4554C142.395 44.4554 143.424 44.2213 144.295 43.753C145.166 43.2738 145.836 42.6422 146.304 41.8581C146.783 41.074 147.023 40.2191 147.023 39.2935V36.3368C146.838 36.4893 146.522 36.6308 146.075 36.7615C145.64 36.8922 145.15 37.0065 144.605 37.1046C144.061 37.2026 143.522 37.2897 142.988 37.3659C142.454 37.4422 141.992 37.5075 141.6 37.5619C140.717 37.6817 139.928 37.8778 139.231 38.15C138.534 38.4223 137.984 38.8034 137.581 39.2935C137.178 39.7726 136.977 40.3934 136.977 41.1557C136.977 42.2447 137.374 43.0669 138.169 43.6223C138.964 44.1777 139.977 44.4554 141.208 44.4554ZM161.559 33.5925V48.2942H155.646V23.2033H161.298V27.4668H161.592C162.169 26.0619 163.089 24.9457 164.353 24.1181C165.627 23.2904 167.2 22.8766 169.073 22.8766C170.805 22.8766 172.313 23.2468 173.598 23.9874C174.894 24.7279 175.896 25.8006 176.604 27.2054C177.323 28.6102 177.677 30.3145 177.666 32.3183V48.2942H171.752V33.2331C171.752 31.556 171.317 30.2438 170.446 29.2963C169.585 28.3489 168.393 27.8752 166.868 27.8752C165.834 27.8752 164.913 28.1038 164.108 28.5612C163.313 29.0077 162.686 29.6557 162.229 30.5051C161.783 31.3546 161.559 32.3837 161.559 33.5925ZM216.401 14.8396V48.2942H211.01L195.247 25.5065H194.969V48.2942H188.909V14.8396H194.332L210.079 37.6436H210.373V14.8396H216.401ZM230.631 48.7842C228.115 48.7842 225.943 48.2615 224.113 47.2161C222.295 46.1597 220.895 44.6678 219.915 42.7402C218.935 40.8018 218.445 38.5203 218.445 35.8958C218.445 33.3148 218.935 31.0496 219.915 29.1003C220.906 27.1401 222.289 25.6154 224.064 24.5264C225.839 23.4265 227.925 22.8766 230.321 22.8766C231.867 22.8766 233.326 23.127 234.698 23.628C236.082 24.1181 237.301 24.8804 238.358 25.9149C239.425 26.9495 240.263 28.2672 240.873 29.8681C241.483 31.458 241.788 33.3529 241.788 35.5527V37.3659H221.222V33.3801H236.12C236.109 32.2476 235.864 31.2402 235.385 30.3581C234.905 29.4651 234.236 28.7627 233.375 28.2509C232.526 27.739 231.535 27.4831 230.402 27.4831C229.193 27.4831 228.132 27.7771 227.217 28.3652C226.302 28.9424 225.589 29.7047 225.077 30.6521C224.576 31.5887 224.32 32.6178 224.309 33.7395V37.2189C224.309 38.6782 224.576 39.9306 225.11 40.976C225.643 42.0106 226.389 42.8056 227.348 43.361C228.306 43.9055 229.428 44.1777 230.713 44.1777C231.573 44.1777 232.352 44.0579 233.049 43.8183C233.746 43.5679 234.35 43.203 234.862 42.7239C235.374 42.2447 235.76 41.6512 236.022 40.9433L241.543 41.5641C241.194 43.0234 240.53 44.2975 239.55 45.3865C238.581 46.4646 237.339 47.3032 235.826 47.9021C234.312 48.4902 232.58 48.7842 230.631 48.7842ZM248.614 48.2942L241.525 23.2033H247.552L251.963 40.8453H252.192L256.7 23.2033H262.662L267.171 40.7473H267.416L271.761 23.2033H277.805L270.699 48.2942H264.541L259.836 31.3382H259.493L254.789 48.2942H248.614ZM298.545 29.8354L293.154 30.4234C293.002 29.8789 292.735 29.3671 292.354 28.8879C291.984 28.4088 291.483 28.0222 290.851 27.7281C290.219 27.4341 289.446 27.2871 288.531 27.2871C287.301 27.2871 286.266 27.5539 285.428 28.0875C284.6 28.6211 284.192 29.3127 284.203 30.1621C284.192 30.8917 284.458 31.4852 285.003 31.9426C285.558 32.4 286.473 32.7757 287.747 33.0698L292.027 33.9845C294.401 34.4964 296.165 35.3077 297.32 36.4185C298.485 37.5293 299.073 38.9831 299.084 40.78C299.073 42.3591 298.61 43.753 297.695 44.9618C296.792 46.1597 295.534 47.0963 293.922 47.7715C292.31 48.4467 290.459 48.7842 288.368 48.7842C285.297 48.7842 282.825 48.1417 280.952 46.8567C279.079 45.5608 277.962 43.7584 277.603 41.4497L283.369 40.8943C283.631 42.0269 284.186 42.8818 285.036 43.459C285.885 44.0361 286.99 44.3247 288.352 44.3247C289.757 44.3247 290.884 44.0361 291.733 43.459C292.593 42.8818 293.024 42.1685 293.024 41.319C293.024 40.6003 292.746 40.0068 292.19 39.5385C291.646 39.0702 290.797 38.7109 289.642 38.4604L285.362 37.5619C282.956 37.061 281.175 36.217 280.021 35.03C278.866 33.8321 278.295 32.3183 278.306 30.4888C278.295 28.9424 278.714 27.6029 279.563 26.4703C280.424 25.3269 281.616 24.4448 283.141 23.824C284.676 23.1924 286.446 22.8766 288.45 22.8766C291.39 22.8766 293.704 23.5028 295.392 24.7551C297.091 26.0075 298.142 27.7009 298.545 29.8354Z" fill="white"/>
<g clip-path="url(#clip0_732_15118)">
<path d="M28.5 2.16992C13.6822 2.16992 1.66992 14.1821 1.66992 29H55.3301C55.3301 14.1821 43.3178 2.16992 28.5 2.16992Z" fill="#02D7E9"/>
<path d="M55.3301 29C55.3301 14.1821 43.3179 2.16992 28.5 2.16992V29H55.3301Z" fill="#02D7E9"/>
<path d="M48.6526 8.84738C43.2696 3.46456 36.1126 0.5 28.5 0.5C20.8874 0.5 13.7304 3.46456 8.34738 8.84738C2.96456 14.2304 0 21.3874 0 29H57C57 21.3874 54.0354 14.2304 48.6526 8.84738ZM13.4408 27.3301H3.39462C3.62539 23.8072 4.60039 20.3734 6.2553 17.2549H14.7164C13.9804 20.4001 13.5454 23.8058 13.4408 27.3301ZM8.37789 13.915C11.3026 10.0236 15.3274 7.00457 19.987 5.32396C19.0988 6.4575 18.2717 7.77897 17.5204 9.28145C16.8062 10.7098 16.1794 12.2634 15.6436 13.915H8.37789ZM26.8301 27.3301H16.7819C16.8936 23.7697 17.3614 20.3553 18.1512 17.2549H26.8301V27.3301ZM26.8301 13.915H19.1714C19.5709 12.8081 20.0165 11.7575 20.5078 10.775C22.2846 7.22144 24.5225 4.89089 26.8301 4.12084V13.915ZM30.1699 4.12084C32.4775 4.89089 34.7155 7.22144 36.4922 10.775C36.9834 11.7574 37.4291 12.8081 37.8286 13.915H30.1699V4.12084ZM30.1699 27.3301V17.2549H38.8488C39.6386 20.3553 40.1064 23.7697 40.2181 27.3301H30.1699ZM39.4795 9.28145C38.7283 7.77897 37.9012 6.4575 37.013 5.32396C41.6726 7.00457 45.6974 10.0236 48.6221 13.915H41.3563C40.8205 12.2634 40.1937 10.7098 39.4795 9.28145ZM42.2836 17.2549H50.7447C52.3996 20.3734 53.3746 23.8072 53.6054 27.3301H43.5592C43.4546 23.8058 43.0196 20.4001 42.2836 17.2549Z" fill="url(#paint0_linear_732_15118)"/>
<path d="M28.5 0.5V29H57C57 21.3874 54.0354 14.2304 48.6526 8.84738C43.2696 3.46456 36.1126 0.5 28.5 0.5ZM30.1699 4.12084C32.4775 4.89089 34.7155 7.22144 36.4922 10.775C36.9834 11.7574 37.4291 12.8081 37.8286 13.915H30.1699V4.12084ZM30.1699 27.3301V17.2549H38.8488C39.6386 20.3553 40.1064 23.7697 40.2181 27.3301H30.1699ZM39.4795 9.28145C38.7283 7.77897 37.9012 6.4575 37.013 5.32396C41.6726 7.00457 45.6974 10.0236 48.6221 13.915H41.3563C40.8205 12.2634 40.1937 10.7098 39.4795 9.28145ZM53.6054 27.3301H43.5592C43.4546 23.8058 43.0197 20.4001 42.2836 17.2549H50.7447C52.3996 20.3734 53.3746 23.8072 53.6054 27.3301Z" fill="url(#paint1_linear_732_15118)"/>
<path d="M55.3301 57.5H1.66992C0.74768 57.5 0 56.7523 0 55.8301V29C0 28.0778 0.74768 27.3301 1.66992 27.3301H55.3301C56.2523 27.3301 57 28.0778 57 29V55.8301C57 56.7523 56.2523 57.5 55.3301 57.5Z" fill="#E3F3FF"/>
<path d="M55.3301 27.3301H28.5V57.5H55.3301C56.2523 57.5 57 56.7523 57 55.8301V29C57 28.0778 56.2523 27.3301 55.3301 27.3301Z" fill="url(#paint2_linear_732_15118)" fill-opacity="0.2"/>
<path d="M3.33984 30.6699H53.6602V54.1602H3.33984V30.6699Z" fill="url(#paint3_linear_732_15118)" fill-opacity="0.4"/>
<path d="M28.5 30.6699H53.6602V54.1602H28.5V30.6699Z" fill="url(#paint4_linear_732_15118)"/>
<path d="M16.275 37.3361C16.2677 36.572 15.6462 35.9579 14.8838 35.9579H14.8701C14.1016 35.9654 13.4845 36.5944 13.492 37.3629L13.5466 43.0148L9.10118 36.5775C8.93261 36.3332 8.69037 36.1493 8.40983 36.0525C8.12929 35.9557 7.82516 35.9511 7.54183 36.0394C7.25851 36.1277 7.01085 36.3043 6.83501 36.5434C6.65917 36.7825 6.56437 37.0715 6.56445 37.3683V47.3691C6.56445 48.1376 7.18756 48.7607 7.95606 48.7607C8.72466 48.7607 9.34766 48.1376 9.34766 47.3691V41.8324L13.5734 47.9515C13.9769 48.5342 14.6519 48.7814 15.2934 48.5811C15.9467 48.377 16.3688 47.7687 16.3688 47.0315V47.0181L16.275 37.3361ZM23.9311 38.7412C24.6996 38.7412 25.3227 38.118 25.3227 37.3495C25.3227 36.5811 24.6996 35.9579 23.9311 35.9579H19.7093C18.9407 35.9579 18.3177 36.5811 18.3177 37.3495V47.3691C18.3177 48.1376 18.9407 48.7607 19.7093 48.7607H23.9311C24.6996 48.7607 25.3227 48.1376 25.3227 47.3691C25.3227 46.6006 24.6996 45.9775 23.9311 45.9775H21.1009V43.7509H23.6198C24.3883 43.7509 25.0114 43.1279 25.0114 42.3593C25.0114 41.5907 24.3883 40.9677 23.6198 40.9677H21.1009V38.7412H23.9311ZM39.4314 36.0031C38.6775 35.8535 37.9448 36.3425 37.7949 37.0964L36.7413 42.3903L35.0622 36.9399C34.8359 36.2054 34.057 35.7932 33.3226 36.0196C32.828 36.172 32.4806 36.5754 32.3749 37.0466L30.7205 42.3915L29.6698 37.0796C29.5206 36.3256 28.7883 35.8353 28.0346 35.9844C27.2807 36.1335 26.7903 36.8657 26.9395 37.6196L28.8915 47.4886C28.9048 47.5553 28.9228 47.6209 28.9455 47.685C29.0576 47.9996 29.2642 48.2719 29.5371 48.4645C29.81 48.6571 30.1357 48.7606 30.4697 48.7608H30.4811C30.8235 48.7582 31.1563 48.6471 31.4316 48.4434C31.707 48.2398 31.9106 47.9541 32.0133 47.6274L33.7317 42.0755L35.4424 47.6285C35.5459 47.9567 35.7512 48.2434 36.0286 48.447C36.3061 48.6506 36.6412 48.7605 36.9853 48.7608H36.9962C37.6843 48.7561 38.2954 48.3155 38.517 47.664C38.5366 47.6063 38.5524 47.5473 38.5644 47.4875L40.5243 37.6398C40.6746 36.8859 40.1852 36.1531 39.4314 36.0031Z" fill="#1F1F1F"/>
<path d="M39.4316 36.0031C38.6777 35.8535 37.9451 36.3425 37.7951 37.0964L36.7415 42.3903L35.0625 36.9399C34.8361 36.2054 34.0573 35.7932 33.3228 36.0196C32.8282 36.172 32.4809 36.5754 32.3751 37.0466L30.7208 42.3915L29.6701 37.0796C29.5522 36.4834 29.0693 36.0537 28.5 35.9729V45.5077L28.8919 47.4886C28.9051 47.5553 28.9232 47.6209 28.9459 47.685C29.058 47.9996 29.2646 48.2719 29.5375 48.4645C29.8103 48.6571 30.1361 48.7606 30.4701 48.7608H30.4814C30.8239 48.7582 31.1567 48.6471 31.432 48.4434C31.7073 48.2398 31.9109 47.9541 32.0136 47.6274L33.7321 42.0755L35.4428 47.6285C35.5462 47.9567 35.7516 48.2434 36.029 48.447C36.3064 48.6506 36.6415 48.7605 36.9857 48.7608H36.9966C37.6847 48.7561 38.2958 48.3155 38.5173 47.664C38.5369 47.6063 38.5528 47.5473 38.5647 47.4875L40.5247 37.6398C40.6748 36.8859 40.1854 36.1531 39.4316 36.0031ZM47.5685 41.1327C46.3618 40.6876 45.2367 40.2033 44.8665 40.0416C44.6628 39.8667 44.6703 39.6291 44.6848 39.5288C44.7063 39.3784 44.8177 39.0101 45.384 38.8396C46.7351 38.4324 48.0018 39.4422 48.0143 39.4523L48.0054 39.445L48.0066 39.4435C48.2572 39.6554 48.5748 39.7716 48.903 39.7713C49.6716 39.7713 50.2946 39.1482 50.2946 38.3797C50.2946 37.9338 50.0841 37.5379 49.758 37.2832C49.4358 37.0258 47.2308 35.3761 44.5813 36.1746C43.1457 36.6071 42.1298 37.7408 41.93 39.1332C41.7419 40.4432 42.3098 41.7034 43.4121 42.4221C43.4736 42.4622 43.5381 42.4974 43.6051 42.5272C43.6632 42.5531 45.0471 43.1692 46.6053 43.7439C46.9225 43.8609 47.948 44.2938 47.8302 44.9529C47.7403 45.4565 47.1123 45.9775 46.217 45.9775C45.2597 45.9775 44.34 45.5932 43.7565 44.9495C43.2403 44.38 42.3605 44.3366 41.7909 44.8527C41.2214 45.3688 41.178 46.2489 41.6942 46.8183C42.8128 48.0527 44.4612 48.7607 46.217 48.7607C48.396 48.7607 50.2268 47.3651 50.5701 45.4422C50.8294 43.9897 50.177 42.0949 47.5685 41.1327Z" fill="#1F1F1F"/>
</g>
<defs>
<linearGradient id="paint0_linear_732_15118" x1="13.9052" y1="19.608" x2="56.7908" y2="17.4933" gradientUnits="userSpaceOnUse">
<stop stop-color="#0F77EB"/>
<stop offset="1" stop-color="#12C0FF"/>
</linearGradient>
<linearGradient id="paint1_linear_732_15118" x1="35.4526" y1="19.608" x2="56.9345" y2="19.0783" gradientUnits="userSpaceOnUse">
<stop stop-color="#0F77EB"/>
<stop offset="1" stop-color="#12C0FF"/>
</linearGradient>
<linearGradient id="paint2_linear_732_15118" x1="35.4526" y1="47.5576" x2="56.9359" y2="47.0573" gradientUnits="userSpaceOnUse">
<stop stop-color="#0F77EB"/>
<stop offset="1" stop-color="#12C0FF"/>
</linearGradient>
<linearGradient id="paint3_linear_732_15118" x1="28.5" y1="30.6699" x2="28.5" y2="54.1602" gradientUnits="userSpaceOnUse">
<stop stop-color="#FEB36D"/>
<stop offset="1" stop-color="#FD800E"/>
</linearGradient>
<linearGradient id="paint4_linear_732_15118" x1="41.0801" y1="30.6699" x2="41.0801" y2="54.1602" gradientUnits="userSpaceOnUse">
<stop stop-color="#FEB36D"/>
<stop offset="1" stop-color="#FD800E"/>
</linearGradient>
<clipPath id="clip0_732_15118">
<rect width="57" height="57" fill="white" transform="translate(0 0.5)"/>
</clipPath>
</defs>
</svg>
