<svg width="319" height="58" viewBox="0 0 319 58" fill="none" xmlns="http://www.w3.org/2000/svg">
<path d="M75.3478 48.2942H68.8791L80.6568 14.8396H88.1383L99.9324 48.2942H93.4636L84.5282 21.7004H84.2669L75.3478 48.2942ZM75.5602 35.177H93.2022V40.0449H75.5602V35.177ZM111.038 48.7842C108.534 48.7842 106.383 48.2343 104.586 47.1344C102.8 46.0345 101.422 44.5153 100.453 42.5769C99.4948 40.6275 99.0156 38.3842 99.0156 35.8467C99.0156 33.2985 99.5057 31.0496 100.486 29.1003C101.466 27.1401 102.849 25.6154 104.635 24.5264C106.432 23.4265 108.555 22.8766 111.006 22.8766C113.042 22.8766 114.844 23.2523 116.413 24.0037C117.992 24.7442 119.25 25.7951 120.186 27.1564C121.123 28.5068 121.656 30.0859 121.787 31.8936H116.135C115.906 30.6848 115.362 29.6775 114.501 28.8716C113.652 28.0548 112.514 27.6465 111.087 27.6465C109.879 27.6465 108.817 27.9732 107.902 28.6266C106.987 29.2691 106.274 30.1948 105.762 31.4036C105.261 32.6124 105.011 34.0608 105.011 35.7487C105.011 37.4585 105.261 38.9287 105.762 40.1592C106.263 41.3789 106.965 42.3209 107.869 42.9852C108.784 43.6386 109.857 43.9654 111.087 43.9654C111.959 43.9654 112.737 43.802 113.423 43.4753C114.12 43.1377 114.703 42.6531 115.171 42.0215C115.639 41.3898 115.961 40.6221 116.135 39.7182H121.787C121.645 41.4933 121.123 43.0669 120.219 44.4391C119.315 45.8003 118.084 46.8676 116.527 47.6408C114.97 48.4031 113.14 48.7842 111.038 48.7842ZM129.336 33.5925V48.2942H123.423V23.2033H129.075V27.4668H129.369C129.946 26.0619 130.866 24.9457 132.129 24.1181C133.403 23.2904 134.977 22.8766 136.85 22.8766C138.582 22.8766 140.09 23.2468 141.375 23.9874C142.671 24.7279 143.673 25.8006 144.381 27.2054C145.099 28.6102 145.453 30.3145 145.442 32.3183V48.2942H139.529V33.2331C139.529 31.556 139.094 30.2438 138.222 29.2963C137.362 28.3489 136.169 27.8752 134.645 27.8752C133.61 27.8752 132.69 28.1038 131.884 28.5612C131.089 29.0077 130.463 29.6557 130.006 30.5051C129.559 31.3546 129.336 32.3837 129.336 33.5925ZM159.178 48.7842C156.728 48.7842 154.605 48.2452 152.808 47.1671C151.011 46.0889 149.617 44.5806 148.626 42.6422C147.646 40.7038 147.156 38.4386 147.156 35.8467C147.156 33.2549 147.646 30.9843 148.626 29.035C149.617 27.0856 151.011 25.5719 152.808 24.4938C154.605 23.4156 156.728 22.8766 159.178 22.8766C161.629 22.8766 163.752 23.4156 165.549 24.4938C167.346 25.5719 168.735 27.0856 169.715 29.035C170.706 30.9843 171.201 33.2549 171.201 35.8467C171.201 38.4386 170.706 40.7038 169.715 42.6422C168.735 44.5806 167.346 46.0889 165.549 47.1671C163.752 48.2452 161.629 48.7842 159.178 48.7842ZM159.211 44.047C160.54 44.047 161.65 43.6822 162.543 42.9526C163.436 42.212 164.101 41.221 164.536 39.9796C164.983 38.7381 165.206 37.355 165.206 35.8304C165.206 34.2949 164.983 32.9064 164.536 31.6649C164.101 30.4126 163.436 29.4161 162.543 28.6756C161.65 27.9351 160.54 27.5648 159.211 27.5648C157.85 27.5648 156.717 27.9351 155.813 28.6756C154.92 29.4161 154.251 30.4126 153.804 31.6649C153.369 32.9064 153.151 34.2949 153.151 35.8304C153.151 37.355 153.369 38.7381 153.804 39.9796C154.251 41.221 154.92 42.212 155.813 42.9526C156.717 43.6822 157.85 44.047 159.211 44.047ZM183.945 48.7842C181.494 48.7842 179.371 48.2452 177.574 47.1671C175.777 46.0889 174.383 44.5806 173.392 42.6422C172.412 40.7038 171.922 38.4386 171.922 35.8467C171.922 33.2549 172.412 30.9843 173.392 29.035C174.383 27.0856 175.777 25.5719 177.574 24.4938C179.371 23.4156 181.494 22.8766 183.945 22.8766C186.395 22.8766 188.519 23.4156 190.315 24.4938C192.112 25.5719 193.501 27.0856 194.481 29.035C195.472 30.9843 195.967 33.2549 195.967 35.8467C195.967 38.4386 195.472 40.7038 194.481 42.6422C193.501 44.5806 192.112 46.0889 190.315 47.1671C188.519 48.2452 186.395 48.7842 183.945 48.7842ZM183.977 44.047C185.306 44.047 186.417 43.6822 187.31 42.9526C188.203 42.212 188.867 41.221 189.303 39.9796C189.749 38.7381 189.972 37.355 189.972 35.8304C189.972 34.2949 189.749 32.9064 189.303 31.6649C188.867 30.4126 188.203 29.4161 187.31 28.6756C186.417 27.9351 185.306 27.5648 183.977 27.5648C182.616 27.5648 181.484 27.9351 180.58 28.6756C179.687 29.4161 179.017 30.4126 178.57 31.6649C178.135 32.9064 177.917 34.2949 177.917 35.8304C177.917 37.355 178.135 38.7381 178.57 39.9796C179.017 41.221 179.687 42.212 180.58 42.9526C181.484 43.6822 182.616 44.047 183.977 44.047ZM233.71 14.8396V48.2942H228.32L212.556 25.5065H212.278V48.2942H206.218V14.8396H211.641L227.388 37.6436H227.682V14.8396H233.71ZM247.94 48.7842C245.425 48.7842 243.252 48.2615 241.423 47.2161C239.604 46.1597 238.205 44.6678 237.224 42.7402C236.244 40.8018 235.754 38.5203 235.754 35.8958C235.754 33.3148 236.244 31.0496 237.224 29.1003C238.215 27.1401 239.598 25.6154 241.374 24.5264C243.149 23.4265 245.234 22.8766 247.63 22.8766C249.176 22.8766 250.636 23.127 252.008 23.628C253.391 24.1181 254.611 24.8804 255.667 25.9149C256.734 26.9495 257.573 28.2672 258.182 29.8681C258.792 31.458 259.097 33.3529 259.097 35.5527V37.3659H238.531V33.3801H253.429C253.418 32.2476 253.173 31.2402 252.694 30.3581C252.215 29.4651 251.545 28.7627 250.685 28.2509C249.835 27.739 248.844 27.4831 247.712 27.4831C246.503 27.4831 245.441 27.7771 244.526 28.3652C243.611 28.9424 242.898 29.7047 242.386 30.6521C241.885 31.5887 241.629 32.6178 241.619 33.7395V37.2189C241.619 38.6782 241.885 39.9306 242.419 40.976C242.953 42.0106 243.699 42.8056 244.657 43.361C245.615 43.9055 246.737 44.1777 248.022 44.1777C248.882 44.1777 249.661 44.0579 250.358 43.8183C251.055 43.5679 251.659 43.203 252.171 42.7239C252.683 42.2447 253.07 41.6512 253.331 40.9433L258.852 41.5641C258.504 43.0234 257.839 44.2975 256.859 45.3865C255.89 46.4646 254.649 47.3032 253.135 47.9021C251.621 48.4902 249.89 48.7842 247.94 48.7842ZM265.923 48.2942L258.834 23.2033H264.862L269.272 40.8453H269.501L274.009 23.2033H279.972L284.48 40.7473H284.725L289.07 23.2033H295.114L288.009 48.2942H281.85L277.146 31.3382H276.803L272.098 48.2942H265.923ZM315.854 29.8354L310.464 30.4234C310.311 29.8789 310.044 29.3671 309.663 28.8879C309.293 28.4088 308.792 28.0222 308.16 27.7281C307.529 27.4341 306.755 27.2871 305.841 27.2871C304.61 27.2871 303.576 27.5539 302.737 28.0875C301.909 28.6211 301.501 29.3127 301.512 30.1621C301.501 30.8917 301.768 31.4852 302.312 31.9426C302.868 32.4 303.782 32.7757 305.057 33.0698L309.336 33.9845C311.71 34.4964 313.475 35.3077 314.629 36.4185C315.794 37.5293 316.382 38.9831 316.393 40.78C316.382 42.3591 315.92 43.753 315.005 44.9618C314.101 46.1597 312.843 47.0963 311.231 47.7715C309.62 48.4467 307.768 48.7842 305.677 48.7842C302.606 48.7842 300.134 48.1417 298.261 46.8567C296.388 45.5608 295.272 43.7584 294.912 41.4497L300.679 40.8943C300.94 42.0269 301.496 42.8818 302.345 43.459C303.194 44.0361 304.3 44.3247 305.661 44.3247C307.066 44.3247 308.193 44.0361 309.042 43.459C309.903 42.8818 310.333 42.1685 310.333 41.319C310.333 40.6003 310.055 40.0068 309.5 39.5385C308.955 39.0702 308.106 38.7109 306.951 38.4604L302.672 37.5619C300.265 37.061 298.484 36.217 297.33 35.03C296.176 33.8321 295.604 32.3183 295.615 30.4888C295.604 28.9424 296.023 27.6029 296.873 26.4703C297.733 25.3269 298.925 24.4448 300.45 23.824C301.986 23.1924 303.755 22.8766 305.759 22.8766C308.699 22.8766 311.013 23.5028 312.701 24.7551C314.4 26.0075 315.451 27.7009 315.854 29.8354Z" fill="white"/>
<g clip-path="url(#clip0_732_15118)">
<path d="M28.5 2.16992C13.6822 2.16992 1.66992 14.1821 1.66992 29H55.3301C55.3301 14.1821 43.3178 2.16992 28.5 2.16992Z" fill="#02D7E9"/>
<path d="M55.3301 29C55.3301 14.1821 43.3179 2.16992 28.5 2.16992V29H55.3301Z" fill="#02D7E9"/>
<path d="M48.6526 8.84738C43.2696 3.46456 36.1126 0.5 28.5 0.5C20.8874 0.5 13.7304 3.46456 8.34738 8.84738C2.96456 14.2304 0 21.3874 0 29H57C57 21.3874 54.0354 14.2304 48.6526 8.84738ZM13.4408 27.3301H3.39462C3.62539 23.8072 4.60039 20.3734 6.2553 17.2549H14.7164C13.9804 20.4001 13.5454 23.8058 13.4408 27.3301ZM8.37789 13.915C11.3026 10.0236 15.3274 7.00457 19.987 5.32396C19.0988 6.4575 18.2717 7.77897 17.5204 9.28145C16.8062 10.7098 16.1794 12.2634 15.6436 13.915H8.37789ZM26.8301 27.3301H16.7819C16.8936 23.7697 17.3614 20.3553 18.1512 17.2549H26.8301V27.3301ZM26.8301 13.915H19.1714C19.5709 12.8081 20.0165 11.7575 20.5078 10.775C22.2846 7.22144 24.5225 4.89089 26.8301 4.12084V13.915ZM30.1699 4.12084C32.4775 4.89089 34.7155 7.22144 36.4922 10.775C36.9834 11.7574 37.4291 12.8081 37.8286 13.915H30.1699V4.12084ZM30.1699 27.3301V17.2549H38.8488C39.6386 20.3553 40.1064 23.7697 40.2181 27.3301H30.1699ZM39.4795 9.28145C38.7283 7.77897 37.9012 6.4575 37.013 5.32396C41.6726 7.00457 45.6974 10.0236 48.6221 13.915H41.3563C40.8205 12.2634 40.1937 10.7098 39.4795 9.28145ZM42.2836 17.2549H50.7447C52.3996 20.3734 53.3746 23.8072 53.6054 27.3301H43.5592C43.4546 23.8058 43.0196 20.4001 42.2836 17.2549Z" fill="url(#paint0_linear_732_15118)"/>
<path d="M28.5 0.5V29H57C57 21.3874 54.0354 14.2304 48.6526 8.84738C43.2696 3.46456 36.1126 0.5 28.5 0.5ZM30.1699 4.12084C32.4775 4.89089 34.7155 7.22144 36.4922 10.775C36.9834 11.7574 37.4291 12.8081 37.8286 13.915H30.1699V4.12084ZM30.1699 27.3301V17.2549H38.8488C39.6386 20.3553 40.1064 23.7697 40.2181 27.3301H30.1699ZM39.4795 9.28145C38.7283 7.77897 37.9012 6.4575 37.013 5.32396C41.6726 7.00457 45.6974 10.0236 48.6221 13.915H41.3563C40.8205 12.2634 40.1937 10.7098 39.4795 9.28145ZM53.6054 27.3301H43.5592C43.4546 23.8058 43.0197 20.4001 42.2836 17.2549H50.7447C52.3996 20.3734 53.3746 23.8072 53.6054 27.3301Z" fill="url(#paint1_linear_732_15118)"/>
<path d="M55.3301 57.5H1.66992C0.74768 57.5 0 56.7523 0 55.8301V29C0 28.0778 0.74768 27.3301 1.66992 27.3301H55.3301C56.2523 27.3301 57 28.0778 57 29V55.8301C57 56.7523 56.2523 57.5 55.3301 57.5Z" fill="#E3F3FF"/>
<path d="M55.3301 27.3301H28.5V57.5H55.3301C56.2523 57.5 57 56.7523 57 55.8301V29C57 28.0778 56.2523 27.3301 55.3301 27.3301Z" fill="url(#paint2_linear_732_15118)" fill-opacity="0.2"/>
<path d="M3.33984 30.6699H53.6602V54.1602H3.33984V30.6699Z" fill="url(#paint3_linear_732_15118)" fill-opacity="0.4"/>
<path d="M28.5 30.6699H53.6602V54.1602H28.5V30.6699Z" fill="url(#paint4_linear_732_15118)"/>
<path d="M16.275 37.3361C16.2677 36.572 15.6462 35.9579 14.8838 35.9579H14.8701C14.1016 35.9654 13.4845 36.5944 13.492 37.3629L13.5466 43.0148L9.10118 36.5775C8.93261 36.3332 8.69037 36.1493 8.40983 36.0525C8.12929 35.9557 7.82516 35.9511 7.54183 36.0394C7.25851 36.1277 7.01085 36.3043 6.83501 36.5434C6.65917 36.7825 6.56437 37.0715 6.56445 37.3683V47.3691C6.56445 48.1376 7.18756 48.7607 7.95606 48.7607C8.72466 48.7607 9.34766 48.1376 9.34766 47.3691V41.8324L13.5734 47.9515C13.9769 48.5342 14.6519 48.7814 15.2934 48.5811C15.9467 48.377 16.3688 47.7687 16.3688 47.0315V47.0181L16.275 37.3361ZM23.9311 38.7412C24.6996 38.7412 25.3227 38.118 25.3227 37.3495C25.3227 36.5811 24.6996 35.9579 23.9311 35.9579H19.7093C18.9407 35.9579 18.3177 36.5811 18.3177 37.3495V47.3691C18.3177 48.1376 18.9407 48.7607 19.7093 48.7607H23.9311C24.6996 48.7607 25.3227 48.1376 25.3227 47.3691C25.3227 46.6006 24.6996 45.9775 23.9311 45.9775H21.1009V43.7509H23.6198C24.3883 43.7509 25.0114 43.1279 25.0114 42.3593C25.0114 41.5907 24.3883 40.9677 23.6198 40.9677H21.1009V38.7412H23.9311ZM39.4314 36.0031C38.6775 35.8535 37.9448 36.3425 37.7949 37.0964L36.7413 42.3903L35.0622 36.9399C34.8359 36.2054 34.057 35.7932 33.3226 36.0196C32.828 36.172 32.4806 36.5754 32.3749 37.0466L30.7205 42.3915L29.6698 37.0796C29.5206 36.3256 28.7883 35.8353 28.0346 35.9844C27.2807 36.1335 26.7903 36.8657 26.9395 37.6196L28.8915 47.4886C28.9048 47.5553 28.9228 47.6209 28.9455 47.685C29.0576 47.9996 29.2642 48.2719 29.5371 48.4645C29.81 48.6571 30.1357 48.7606 30.4697 48.7608H30.4811C30.8235 48.7582 31.1563 48.6471 31.4316 48.4434C31.707 48.2398 31.9106 47.9541 32.0133 47.6274L33.7317 42.0755L35.4424 47.6285C35.5459 47.9567 35.7512 48.2434 36.0286 48.447C36.3061 48.6506 36.6412 48.7605 36.9853 48.7608H36.9962C37.6843 48.7561 38.2954 48.3155 38.517 47.664C38.5366 47.6063 38.5524 47.5473 38.5644 47.4875L40.5243 37.6398C40.6746 36.8859 40.1852 36.1531 39.4314 36.0031Z" fill="#1F1F1F"/>
<path d="M39.4316 36.0031C38.6777 35.8535 37.9451 36.3425 37.7951 37.0964L36.7415 42.3903L35.0625 36.9399C34.8361 36.2054 34.0573 35.7932 33.3228 36.0196C32.8282 36.172 32.4809 36.5754 32.3751 37.0466L30.7208 42.3915L29.6701 37.0796C29.5522 36.4834 29.0693 36.0537 28.5 35.9729V45.5077L28.8919 47.4886C28.9051 47.5553 28.9232 47.6209 28.9459 47.685C29.058 47.9996 29.2646 48.2719 29.5375 48.4645C29.8103 48.6571 30.1361 48.7606 30.4701 48.7608H30.4814C30.8239 48.7582 31.1567 48.6471 31.432 48.4434C31.7073 48.2398 31.9109 47.9541 32.0136 47.6274L33.7321 42.0755L35.4428 47.6285C35.5462 47.9567 35.7516 48.2434 36.029 48.447C36.3064 48.6506 36.6415 48.7605 36.9857 48.7608H36.9966C37.6847 48.7561 38.2958 48.3155 38.5173 47.664C38.5369 47.6063 38.5528 47.5473 38.5647 47.4875L40.5247 37.6398C40.6748 36.8859 40.1854 36.1531 39.4316 36.0031ZM47.5685 41.1327C46.3618 40.6876 45.2367 40.2033 44.8665 40.0416C44.6628 39.8667 44.6703 39.6291 44.6848 39.5288C44.7063 39.3784 44.8177 39.0101 45.384 38.8396C46.7351 38.4324 48.0018 39.4422 48.0143 39.4523L48.0054 39.445L48.0066 39.4435C48.2572 39.6554 48.5748 39.7716 48.903 39.7713C49.6716 39.7713 50.2946 39.1482 50.2946 38.3797C50.2946 37.9338 50.0841 37.5379 49.758 37.2832C49.4358 37.0258 47.2308 35.3761 44.5813 36.1746C43.1457 36.6071 42.1298 37.7408 41.93 39.1332C41.7419 40.4432 42.3098 41.7034 43.4121 42.4221C43.4736 42.4622 43.5381 42.4974 43.6051 42.5272C43.6632 42.5531 45.0471 43.1692 46.6053 43.7439C46.9225 43.8609 47.948 44.2938 47.8302 44.9529C47.7403 45.4565 47.1123 45.9775 46.217 45.9775C45.2597 45.9775 44.34 45.5932 43.7565 44.9495C43.2403 44.38 42.3605 44.3366 41.7909 44.8527C41.2214 45.3688 41.178 46.2489 41.6942 46.8183C42.8128 48.0527 44.4612 48.7607 46.217 48.7607C48.396 48.7607 50.2268 47.3651 50.5701 45.4422C50.8294 43.9897 50.177 42.0949 47.5685 41.1327Z" fill="#1F1F1F"/>
</g>
<defs>
<linearGradient id="paint0_linear_732_15118" x1="13.9052" y1="19.608" x2="56.7908" y2="17.4933" gradientUnits="userSpaceOnUse">
<stop stop-color="#0F77EB"/>
<stop offset="1" stop-color="#12C0FF"/>
</linearGradient>
<linearGradient id="paint1_linear_732_15118" x1="35.4526" y1="19.608" x2="56.9345" y2="19.0783" gradientUnits="userSpaceOnUse">
<stop stop-color="#0F77EB"/>
<stop offset="1" stop-color="#12C0FF"/>
</linearGradient>
<linearGradient id="paint2_linear_732_15118" x1="35.4526" y1="47.5576" x2="56.9359" y2="47.0573" gradientUnits="userSpaceOnUse">
<stop stop-color="#0F77EB"/>
<stop offset="1" stop-color="#12C0FF"/>
</linearGradient>
<linearGradient id="paint3_linear_732_15118" x1="28.5" y1="30.6699" x2="28.5" y2="54.1602" gradientUnits="userSpaceOnUse">
<stop stop-color="#FEB36D"/>
<stop offset="1" stop-color="#FD800E"/>
</linearGradient>
<linearGradient id="paint4_linear_732_15118" x1="41.0801" y1="30.6699" x2="41.0801" y2="54.1602" gradientUnits="userSpaceOnUse">
<stop stop-color="#FEB36D"/>
<stop offset="1" stop-color="#FD800E"/>
</linearGradient>
<clipPath id="clip0_732_15118">
<rect width="57" height="57" fill="white" transform="translate(0 0.5)"/>
</clipPath>
</defs>
</svg>
