<svg width="260" height="39" viewBox="0 0 260 39" fill="none" xmlns="http://www.w3.org/2000/svg">
<path d="M10.8534 5.50901L0.700284 25.4438C-0.909357 28.6012 0.349464 32.4808 3.51716 34.0905C6.68485 35.7001 10.5542 34.4413 12.1638 31.2839L22.3169 11.3491C23.9266 8.18142 22.6678 4.3121 19.5104 2.70245C16.3324 1.09281 12.463 2.34132 10.8534 5.50901Z" fill="white"/>
<path d="M31.3039 5.50901L21.1507 25.4438C19.5411 28.6115 20.7999 32.4808 23.9573 34.0905C27.125 35.7001 30.9943 34.4413 32.604 31.2839L42.7571 11.3491C44.3667 8.18142 43.1079 4.3121 39.9505 2.70245C36.7828 1.09281 32.9135 2.34132 31.3039 5.50901Z" fill="white"/>
<path d="M48.3093 37.0002C52.8283 37.0002 56.4916 33.3368 56.4916 28.8178C56.4916 24.2989 52.8283 20.6355 48.3093 20.6355C43.7903 20.6355 40.127 24.2989 40.127 28.8178C40.127 33.3368 43.7903 37.0002 48.3093 37.0002Z" fill="white"/>
<path d="M69.1889 7.72727H75.2571L81.6662 23.3636H81.9389L88.348 7.72727H94.4162V31H89.6435V15.8523H89.4503L83.4276 30.8864H80.1776L74.1549 15.7955H73.9617V31H69.1889V7.72727ZM100.882 31H95.6088L103.643 7.72727H109.984L118.007 31H112.734L106.904 13.0455H106.722L100.882 31ZM100.552 21.8523H113.007V25.6932H100.552V21.8523ZM123.219 31H117.946L125.98 7.72727H132.321L140.344 31H135.071L129.242 13.0455H129.06L123.219 31ZM122.89 21.8523H135.344V25.6932H122.89V21.8523ZM161.011 7.72727V31H156.761L146.636 16.3523H146.466V31H141.545V7.72727H145.863L155.909 22.3636H156.113V7.72727H161.011ZM188.749 7.72727V31H184.499L174.374 16.3523H174.203V31H169.283V7.72727H173.601L183.646 22.3636H183.851V7.72727H188.749ZM191.214 31V7.72727H206.896V11.7841H196.134V17.3295H206.089V21.3864H196.134V26.9432H206.941V31H191.214ZM214.446 31L207.787 7.72727H213.162L217.015 23.8977H217.208L221.458 7.72727H226.06L230.299 23.9318H230.503L234.355 7.72727H239.73L233.071 31H228.276L223.844 15.7841H223.662L219.242 31H214.446ZM253.17 14.4205C253.079 13.5038 252.689 12.7917 252 12.2841C251.31 11.7765 250.375 11.5227 249.193 11.5227C248.39 11.5227 247.712 11.6364 247.159 11.8636C246.606 12.0833 246.182 12.3902 245.886 12.7841C245.598 13.178 245.454 13.625 245.454 14.125C245.439 14.5417 245.526 14.9053 245.716 15.2159C245.913 15.5265 246.182 15.7955 246.522 16.0227C246.863 16.2424 247.257 16.4356 247.704 16.6023C248.151 16.7614 248.629 16.8977 249.136 17.0114L251.227 17.5114C252.242 17.7386 253.174 18.0417 254.022 18.4205C254.871 18.7992 255.606 19.2652 256.227 19.8182C256.848 20.3712 257.329 21.0227 257.67 21.7727C258.019 22.5227 258.197 23.3826 258.204 24.3523C258.197 25.7765 257.833 27.0114 257.113 28.0568C256.401 29.0947 255.371 29.9015 254.022 30.4773C252.682 31.0455 251.064 31.3295 249.17 31.3295C247.291 31.3295 245.655 31.0417 244.261 30.4659C242.875 29.8902 241.791 29.0379 241.011 27.9091C240.238 26.7727 239.833 25.3674 239.795 23.6932H244.557C244.61 24.4735 244.833 25.125 245.227 25.6477C245.629 26.1629 246.163 26.553 246.829 26.8182C247.504 27.0758 248.265 27.2045 249.113 27.2045C249.947 27.2045 250.67 27.0833 251.284 26.8409C251.905 26.5985 252.386 26.2614 252.727 25.8295C253.068 25.3977 253.238 24.9015 253.238 24.3409C253.238 23.8182 253.083 23.3788 252.772 23.0227C252.469 22.6667 252.022 22.3636 251.432 22.1136C250.848 21.8636 250.132 21.6364 249.284 21.4318L246.75 20.7955C244.788 20.3182 243.238 19.572 242.102 18.5568C240.966 17.5417 240.401 16.1742 240.409 14.4545C240.401 13.0455 240.776 11.8144 241.534 10.7614C242.299 9.70833 243.348 8.88636 244.682 8.29545C246.015 7.70454 247.53 7.40909 249.227 7.40909C250.954 7.40909 252.462 7.70454 253.75 8.29545C255.045 8.88636 256.053 9.70833 256.772 10.7614C257.492 11.8144 257.863 13.0341 257.886 14.4205H253.17Z" fill="white"/>
</svg>
