<svg width="222" height="200" viewBox="0 0 222 200" fill="none" xmlns="http://www.w3.org/2000/svg">
<g filter="url(#filter0_d_264_4493)">
<path fill-rule="evenodd" clip-rule="evenodd" d="M112.068 176.981C170.272 176.981 217.731 174.587 217.731 171.644C217.731 168.702 170.272 166.308 112.068 166.308C53.8712 166.308 6.4043 168.702 6.4043 171.644C6.39637 174.587 53.8712 176.981 112.068 176.981Z" fill="white" fill-opacity="0.65" shape-rendering="crispEdges"/>
</g>
<path opacity="0.1" fill-rule="evenodd" clip-rule="evenodd" d="M32.5703 59.9268C45.264 37.5128 81.7512 22.2661 124.122 23.8756C176.03 25.9212 217.092 52.5215 215.784 83.3637C215.181 98.4201 204.565 111.716 187.843 121.12C175.15 143.534 138.663 158.78 96.2922 157.171C44.3839 155.125 3.32181 128.525 4.63002 97.6827C5.22466 82.6343 15.8489 69.3301 32.5703 59.9268Z" fill="url(#paint0_linear_264_4493)"/>
<path fill-rule="evenodd" clip-rule="evenodd" d="M171.622 59.2531C175.229 60.6327 183.261 60.1332 188.113 56.8111C189.604 55.8042 194.741 52.3077 192.64 49.3741C190.547 48.8112 186.686 51.7051 186.385 47.6932C186.829 45.7111 191.229 49.2076 192.688 47.8835C194.408 45.83 195.28 40.8192 193.068 38.6547C191.736 38.393 185.972 43.4594 184.838 42.1036C184.093 40.5575 189.009 39.6299 191.086 38.393C193.052 36.9262 191.213 33.3504 190.317 31.067C188.842 33.842 187.106 35.8162 186.242 35.1344C184.355 33.2394 189.929 32.732 190.317 31.067C189.017 27.7529 190 26.3733 188.272 25.2554C185.79 25.3822 184.64 25.5091 182.69 26.8411C178.519 29.8381 182.785 36.7201 181.049 36.9183C179.566 36.3871 180.502 30.4565 179.621 30.0759C177.941 28.9897 174.492 31.2335 174.42 32.9857C174.317 35.5784 178.178 41.2711 176.997 42.0481C175.514 43.0471 173.913 34.5556 170.86 34.1671C168.323 34.0878 165.794 36.7439 164.414 38.7974C161.996 41.2077 173.136 45.9569 172.652 47.0827C169.996 48.8984 162.995 39.3365 161.1 44.0857C160.307 46.7259 161.37 49.271 162.559 51.7051C164.407 55.4553 169.029 58.3334 171.622 59.2531ZM172.771 39.2017C173.176 39.3365 173.39 39.8122 173.239 40.2642C173.088 40.7161 172.636 40.9777 172.224 40.8429C171.82 40.7082 171.606 40.2324 171.756 39.7805C171.907 39.3286 172.359 39.0669 172.771 39.2017ZM181.033 45.1799C179.899 45.8221 181.707 46.4405 182.389 46.2185C183.277 46.1154 184.521 45.7507 184.751 44.7755C184.006 43.9272 182.484 44.4108 181.033 45.1799ZM179.82 50.5317C180.43 48.7239 184.196 49.826 184.458 50.8488C184.41 51.8161 179.74 51.9033 179.82 50.5317ZM170.71 50.0004C170.036 49.7547 170.424 50.7378 170.757 50.936C171.114 51.269 171.725 51.6654 172.208 51.4117C172.303 50.7933 171.55 50.3255 170.71 50.0004ZM179.368 36.0937C180.042 36.5219 180.2 37.616 180.137 38.3772C179.598 38.6467 179.257 37.8222 178.995 37.3227C178.678 36.7914 178.813 35.9748 179.368 36.0937Z" fill="#0EBAA0"/>
<path d="M164.121 69.1239C164.121 69.0525 164.145 68.9891 164.192 68.9336C173.873 56.8188 180.89 43.911 185.655 29.4652C185.711 29.2987 185.893 29.2035 186.059 29.259C186.226 29.3145 186.321 29.4969 186.266 29.6634C183.752 37.2748 180.525 44.6405 176.664 51.5621C173.247 57.6909 169.219 63.669 164.692 69.338C164.581 69.4807 164.375 69.4965 164.24 69.3855C164.161 69.3142 164.121 69.219 164.121 69.1239Z" fill="#16888C"/>
<path d="M181.635 40.1134C181.643 39.9469 181.77 39.8042 181.945 39.7962C184.989 39.6694 187.392 38.2898 189.08 35.713C189.176 35.5624 189.382 35.5227 189.524 35.6179C189.675 35.713 189.715 35.9192 189.62 36.0619C188.755 37.378 187.693 38.4167 186.472 39.1461C185.156 39.931 183.641 40.3671 181.969 40.4384C181.794 40.4464 181.643 40.3116 181.635 40.1292C181.635 40.1292 181.635 40.1213 181.635 40.1134ZM175.118 53.0766C175.118 53.029 175.134 52.9814 175.158 52.9339C175.237 52.7753 175.435 52.7119 175.594 52.7991C180.367 55.2728 185.362 54.8764 190.04 51.6494C190.19 51.5464 190.389 51.586 190.492 51.7287C190.595 51.8794 190.555 52.0776 190.412 52.1807C185.528 55.5503 180.304 55.9626 175.301 53.3699C175.174 53.3144 175.11 53.1955 175.118 53.0766ZM168.886 38.4642C168.886 38.3374 168.974 38.2105 169.1 38.1629C169.267 38.1074 169.449 38.1947 169.513 38.3612C171.003 42.6426 173.667 45.1401 178.694 46.9874C178.861 47.0509 178.948 47.2332 178.884 47.3997C178.821 47.5662 178.639 47.6534 178.472 47.59C175.951 46.6624 174.095 45.6237 172.629 44.3314C170.956 42.8487 169.735 40.9697 168.902 38.5673C168.886 38.5435 168.878 38.5039 168.886 38.4642ZM163.241 46.1867C163.241 46.0598 163.328 45.9329 163.455 45.8933C163.622 45.8299 163.804 45.9171 163.868 46.0915C166.492 53.4254 170.393 55.3124 173.501 56.137C173.675 56.1846 173.778 56.359 173.731 56.5334C173.683 56.7079 173.509 56.8109 173.334 56.7634C170.076 55.8992 165.977 53.9329 163.257 46.3135C163.249 46.2659 163.241 46.2263 163.241 46.1867Z" fill="#16888C"/>
<path fill-rule="evenodd" clip-rule="evenodd" d="M176.308 66.6665C178.084 70.0916 184.434 75.047 190.27 75.7685C192.054 76.0064 198.214 76.7913 198.587 73.2076C197.39 71.4078 192.577 71.0034 195.011 67.8003C196.652 66.611 197.635 72.1451 199.61 72.1214C202.258 71.7249 206.238 68.5535 206.016 65.4693C205.191 64.391 197.524 64.3514 197.564 62.5833C198.032 60.9341 202.321 63.503 204.708 63.9549C207.15 64.1531 208.149 60.2681 208.989 57.9609C206.048 59.063 203.439 59.3881 203.241 58.2939C203.082 55.6299 207.594 58.9441 208.989 57.9609C210.218 54.623 211.859 54.2424 211.312 52.2603C209.362 50.7063 208.426 50.0403 206.079 49.739C200.965 49.2157 199.594 57.1998 198.175 56.1929C197.413 54.8133 202.044 50.9917 201.639 50.1196C201.108 48.2009 197.033 47.5904 195.82 48.8589C194.02 50.7301 193.148 57.5486 191.737 57.3504C189.968 57.1126 194.408 49.6994 192.371 47.3842C190.523 45.6399 186.876 45.9571 184.482 46.5755C181.073 46.7816 186.266 57.7231 185.148 58.2384C181.953 57.842 183.055 46.0364 178.488 48.3436C176.149 49.7945 175.253 52.403 174.532 55.0115C173.414 59.0313 174.968 64.2483 176.308 66.6665ZM190.452 52.4109C190.666 52.7836 190.508 53.2751 190.095 53.5209C189.683 53.7588 189.168 53.6478 188.962 53.2751C188.74 52.9025 188.906 52.4109 189.318 52.1651C189.731 51.9352 190.238 52.0383 190.452 52.4109ZM192.672 62.3613C191.396 62.0838 192.347 63.7488 192.997 64.0421C193.727 64.5496 194.908 65.1046 195.725 64.5337C195.733 63.3999 194.274 62.7498 192.672 62.3613ZM188.216 65.5644C189.873 64.6209 191.959 67.943 191.483 68.8786C190.801 69.5763 187.249 66.5396 188.216 65.5644ZM181.754 59.1264C181.406 58.5001 181.049 59.4911 181.168 59.8638C181.215 60.3554 181.414 61.0451 181.945 61.1799C182.413 60.7835 182.159 59.9351 181.754 59.1264ZM197.453 54.4565C197.675 55.2335 197.065 56.1453 196.51 56.6686C195.931 56.5179 196.216 55.6696 196.351 55.1304C196.478 54.5279 197.112 54.0125 197.453 54.4565Z" fill="#24D1B3"/>
<path d="M164.058 69.2909C164.058 69.1402 164.169 69.0054 164.328 68.9817C179.606 66.3335 193.425 61.3227 206.571 53.6716C206.722 53.5844 206.92 53.6319 207.015 53.7905C207.102 53.9412 207.055 54.1394 206.896 54.2345C199.966 58.2702 192.664 61.6398 185.188 64.2562C178.559 66.5793 171.582 68.3791 164.439 69.6239C164.264 69.6556 164.098 69.5367 164.066 69.3622C164.058 69.3305 164.05 69.3067 164.058 69.2909Z" fill="#16888C"/>
<path d="M196.39 59.1816C196.39 59.1102 196.414 59.0468 196.462 58.9833C196.573 58.8486 196.779 58.8248 196.914 58.9358C199.276 60.8545 201.988 61.4174 204.977 60.6166C205.151 60.5691 205.326 60.6721 205.373 60.8466C205.421 61.021 205.318 61.1954 205.143 61.243C201.948 62.1072 199.046 61.5046 196.509 59.4432C196.43 59.3798 196.39 59.2767 196.39 59.1816ZM182.92 64.5571C182.92 64.4303 182.999 64.3113 183.126 64.2638C183.292 64.2003 183.483 64.2796 183.546 64.4461C185.481 69.4649 189.484 72.4857 195.122 73.1755C195.296 73.1993 195.423 73.3578 195.399 73.5323C195.375 73.7067 195.217 73.8336 195.042 73.8098C189.151 73.0883 184.973 69.9327 182.943 64.6761C182.928 64.6443 182.92 64.6047 182.92 64.5571ZM186.852 54.4086C186.892 52.7673 187.264 51.1103 187.97 49.3818C188.041 49.2153 188.224 49.1361 188.39 49.2074C188.557 49.2788 188.636 49.4611 188.565 49.6276C186.844 53.8218 187.177 57.4531 189.714 62.1706C189.802 62.3292 189.738 62.5274 189.58 62.6067C189.421 62.6939 189.223 62.6305 189.144 62.4719C187.875 60.1092 187.169 58.1033 186.931 56.1608C186.868 55.582 186.836 55.0032 186.852 54.4086ZM177.005 58.4759C177.052 56.5096 177.512 54.1945 178.622 51.4274C178.686 51.2609 178.876 51.1816 179.043 51.2451C179.209 51.3085 179.288 51.4988 179.225 51.6653C176.323 58.8882 177.996 62.8842 179.78 65.5641C179.875 65.7147 179.835 65.9129 179.693 66.0081C179.542 66.1032 179.344 66.0636 179.249 65.9208C178.059 64.1528 176.926 61.8376 177.005 58.4759Z" fill="#16888C"/>
<path fill-rule="evenodd" clip-rule="evenodd" d="M150.77 62.7812C152.61 59.3877 153.157 51.3561 150.493 46.1153C149.684 44.5058 146.885 38.9558 143.714 40.6604C142.889 42.6584 145.252 46.8685 141.24 46.6465C139.329 45.9488 143.373 42.04 142.247 40.4226C140.431 38.4484 135.579 36.934 133.145 38.8448C132.717 40.1292 136.982 46.5038 135.492 47.4552C133.866 47.9944 133.581 42.9994 132.63 40.7794C131.432 38.6387 127.65 39.9944 125.264 40.5891C127.825 42.4127 129.561 44.3869 128.768 45.1639C126.651 46.7892 126.865 41.1996 125.264 40.5891C121.807 41.4454 120.57 40.2957 119.238 41.8577C119.048 44.3393 119.016 45.4889 120.079 47.5979C122.513 52.1252 129.886 48.7872 129.855 50.5315C129.141 51.9269 123.377 50.2382 122.885 51.0548C121.585 52.5771 123.369 56.2956 125.097 56.5889C127.658 57.0329 133.795 53.9329 134.421 55.2094C135.214 56.8109 126.588 57.2867 125.811 60.2678C125.407 62.7732 127.706 65.6275 129.561 67.2608C131.631 69.9644 137.799 59.5384 138.846 60.1727C140.304 63.0428 129.91 68.7434 134.374 71.2409C136.887 72.3747 139.551 71.6453 142.12 70.789C146.068 69.4412 149.525 65.2311 150.77 62.7812ZM131.036 59.0389C131.218 58.6504 131.718 58.5077 132.146 58.7138C132.574 58.9199 132.772 59.4036 132.582 59.7921C132.392 60.1806 131.892 60.3233 131.464 60.1172C131.044 59.911 130.854 59.4274 131.036 59.0389ZM138.037 51.6177C138.528 52.8308 139.369 51.1103 139.242 50.4047C139.258 49.5167 139.052 48.2243 138.116 47.8754C137.181 48.5097 137.466 50.0875 138.037 51.6177ZM143.19 53.5206C141.478 52.6802 143.064 49.0885 144.102 48.9617C145.062 49.1361 144.538 53.7822 143.19 53.5206ZM141.478 62.4799C141.145 63.1221 142.168 62.8604 142.413 62.5512C142.794 62.242 143.262 61.687 143.071 61.1796C142.477 61.0052 141.914 61.687 141.478 62.4799ZM128.816 52.0934C129.331 51.475 130.433 51.4671 131.179 51.6257C131.377 52.1965 130.513 52.4264 129.989 52.6167C129.418 52.8704 128.626 52.6247 128.816 52.0934Z" fill="#0EBAA0"/>
<path d="M159.586 71.495C159.523 71.4871 159.451 71.4553 159.404 71.3998C148.653 60.2285 136.76 51.5943 123.059 44.9898C122.901 44.9105 122.829 44.7202 122.909 44.5616C122.988 44.4031 123.178 44.3317 123.337 44.411C130.56 47.8916 137.442 52.0462 143.8 56.7716C149.438 60.9579 154.837 65.7309 159.872 70.9558C159.998 71.0827 159.99 71.2888 159.864 71.4157C159.784 71.4871 159.681 71.5108 159.586 71.495Z" fill="#16888C"/>
<path d="M133.097 50.3654C132.93 50.3416 132.811 50.1909 132.827 50.0165C133.097 46.9799 132.042 44.4269 129.703 42.4051C129.569 42.2861 129.553 42.0879 129.672 41.9531C129.791 41.8184 129.989 41.8025 130.124 41.9214C131.321 42.9521 132.209 44.1335 132.772 45.4417C133.382 46.8451 133.612 48.407 133.47 50.0799C133.454 50.2544 133.295 50.3891 133.121 50.3733C133.113 50.3733 133.105 50.3733 133.097 50.3654ZM145.101 58.5159C145.053 58.508 145.006 58.4921 144.966 58.4604C144.823 58.3574 144.784 58.1591 144.887 58.0085C147.963 53.6002 148.217 48.5894 145.624 43.5309C145.545 43.3724 145.608 43.1741 145.767 43.0949C145.925 43.0156 146.124 43.079 146.203 43.2376C148.906 48.518 148.637 53.7588 145.418 58.3732C145.339 58.4842 145.22 58.5318 145.101 58.5159ZM129.807 62.7974C129.68 62.7736 129.569 62.6784 129.537 62.5436C129.497 62.3692 129.616 62.1948 129.791 62.1631C134.231 61.2354 137.053 58.9282 139.535 54.179C139.614 54.0204 139.812 53.957 139.971 54.0442C140.13 54.1235 140.193 54.3217 140.106 54.4803C138.861 56.8589 137.592 58.5635 136.118 59.8479C134.437 61.3147 132.407 62.2741 129.918 62.7974C129.886 62.7974 129.846 62.7974 129.807 62.7974ZM136.728 69.3939C136.601 69.3701 136.49 69.275 136.459 69.1402C136.419 68.9658 136.53 68.7914 136.704 68.7596C144.316 67.1105 146.694 63.4871 147.915 60.5139C147.987 60.3474 148.169 60.2681 148.336 60.3395C148.502 60.4109 148.581 60.5932 148.51 60.7597C147.226 63.8836 144.744 67.6814 136.839 69.3939C136.807 69.3939 136.768 69.3939 136.728 69.3939Z" fill="#16888C"/>
<path fill-rule="evenodd" clip-rule="evenodd" d="M158.73 59.1022C162.361 57.7861 168.094 52.133 169.568 46.4403C170.036 44.7039 171.614 38.6941 168.109 37.8616C166.167 38.813 165.144 43.5305 162.29 40.7C161.323 38.9161 166.936 38.6624 167.166 36.704C167.118 34.0242 164.494 29.6714 161.402 29.489C160.228 30.1629 159.19 37.7664 157.446 37.4889C155.876 36.815 158.976 32.8904 159.737 30.5832C160.252 28.1887 156.526 26.6982 154.353 25.5564C155.059 28.6169 155.051 31.2492 153.941 31.3047C151.277 31.1144 155.154 27.0787 154.353 25.5564C151.206 23.9073 151.039 22.2264 149.002 22.5119C147.21 24.2403 146.425 25.0807 145.822 27.3721C144.641 32.375 152.379 34.7694 151.198 36.0539C149.731 36.6327 146.544 31.5346 145.632 31.8279C143.658 32.1054 142.524 36.0697 143.626 37.4414C145.251 39.4632 151.896 41.2233 151.515 42.5949C151.055 44.3154 144.276 38.9557 141.715 40.6683C139.749 42.2778 139.582 45.9329 139.892 48.3907C139.654 51.7921 151.174 48.0657 151.547 49.247C150.738 52.3629 139.178 49.7386 140.867 54.5671C142.001 57.0804 144.474 58.3014 146.964 59.3559C150.786 60.9734 156.161 60.1171 158.73 59.1022ZM146.433 43.2213C146.829 43.0548 147.297 43.2768 147.487 43.7129C147.67 44.1569 147.495 44.6484 147.099 44.807C146.702 44.9735 146.235 44.7515 146.044 44.3154C145.87 43.8794 146.036 43.3878 146.433 43.2213ZM156.589 42.3095C156.153 43.5384 157.929 42.8169 158.294 42.2064C158.896 41.5484 159.602 40.4463 159.134 39.5662C158.016 39.4156 157.184 40.7793 156.589 42.3095ZM159.19 47.1459C158.468 45.3779 162.036 43.7446 162.9 44.3392C163.503 45.1083 160.03 48.2322 159.19 47.1459ZM151.967 52.7197C151.301 52.9814 152.236 53.465 152.617 53.4016C153.109 53.4174 153.822 53.3144 154.02 52.8069C153.687 52.2837 152.823 52.4184 151.967 52.7197ZM149.374 36.5454C150.175 36.4265 151 37.148 151.444 37.7664C151.214 38.3214 150.413 37.925 149.898 37.7268C149.319 37.5286 148.883 36.8229 149.374 36.5454Z" fill="#24D1B3"/>
<path d="M159.737 71.5899C159.587 71.5661 159.468 71.4393 159.468 71.2807C158.826 55.7883 155.654 41.4376 149.779 27.404C149.708 27.2375 149.787 27.0472 149.954 26.9838C150.12 26.9124 150.31 26.9917 150.374 27.1582C153.474 34.5476 155.868 42.2304 157.494 49.9846C158.937 56.8586 159.817 64.0102 160.118 71.2569C160.126 71.4314 159.983 71.582 159.809 71.5899C159.777 71.5899 159.761 71.5899 159.737 71.5899Z" fill="#16888C"/>
<path d="M153.926 38.2106C153.854 38.2027 153.791 38.171 153.743 38.1155C153.624 37.9886 153.624 37.7825 153.759 37.6556C155.971 35.5625 156.883 32.9461 156.471 29.8856C156.447 29.7112 156.574 29.5447 156.748 29.5209C156.923 29.4972 157.089 29.624 157.113 29.7984C157.557 33.0809 156.574 35.8797 154.203 38.1234C154.116 38.2027 154.021 38.2265 153.926 38.2106ZM157.502 52.268C157.375 52.2521 157.272 52.157 157.24 52.0222C157.2 51.8478 157.303 51.6734 157.478 51.6337C162.703 50.3651 166.215 46.7973 167.634 41.2949C167.682 41.1204 167.856 41.0174 168.031 41.0649C168.205 41.1125 168.308 41.2869 168.261 41.4614C166.778 47.2096 163.107 50.9439 157.628 52.268C157.589 52.268 157.541 52.2759 157.502 52.268ZM147.956 47.051C146.338 46.7973 144.737 46.2185 143.119 45.2909C142.961 45.2037 142.913 45.0054 143 44.8469C143.087 44.6883 143.286 44.6407 143.444 44.7279C147.377 46.9797 151.024 47.1224 156.035 45.2195C156.201 45.1561 156.392 45.2433 156.455 45.4098C156.518 45.5763 156.431 45.7666 156.265 45.83C153.751 46.7814 151.674 47.2175 149.724 47.2016C149.121 47.1858 148.534 47.1382 147.956 47.051ZM150.707 57.3423C148.764 57.041 146.528 56.2799 143.928 54.821C143.769 54.7338 143.714 54.5356 143.801 54.3849C143.888 54.2264 144.086 54.1709 144.237 54.2581C151.024 58.0717 155.202 56.93 158.088 55.5108C158.247 55.4315 158.445 55.4949 158.524 55.6614C158.604 55.82 158.54 56.0182 158.374 56.0975C156.471 57.0331 154.021 57.8576 150.707 57.3423Z" fill="#16888C"/>
<path d="M183.131 53.7666H16.9307C15.2738 53.7666 13.9307 55.1097 13.9307 56.7666V166.619C13.9307 168.276 15.2738 169.619 16.9307 169.619H183.131C184.788 169.619 186.131 168.276 186.131 166.619V56.7666C186.131 55.1097 184.788 53.7666 183.131 53.7666Z" fill="url(#paint1_linear_264_4493)"/>
<path d="M184.165 55.5664H13.9307V169.619H184.165V55.5664Z" fill="#BBDFFF"/>
<path fill-rule="evenodd" clip-rule="evenodd" d="M13.9307 55.5664H161.125C173.794 55.5664 184.157 65.929 184.157 78.5989V163.435C184.157 165.575 183.864 167.645 183.309 169.619H13.9307V55.5664Z" fill="white"/>
<path d="M176.578 95.3442H21.5107V97.588H176.578V95.3442Z" fill="#8DCCFF"/>
<path d="M176.578 70.6226H21.5107V71.7484H176.578V70.6226Z" fill="#84B2FE"/>
<path d="M38.9688 75.8955H21.8906V92.9736H38.9688V75.8955Z" fill="#8DCCFF"/>
<path d="M176.197 75.2451H159.119V92.3233H176.197V75.2451Z" fill="#8DCCFF"/>
<path fill-rule="evenodd" clip-rule="evenodd" d="M183.756 74.6807C176.919 74.6807 170.534 73.1515 163.235 74.6807C166.608 67.6883 164.567 60.8589 162.5 55.5C173.433 56.2715 182.95 64.776 183.756 74.6807Z" fill="#ECECEC"/>
<path d="M176.577 102.733H139.749V103.97H176.577V102.733Z" fill="#ECECEC"/>
<path d="M69.8512 102.733H21.5107V103.97H69.8512V102.733Z" fill="#ECECEC"/>
<path d="M132.328 102.733H77.9219V103.97H132.328V102.733Z" fill="#ECECEC"/>
<path d="M176.577 105.318H139.749V106.555H176.577V105.318Z" fill="#ECECEC"/>
<path d="M69.8512 105.318H21.5107V106.555H69.8512V105.318Z" fill="#ECECEC"/>
<path d="M132.328 105.318H77.9219V106.555H132.328V105.318Z" fill="#ECECEC"/>
<path d="M176.577 107.681H139.749V108.918H176.577V107.681Z" fill="#ECECEC"/>
<path d="M69.8512 107.681H21.5107V108.918H69.8512V107.681Z" fill="#ECECEC"/>
<path d="M132.328 107.681H77.9219V108.918H132.328V107.681Z" fill="#ECECEC"/>
<path d="M176.577 110.376H139.749V111.613H176.577V110.376Z" fill="#ECECEC"/>
<path d="M69.8512 110.376H21.5107V111.613H69.8512V110.376Z" fill="#ECECEC"/>
<path d="M132.328 110.376H77.9219V111.613H132.328V110.376Z" fill="#ECECEC"/>
<path d="M176.577 112.589H139.749V113.826H176.577V112.589Z" fill="#ECECEC"/>
<path d="M69.8512 112.589H21.5107V113.826H69.8512V112.589Z" fill="#ECECEC"/>
<path d="M132.328 112.589H77.9219V113.826H132.328V112.589Z" fill="#ECECEC"/>
<path d="M176.577 115.205H139.749V116.442H176.577V115.205Z" fill="#ECECEC"/>
<path d="M69.8512 115.205H21.5107V116.442H69.8512V115.205Z" fill="#ECECEC"/>
<path d="M132.328 115.205H77.9219V116.442H132.328V115.205Z" fill="#ECECEC"/>
<path d="M69.8512 117.671H21.5107V118.908H69.8512V117.671Z" fill="#ECECEC"/>
<path d="M69.8512 120.256H21.5107V121.493H69.8512V120.256Z" fill="#ECECEC"/>
<path d="M69.8512 122.618H21.5107V123.855H69.8512V122.618Z" fill="#ECECEC"/>
<path d="M69.8512 125.322H21.5107V126.559H69.8512V125.322Z" fill="#ECECEC"/>
<path d="M69.8512 127.534H21.5107V128.771H69.8512V127.534Z" fill="#ECECEC"/>
<path d="M69.8512 130.143H21.5107V131.379H69.8512V130.143Z" fill="#ECECEC"/>
<path d="M176.577 117.893H139.749V119.13H176.577V117.893Z" fill="#ECECEC"/>
<path d="M132.328 117.893H77.9219V119.13H132.328V117.893Z" fill="#ECECEC"/>
<path d="M176.577 120.478H139.749V121.714H176.577V120.478Z" fill="#ECECEC"/>
<path d="M132.328 120.478H77.9219V121.714H132.328V120.478Z" fill="#ECECEC"/>
<path d="M176.577 122.84H139.749V124.077H176.577V122.84Z" fill="#ECECEC"/>
<path d="M132.328 122.84H77.9219V124.077H132.328V122.84Z" fill="#ECECEC"/>
<path d="M176.577 125.544H139.749V126.781H176.577V125.544Z" fill="#ECECEC"/>
<path d="M132.328 125.544H77.9219V126.781H132.328V125.544Z" fill="#ECECEC"/>
<path d="M176.577 127.756H139.749V128.993H176.577V127.756Z" fill="#ECECEC"/>
<path d="M132.328 127.756H77.9219V128.993H132.328V127.756Z" fill="#ECECEC"/>
<path d="M176.577 130.373H139.749V131.609H176.577V130.373Z" fill="#ECECEC"/>
<path d="M132.328 130.373H77.9219V131.609H132.328V130.373Z" fill="#ECECEC"/>
<path d="M176.577 132.957H139.749V134.194H176.577V132.957Z" fill="#ECECEC"/>
<path d="M132.328 132.957H77.9219V134.194H132.328V132.957Z" fill="#ECECEC"/>
<path d="M176.577 135.542H139.749V136.779H176.577V135.542Z" fill="#ECECEC"/>
<path d="M132.328 135.542H77.9219V136.779H132.328V135.542Z" fill="#ECECEC"/>
<path d="M176.577 137.896H139.749V139.133H176.577V137.896Z" fill="#ECECEC"/>
<path d="M132.328 137.896H77.9219V139.133H132.328V137.896Z" fill="#ECECEC"/>
<path d="M176.831 144.708H77.9219V145.944H176.831V144.708Z" fill="#5CB8FF"/>
<path d="M176.831 147.292H77.9219V148.529H176.831V147.292Z" fill="#ECECEC"/>
<path d="M176.831 149.647H77.9219V150.884H176.831V149.647Z" fill="#ECECEC"/>
<path d="M176.831 152.351H77.9219V153.587H176.831V152.351Z" fill="#ECECEC"/>
<path d="M176.831 154.562H77.9219V155.799H176.831V154.562Z" fill="#ECECEC"/>
<path d="M176.831 157.179H77.9219V158.416H176.831V157.179Z" fill="#ECECEC"/>
<path d="M176.831 159.875H77.9219V161.111H176.831V159.875Z" fill="#ECECEC"/>
<path d="M176.831 162.459H77.9219V163.696H176.831V162.459Z" fill="#ECECEC"/>
<path d="M176.831 164.814H77.9219V166.051H176.831V164.814Z" fill="#ECECEC"/>
<path d="M69.8512 134.614H21.5107V166.051H69.8512V134.614Z" fill="#8DCCFF"/>
<path fill-rule="evenodd" clip-rule="evenodd" d="M46.4219 142.162L48.2216 146.896L56.9986 139.062L54.1681 148.711L59.4802 147.562L55.5476 151.811L61.4227 156.029L53.1929 155.466L56.3009 161.928L47.3099 157.163L44.0036 162.293L41.8629 156.545L33.0146 159.669L37.3516 153.35L29.9463 144.581L38.8897 147.998L38.8263 138.38L44.2098 147.221L46.4219 142.162Z" fill="white"/>
<path d="M38.7631 147.601L30.343 144.208C30.2716 144.176 30.2399 144.097 30.2637 144.025C30.2954 143.954 30.3747 143.922 30.446 143.946L38.4697 147.181L38.3746 143.526C38.3746 143.447 38.4301 143.383 38.5094 143.383C38.5887 143.383 38.6442 143.447 38.6521 143.518L38.7631 147.601ZM48.3646 146.475L46.9057 142.836C46.874 142.765 46.9137 142.686 46.985 142.654C47.0564 142.622 47.1357 142.662 47.1674 142.733L48.4756 146L51.4012 143.336C51.4567 143.28 51.544 143.288 51.5995 143.344C51.655 143.399 51.647 143.486 51.5915 143.542L48.3646 146.475ZM55.976 144.39C55.9602 144.39 55.9522 144.39 55.9364 144.382C55.865 144.358 55.8175 144.287 55.8412 144.208L57.1574 139.57C57.1812 139.498 57.2525 139.451 57.3318 139.474C57.4032 139.498 57.4507 139.57 57.427 139.649L56.1108 144.287C56.095 144.351 56.0395 144.39 55.976 144.39ZM54.874 148.243C54.8105 148.243 54.755 148.196 54.7392 148.132C54.7233 148.053 54.7709 147.982 54.8422 147.966L57.982 147.244C58.0612 147.229 58.1326 147.276 58.1485 147.348C58.1643 147.427 58.1167 147.498 58.0454 147.514L54.9057 148.236C54.8977 148.236 54.8819 148.243 54.874 148.243ZM57.4666 152.921C57.4349 152.921 57.4111 152.913 57.3873 152.898L55.8175 151.74L58.3942 148.997C58.4497 148.941 58.537 148.941 58.5925 148.989C58.648 149.044 58.648 149.131 58.6004 149.187L56.2456 151.7L57.5617 152.676C57.6252 152.723 57.641 152.81 57.5935 152.874C57.5538 152.898 57.5062 152.921 57.4666 152.921ZM46.1605 160.065C46.1367 160.065 46.1129 160.057 46.0891 160.041C46.0257 160.002 46.0019 159.914 46.0415 159.851L47.4132 157.607L49.99 158.955C50.0613 158.995 50.0851 159.074 50.0455 159.145C50.0058 159.217 49.9265 159.24 49.8552 159.201L47.5162 157.972L46.2794 159.994C46.2556 160.041 46.208 160.065 46.1605 160.065ZM33.1417 158.86C33.118 158.86 33.0862 158.852 33.0625 158.836C32.999 158.796 32.9832 158.709 33.0228 158.638L36.5193 153.476L34.4817 151.074C34.4341 151.018 34.442 150.923 34.4975 150.876C34.553 150.828 34.6482 150.836 34.6957 150.892L36.8682 153.46L33.2527 158.796C33.229 158.836 33.1893 158.86 33.1417 158.86ZM55.6192 159.55C55.5717 159.55 55.5162 159.518 55.4924 159.47L53.6212 155.799L61.3278 156.299C61.4071 156.307 61.4626 156.37 61.4547 156.45C61.4467 156.529 61.3833 156.584 61.304 156.576L54.089 156.109L55.7382 159.343C55.7699 159.415 55.7461 159.494 55.6747 159.534C55.6589 159.542 55.643 159.55 55.6192 159.55Z" fill="white"/>
<path fill-rule="evenodd" clip-rule="evenodd" d="M181.192 135.05H206.389C207 135.05 207.491 135.542 207.491 136.152V169.254C207.491 169.857 207 170.356 206.389 170.356H181.192C180.582 170.356 180.082 169.857 180.082 169.254V136.152C180.082 135.542 180.582 135.05 181.192 135.05Z" fill="#0F77EB"/>
<path fill-rule="evenodd" clip-rule="evenodd" d="M181.089 135.05H203.987C204.534 135.05 204.986 135.502 204.986 136.057V169.357C204.986 169.912 204.534 170.364 203.987 170.364H181.089C180.542 170.364 180.082 169.912 180.082 169.357V136.057C180.082 135.502 180.542 135.05 181.089 135.05Z" fill="#BBDFFF"/>
<path d="M203.297 138.349H181.771V146.547H203.297V138.349Z" fill="#5CB8FF"/>
<path d="M203.297 138.349H181.771V139.625H203.297V138.349Z" fill="#0F77EB"/>
<path fill-rule="evenodd" clip-rule="evenodd" d="M190.88 142.353H195.645C195.994 142.353 196.28 142.638 196.28 142.987C196.28 143.336 195.994 143.613 195.645 143.613H190.88C190.532 143.613 190.246 143.336 190.246 142.987C190.246 142.638 190.532 142.353 190.88 142.353Z" fill="#E3F3FF"/>
<path d="M203.297 148.727H181.771V156.933H203.297V148.727Z" fill="#5CB8FF"/>
<path d="M203.297 148.727H181.771V150.011H203.297V148.727Z" fill="#0F77EB"/>
<path fill-rule="evenodd" clip-rule="evenodd" d="M190.88 152.739H195.645C195.994 152.739 196.28 153.024 196.28 153.373C196.28 153.722 195.994 153.999 195.645 153.999H190.88C190.532 153.999 190.246 153.722 190.246 153.373C190.246 153.024 190.532 152.739 190.88 152.739Z" fill="#E3F3FF"/>
<path d="M203.297 159.09H181.771V167.296H203.297V159.09Z" fill="#5CB8FF"/>
<path d="M203.297 159.09H181.771V160.374H203.297V159.09Z" fill="#0F77EB"/>
<path fill-rule="evenodd" clip-rule="evenodd" d="M190.88 163.102H195.645C195.994 163.102 196.28 163.387 196.28 163.736C196.28 164.077 195.994 164.362 195.645 164.362H190.88C190.532 164.362 190.246 164.077 190.246 163.736C190.246 163.387 190.532 163.102 190.88 163.102Z" fill="#E3F3FF"/>
<path fill-rule="evenodd" clip-rule="evenodd" d="M105.165 150.114C106.037 148.148 109.098 151.153 109.351 149.797C109.153 147.823 106.529 143.002 111.183 141.195C119.777 138.047 111.167 149.242 112.364 151.938C113.07 153.135 116.685 151.09 116.265 153.674C115.393 156.846 110.636 157.29 107.821 159.097C106.933 156.092 104.269 152.358 105.165 150.114Z" fill="#9999FE"/>
<path d="M106.481 163.847C106.465 163.847 106.457 163.847 106.441 163.839C106.354 163.815 106.298 163.728 106.322 163.641C106.837 161.611 107.638 159.121 108.415 156.719C109.263 154.095 110.136 151.383 110.683 149.155C111.285 146.682 111.388 145.128 111.016 144.406C110.976 144.327 111.008 144.224 111.087 144.184C111.166 144.144 111.269 144.176 111.309 144.255C112.229 146.008 110.532 151.256 108.732 156.814C107.955 159.217 107.154 161.698 106.647 163.712C106.623 163.791 106.552 163.847 106.481 163.847Z" fill="#CCCCFE"/>
<path d="M108.732 156.442C108.708 156.442 108.677 156.434 108.653 156.426C108.574 156.386 108.542 156.283 108.582 156.204C109.367 154.705 110.849 154.467 112.863 154.309C112.95 154.301 113.03 154.372 113.037 154.459C113.045 154.547 112.974 154.626 112.887 154.634C110.683 154.816 109.517 155.118 108.867 156.354C108.843 156.402 108.788 156.442 108.732 156.442ZM109.271 154.753C109.263 154.753 109.248 154.753 109.24 154.753C109.152 154.737 109.089 154.65 109.105 154.563C109.351 153.231 107.908 151.296 107.147 150.979C107.059 150.947 107.02 150.852 107.059 150.765C107.091 150.678 107.186 150.638 107.273 150.678C108.153 151.042 109.715 153.096 109.43 154.626C109.422 154.697 109.351 154.753 109.271 154.753Z" fill="#CCCCFE"/>
<path fill-rule="evenodd" clip-rule="evenodd" d="M97.8387 151.28C97.6405 148.917 102.192 150.178 101.716 148.735C100.471 146.927 95.3492 143.684 98.8932 139.451C105.506 131.815 103.175 147.236 105.775 149.187C107.091 149.964 109.494 146.055 110.469 148.783C111.325 152.311 106.965 155.284 105.212 158.527C102.747 156.116 98.1717 153.936 97.8387 151.28Z" fill="#CCCCFE"/>
<path d="M106.362 163.855C106.291 163.855 106.219 163.807 106.204 163.736C105.617 161.5 105.062 158.67 104.523 155.926C103.936 152.945 103.333 149.853 102.667 147.419C101.922 144.707 101.201 143.146 100.44 142.646C100.36 142.598 100.344 142.495 100.392 142.416C100.44 142.337 100.543 142.321 100.622 142.369C101.454 142.924 102.208 144.493 102.985 147.324C103.659 149.774 104.261 152.866 104.848 155.855C105.387 158.59 105.934 161.413 106.521 163.641C106.545 163.728 106.489 163.815 106.402 163.839C106.386 163.847 106.378 163.855 106.362 163.855Z" fill="#9999FE"/>
<path d="M104.57 155.498C104.483 155.498 104.412 155.427 104.404 155.339C104.356 153.484 105.664 152.469 107.512 151.232C107.591 151.185 107.686 151.201 107.742 151.28C107.789 151.351 107.773 151.454 107.694 151.51C105.656 152.874 104.689 153.793 104.729 155.339C104.737 155.419 104.665 155.498 104.57 155.498C104.578 155.498 104.578 155.498 104.57 155.498ZM104.19 153.579C104.118 153.579 104.055 153.532 104.031 153.468C103.555 152.041 101.113 150.939 100.209 151.05C100.122 151.058 100.035 150.995 100.027 150.907C100.019 150.82 100.083 150.733 100.17 150.725C100.693 150.662 101.605 150.931 102.429 151.391C103.008 151.708 104.015 152.39 104.34 153.373C104.372 153.46 104.324 153.556 104.237 153.579C104.229 153.579 104.213 153.579 104.19 153.579Z" fill="#9999FE"/>
<path fill-rule="evenodd" clip-rule="evenodd" d="M108.281 169.373L109.764 170.102H106.561H103.357L104.84 169.373H108.281Z" fill="#BE96F8"/>
<path fill-rule="evenodd" clip-rule="evenodd" d="M113.347 163.324C113.062 166.82 110.136 169.571 106.56 169.571C102.992 169.571 100.067 166.82 99.7812 163.324H113.347Z" fill="#DFCFFD"/>
<path fill-rule="evenodd" clip-rule="evenodd" d="M105.022 168.731C102.723 168.398 100.859 166.392 100.526 163.815L101.05 163.783C101.375 166.178 102.968 168.096 105.022 168.723V168.731Z" fill="white"/>
<path d="M162.147 166.86C161.148 167.32 159.546 168.12 156.343 168.319C155.804 168.549 155.978 169.603 156.311 169.532H162.845H163.225H169.758C170.091 169.603 170.266 168.549 169.727 168.319C166.531 168.12 164.922 167.32 163.923 166.86V138.579H162.147V166.86Z" fill="#5CB8FF"/>
<path d="M170.703 145.548H155.955C155.218 145.548 154.6 146.452 154.6 147.562V148.022C154.6 149.132 155.218 150.035 155.955 150.035H170.703C171.448 150.035 172.058 149.132 172.058 148.022V147.562C172.05 146.452 171.448 145.548 170.703 145.548Z" fill="#F7855A"/>
<path d="M146.504 131.594C145.862 130.928 145.585 130.959 144.958 130.309C143.904 130.182 142.612 130.262 141.509 130.999L141.946 132.87C143.325 132.291 144.808 132.101 146.504 131.594ZM139.258 157.996C140.059 158.733 140.851 159.478 141.652 160.208C140.257 162.182 140.851 163.506 140.154 164.632C138.949 165.1 137.942 164.426 137.529 163.807C135.531 164.442 133.129 163.157 130.972 162.238C130.481 160.382 135.619 162.571 137.973 161.112L139.258 157.996ZM149.771 163.72C150.778 164.125 151.785 164.537 152.8 164.933C152.205 167.272 153.236 168.303 152.974 169.595C152.031 170.467 150.857 170.19 150.247 169.77C148.598 171.062 145.894 170.721 143.555 170.642C142.429 169.08 148.011 169.286 149.7 167.09L149.771 163.72Z" fill="#FFAA81"/>
<path d="M162.964 123.784L159.087 119.431L155.289 128.398L143.634 130.246L144.165 132.513C148.708 132.109 153.251 131.697 157.802 131.3C158.928 130.809 161.243 126.289 162.964 123.784Z" fill="#EE7005"/>
<path d="M150.271 121.714L150.913 120.192L149.62 119.471L148.598 120.747L150.271 121.714Z" fill="#FFAA81"/>
<path d="M146.536 118.757L146.552 119.193C147.297 119.162 148.201 119.035 148.415 119.661C148.51 120.295 148.582 120.977 148.471 121.667C148.368 122.27 147.519 122.436 146.687 122.452L146.703 122.864C147.638 122.888 148.724 122.753 148.835 121.897C148.923 121.025 148.843 120.161 148.74 119.36C148.502 118.448 147.321 118.805 146.536 118.757Z" fill="#2C7EFE"/>
<path d="M147.218 117.98L147.464 123.276C147.48 123.546 147.297 123.776 147.067 123.776L143.896 123.934C143.666 123.942 143.468 123.728 143.444 123.474L143.198 118.17C144.102 118.043 144.189 118.598 145.236 118.551C146.275 118.487 146.52 117.98 147.218 117.98Z" fill="#2C7EFE"/>
<path d="M145.188 117.481C146.298 117.433 147.202 117.631 147.218 117.909C147.234 118.202 146.338 118.488 145.236 118.535C144.126 118.591 143.206 118.4 143.19 118.107C143.183 117.814 144.071 117.544 145.188 117.481Z" fill="#0643A3"/>
<path d="M145.204 118.115C145.91 118.083 146.512 118.155 146.798 118.274C146.433 118.408 145.862 118.503 145.236 118.535C144.602 118.567 144.031 118.511 143.658 118.416C143.92 118.266 144.514 118.147 145.204 118.115Z" fill="#060352"/>
<path d="M149.517 119.273C148.907 119.011 148.233 118.805 147.718 119.296C147.353 119.661 147.432 121.818 148.051 121.794C148.51 121.77 148.843 121.929 149.343 121.564C150.112 121.017 149.811 120.28 149.7 119.487C149.692 119.431 149.549 119.296 149.517 119.273Z" fill="#FFAA81"/>
<path d="M164.502 116.854L161.347 117.338C160.133 118.027 159.166 118.59 158.754 120.287L159.325 138.126H168.355C168.197 132.132 168.038 126.122 167.872 120.128C167.436 118.543 166.072 117.369 164.502 116.854Z" fill="#FD7F0B"/>
<path d="M163.688 120.644C164.019 119.951 164.772 119.565 165.528 119.7C166.681 119.906 167.306 121.194 166.804 122.252C165.299 125.426 163.668 129.373 162.631 129.564C162.068 130.206 154.599 124.577 150.286 121.976L150.77 120.042L161.434 125.362L163.688 120.644Z" fill="#EE7005"/>
<path d="M168.007 124.529L166.516 122.864C165.327 125.417 164.098 128.256 163.155 129.223L168.3 135.915L168.007 124.529ZM163.987 120.034L159.404 124.355L161.434 125.362L163.987 120.034Z" fill="#FD7F0B"/>
<path d="M145.125 138.388C146.822 136.129 160.625 138.214 168.363 138.127C168.459 152.842 155.147 145.397 149.327 145.421L142.715 161.159L138.267 160.113C140.518 152.517 143.111 140.886 145.125 138.388Z" fill="#1F1F1F"/>
<path d="M148.764 145.413C150.461 143.685 154.258 146.618 160.546 147.348L153.037 149.56L153.196 165.996L149.002 166.146C148.685 158.733 146.584 147.451 148.764 145.413Z" fill="#1F1F1F"/>
<path d="M144.53 110.091C143.674 110.876 143.595 112.145 144.395 112.969C145.934 114.539 145.68 114.872 144.832 116.593C144.546 117.179 145.482 115.958 145.656 115.689C145.807 115.451 146.029 115.181 145.965 114.412C145.878 113.524 145.426 113.485 144.625 112.256C144.062 111.415 144.205 110.948 144.53 110.091Z" fill="#84B2FE"/>
<path fill-rule="evenodd" clip-rule="evenodd" d="M160.609 115.197L163.456 113.929L164.288 117.1C163.305 118.646 161.981 118.559 161.117 118.281L160.609 115.197Z" fill="#FF9866"/>
<path fill-rule="evenodd" clip-rule="evenodd" d="M164.081 106.825C161.616 107.118 159.174 107.396 156.708 107.689C156.232 109.283 157.588 115.277 159.174 116.498C161.164 118.004 163.844 116.133 164.295 114.206C164.795 112.422 164.874 108.212 164.081 106.825Z" fill="#FFAA81"/>
<path fill-rule="evenodd" clip-rule="evenodd" d="M159.245 108.426C158.294 108.061 157.557 109.362 156.629 108.957C155.051 107.364 154.449 105.604 157.057 104.089C157.089 104.517 157.374 104.692 157.572 104.739C157.937 104.438 158.223 103.915 158.968 103.899C158.571 104.43 158.571 104.731 158.904 105.08C159.951 105.271 161.235 104.089 162.734 104.367C164.121 104.787 164.732 105.477 165.279 106.412C166.548 108.941 165.247 110.955 164.708 112.002C164.462 112.271 164.351 112.398 163.36 111.629C164.034 110.765 164.296 109.703 163.4 109.259C162.115 108.569 162.789 110.321 161.949 110.67C161.775 109.917 159.919 108.616 159.245 108.426Z" fill="#060352"/>
<path fill-rule="evenodd" clip-rule="evenodd" d="M132.034 132.283H150.12C150.342 132.283 150.54 132.481 150.54 132.703V133.338C150.54 133.56 150.342 133.758 150.12 133.758H132.034C131.789 133.758 131.614 133.56 131.614 133.338V132.703C131.614 132.481 131.797 132.283 132.034 132.283Z" fill="#2C7EFE"/>
<path fill-rule="evenodd" clip-rule="evenodd" d="M121.514 120.287C124.289 120.287 127.079 120.287 129.854 120.287C132.629 120.287 135.42 120.287 138.195 120.287C138.655 120.287 139.139 120.684 139.274 121.143C139.781 123.102 140.288 125.084 140.796 127.042C141.327 129.001 141.827 130.959 142.334 132.917C142.445 133.377 142.16 133.75 141.7 133.75C138.925 133.75 136.173 133.75 133.406 133.75C130.631 133.75 127.864 133.75 125.089 133.75C124.629 133.75 124.162 133.377 124.035 132.917C123.504 130.959 123.004 129.001 122.473 127.042C121.942 125.084 121.442 123.102 120.911 121.143C120.768 120.684 121.054 120.287 121.514 120.287Z" fill="#84B2FE"/>
<path fill-rule="evenodd" clip-rule="evenodd" d="M131.615 125.346C132.233 125.346 132.233 125.433 132.519 125.591C132.075 125.877 131.884 126.408 132.059 127.042C132.209 127.661 132.693 128.208 133.288 128.493C133.066 128.628 133.113 128.715 132.495 128.715C131.876 128.715 130.6 127.97 130.362 127.042C130.124 126.099 130.98 125.346 131.615 125.346Z" fill="white"/>
<path d="M120.53 135.352H119.087V170.737H120.53V135.352Z" fill="#DEAD73"/>
<path d="M175.063 135.352H173.62V170.737H175.063V135.352Z" fill="#DEAD73"/>
<path d="M179.55 133.734H114.6V136.795H179.55V133.734Z" fill="#FFCDAD"/>
<path fill-rule="evenodd" clip-rule="evenodd" d="M200.887 98.7375C205.414 98.7375 209.109 95.0586 209.109 90.5155C209.109 85.9883 205.414 82.3174 200.887 82.3174C196.36 82.3174 192.665 85.9962 192.665 90.5155C192.665 95.0586 196.368 98.7375 200.887 98.7375Z" fill="white"/>
<path d="M208.641 87.9863C208.562 87.9863 208.49 87.9387 208.467 87.8595C207.967 86.4799 207.111 85.2589 205.993 84.3312C205.914 84.2678 205.906 84.1489 205.969 84.0617C206.032 83.9824 206.151 83.9745 206.239 84.0379C207.404 85.0131 208.3 86.2896 208.823 87.7326C208.855 87.8277 208.807 87.9387 208.712 87.9784C208.689 87.9784 208.665 87.9863 208.641 87.9863Z" fill="#8183F1"/>
<path d="M200.887 98.9197C198.635 98.9197 196.526 98.0475 194.94 96.4618C193.355 94.8761 192.482 92.7592 192.482 90.5154C192.482 85.893 196.256 82.127 200.895 82.127C202.314 82.127 203.67 82.4679 204.914 83.1497C205.01 83.1973 205.041 83.3162 204.994 83.4035C204.946 83.4986 204.827 83.5303 204.74 83.4827C203.551 82.8326 202.258 82.5075 200.903 82.5075C196.47 82.5075 192.871 86.0992 192.871 90.5154C192.871 94.9475 196.47 98.547 200.903 98.547C205.335 98.547 208.934 94.9475 208.934 90.5154C208.934 89.9049 208.863 89.3261 208.728 88.8028C208.704 88.6997 208.76 88.5967 208.863 88.5729C208.966 88.5491 209.069 88.6046 209.093 88.7077C209.235 89.2706 209.315 89.8732 209.315 90.5154C209.299 95.1536 205.525 98.9197 200.887 98.9197Z" fill="#8183F1"/>
<path fill-rule="evenodd" clip-rule="evenodd" d="M198.405 92.3389L194.877 90.4678C194.71 90.3647 194.663 90.555 194.726 90.658L197.914 94.1387C198.254 94.44 198.508 94.44 198.889 94.1387C201.608 91.7205 204.304 89.2943 207.023 86.8761C207.111 86.7889 207.023 86.6224 206.873 86.7096L198.405 92.3389Z" fill="#0643A3"/>
<path fill-rule="evenodd" clip-rule="evenodd" d="M97.6478 48.5099C103.198 48.5099 107.741 43.9985 107.741 38.4168C107.741 32.8668 103.206 28.3555 97.6478 28.3555C92.0978 28.3555 87.5547 32.8668 87.5547 38.4168C87.5547 43.9985 92.0898 48.5099 97.6478 48.5099Z" fill="white"/>
<path d="M107.162 35.3087C107.067 35.3087 106.98 35.2532 106.948 35.1581C106.33 33.4613 105.283 31.9628 103.912 30.8211C103.816 30.7418 103.801 30.5912 103.88 30.4961C103.959 30.4009 104.11 30.3851 104.205 30.4643C105.632 31.6536 106.734 33.2235 107.376 34.9995C107.424 35.1184 107.361 35.2532 107.242 35.2928C107.218 35.3087 107.194 35.3087 107.162 35.3087Z" fill="url(#paint2_linear_264_4493)"/>
<path d="M97.6482 48.7399C94.889 48.7399 92.2964 47.6695 90.346 45.7191C88.3956 43.7687 87.3252 41.176 87.3252 38.4169C87.3252 32.74 91.9555 28.1177 97.6482 28.1177C99.3925 28.1177 101.05 28.5379 102.58 29.3704C102.691 29.4338 102.73 29.5686 102.675 29.6875C102.611 29.7985 102.477 29.8382 102.358 29.7827C100.899 28.9898 99.3132 28.5855 97.6482 28.5855C92.2092 28.5855 87.793 32.9937 87.793 38.4169C87.793 43.8559 92.2171 48.2721 97.6482 48.2721C103.087 48.2721 107.503 43.848 107.503 38.4169C107.503 37.6716 107.416 36.958 107.25 36.3079C107.218 36.181 107.289 36.0542 107.416 36.0225C107.543 35.9907 107.67 36.0621 107.702 36.189C107.876 36.8787 107.971 37.624 107.971 38.409C107.971 44.1096 103.341 48.7399 97.6482 48.7399Z" fill="url(#paint3_linear_264_4493)"/>
<path fill-rule="evenodd" clip-rule="evenodd" d="M94.5957 40.6604L90.2668 38.3691C90.0606 38.2422 90.0051 38.4722 90.0844 38.6069L93.9932 42.8804C94.4134 43.2452 94.7226 43.2452 95.1904 42.8804C98.5283 39.9072 101.842 36.934 105.18 33.9608C105.283 33.8577 105.18 33.6516 104.998 33.7547L94.5957 40.6604Z" fill="url(#paint4_linear_264_4493)"/>
<path d="M48.2521 87V76.8182H52.3288C53.0779 76.8182 53.7027 76.9292 54.2031 77.1513C54.7036 77.3733 55.0798 77.6816 55.3317 78.076C55.5836 78.4671 55.7095 78.9179 55.7095 79.4283C55.7095 79.826 55.63 80.1757 55.4709 80.4773C55.3118 80.7756 55.093 81.0208 54.8146 81.2131C54.5395 81.402 54.2247 81.5362 53.87 81.6158V81.7152C54.2578 81.7318 54.6207 81.8411 54.9588 82.0433C55.3002 82.2455 55.5769 82.5289 55.7891 82.8935C56.0012 83.2547 56.1072 83.6856 56.1072 84.1861C56.1072 84.7263 55.973 85.2086 55.7045 85.6328C55.4394 86.0537 55.0466 86.3868 54.5263 86.6321C54.0059 86.8774 53.3646 87 52.6023 87H48.2521ZM50.4048 85.2401H52.1598C52.7597 85.2401 53.1972 85.1257 53.4723 84.897C53.7474 84.665 53.8849 84.3568 53.8849 83.9723C53.8849 83.6906 53.817 83.442 53.6811 83.2266C53.5452 83.0111 53.3513 82.8421 53.0994 82.7195C52.8509 82.5968 52.5542 82.5355 52.2095 82.5355H50.4048V85.2401ZM50.4048 81.0788H52.0007C52.2957 81.0788 52.5575 81.0275 52.7862 80.9247C53.0182 80.8187 53.2005 80.6695 53.3331 80.4773C53.469 80.285 53.5369 80.0547 53.5369 79.7862C53.5369 79.4183 53.406 79.1217 53.1442 78.8963C52.8857 78.6709 52.5178 78.5582 52.0405 78.5582H50.4048V81.0788ZM57.4682 87V79.3636H59.5215V80.696H59.601C59.7402 80.2221 59.9739 79.8641 60.302 79.6222C60.6301 79.3769 61.008 79.2543 61.4355 79.2543C61.5416 79.2543 61.656 79.2609 61.7786 79.2741C61.9012 79.2874 62.0089 79.3056 62.1017 79.3288V81.2081C62.0023 81.1783 61.8648 81.1518 61.6891 81.1286C61.5134 81.1054 61.3527 81.0938 61.2069 81.0938C60.8953 81.0938 60.6169 81.1617 60.3716 81.2976C60.1297 81.4302 59.9374 81.6158 59.7949 81.8544C59.6557 82.093 59.5861 82.3681 59.5861 82.6797V87H57.4682ZM66.3214 87.1491C65.5359 87.1491 64.8597 86.9901 64.293 86.6719C63.7295 86.3504 63.2953 85.8963 62.9904 85.3097C62.6855 84.7197 62.533 84.022 62.533 83.2166C62.533 82.4311 62.6855 81.7417 62.9904 81.1484C63.2953 80.5552 63.7246 80.0928 64.2781 79.7614C64.8349 79.4299 65.4878 79.2642 66.2369 79.2642C66.7406 79.2642 67.2096 79.3454 67.6438 79.5078C68.0813 79.6669 68.4625 79.9072 68.7873 80.2287C69.1154 80.5502 69.3706 80.9545 69.5529 81.4418C69.7352 81.9257 69.8263 82.4924 69.8263 83.142V83.7237H63.3782V82.4112H67.8327C67.8327 82.1063 67.7665 81.8362 67.6339 81.6009C67.5013 81.3655 67.3174 81.1816 67.082 81.049C66.85 80.9131 66.5799 80.8452 66.2717 80.8452C65.9502 80.8452 65.6651 80.9197 65.4165 81.0689C65.1713 81.2147 64.979 81.4119 64.8398 81.6605C64.7006 81.9058 64.6294 82.1792 64.6261 82.4808V83.7287C64.6261 84.1065 64.6957 84.433 64.8349 84.7081C64.9774 84.9832 65.1779 85.1953 65.4364 85.3445C65.695 85.4936 66.0015 85.5682 66.3562 85.5682C66.5915 85.5682 66.8069 85.535 67.0025 85.4688C67.198 85.4025 67.3654 85.303 67.5046 85.1705C67.6438 85.0379 67.7499 84.8755 67.8228 84.6832L69.7816 84.8125C69.6822 85.2831 69.4783 85.6941 69.1701 86.0455C68.8652 86.3935 68.4708 86.6652 67.9869 86.8608C67.5063 87.053 66.9511 87.1491 66.3214 87.1491ZM73.386 87.1442C72.8988 87.1442 72.4646 87.0597 72.0835 86.8906C71.7023 86.7183 71.4007 86.4647 71.1786 86.13C70.9599 85.7919 70.8505 85.371 70.8505 84.8672C70.8505 84.4429 70.9284 84.0866 71.0842 83.7983C71.2399 83.5099 71.4521 83.2779 71.7205 83.1023C71.989 82.9266 72.2939 82.794 72.6353 82.7045C72.98 82.6151 73.3413 82.5521 73.7191 82.5156C74.1632 82.4692 74.5212 82.4261 74.793 82.3864C75.0647 82.3433 75.262 82.2803 75.3846 82.1974C75.5072 82.1146 75.5685 81.992 75.5685 81.8295V81.7997C75.5685 81.4848 75.4691 81.2412 75.2702 81.0689C75.0747 80.8965 74.7963 80.8104 74.435 80.8104C74.0539 80.8104 73.7506 80.8949 73.5252 81.0639C73.2998 81.2296 73.1507 81.4384 73.0778 81.6903L71.119 81.5312C71.2184 81.0672 71.4139 80.6662 71.7056 80.3281C71.9973 79.9867 72.3735 79.7249 72.8342 79.5426C73.2982 79.357 73.8351 79.2642 74.445 79.2642C74.8692 79.2642 75.2752 79.3139 75.663 79.4134C76.0541 79.5128 76.4005 79.6669 76.7021 79.8757C77.007 80.0845 77.2473 80.353 77.4229 80.6811C77.5986 81.0059 77.6864 81.3954 77.6864 81.8494V87H75.6779V85.9411H75.6183C75.4956 86.1797 75.3316 86.3902 75.1261 86.5724C74.9206 86.7514 74.6737 86.8923 74.3853 86.995C74.0969 87.0945 73.7638 87.1442 73.386 87.1442ZM73.9925 85.6825C74.3041 85.6825 74.5792 85.6212 74.8178 85.4986C75.0565 85.3726 75.2437 85.2036 75.3796 84.9915C75.5155 84.7794 75.5835 84.5391 75.5835 84.2706V83.4602C75.5172 83.5033 75.426 83.5431 75.31 83.5795C75.1973 83.6127 75.0697 83.6442 74.9272 83.674C74.7847 83.7005 74.6422 83.7254 74.4996 83.7486C74.3571 83.7685 74.2279 83.7867 74.1119 83.8033C73.8633 83.8397 73.6462 83.8977 73.4606 83.9773C73.275 84.0568 73.1308 84.1645 73.0281 84.3004C72.9253 84.433 72.8739 84.5987 72.8739 84.7976C72.8739 85.0859 72.9783 85.3063 73.1871 85.4588C73.3993 85.608 73.6677 85.6825 73.9925 85.6825ZM81.2486 84.8026L81.2536 82.2621H81.5618L84.0078 79.3636H86.4389L83.1527 83.2017H82.6506L81.2486 84.8026ZM79.3295 87V76.8182H81.4474V87H79.3295ZM84.1023 87L81.8551 83.674L83.267 82.1776L86.5831 87H84.1023ZM87.478 87V79.3636H89.5959V87H87.478ZM88.5419 78.3793C88.227 78.3793 87.9569 78.2749 87.7315 78.0661C87.5095 77.8539 87.3984 77.6004 87.3984 77.3054C87.3984 77.0137 87.5095 76.7635 87.7315 76.5547C87.9569 76.3426 88.227 76.2365 88.5419 76.2365C88.8568 76.2365 89.1252 76.3426 89.3473 76.5547C89.5727 76.7635 89.6854 77.0137 89.6854 77.3054C89.6854 77.6004 89.5727 77.8539 89.3473 78.0661C89.1252 78.2749 88.8568 78.3793 88.5419 78.3793ZM93.4103 82.5852V87H91.2924V79.3636H93.3109V80.7109H93.4004C93.5694 80.2668 93.8528 79.9155 94.2505 79.657C94.6483 79.3951 95.1305 79.2642 95.6973 79.2642C96.2276 79.2642 96.6899 79.3802 97.0843 79.6122C97.4788 79.8442 97.7853 80.1757 98.0041 80.6065C98.2228 81.0341 98.3322 81.5445 98.3322 82.1378V87H96.2143V82.5156C96.2176 82.0483 96.0983 81.6837 95.8564 81.4219C95.6144 81.1567 95.2813 81.0241 94.8571 81.0241C94.572 81.0241 94.3201 81.0855 94.1014 81.2081C93.8859 81.3307 93.7169 81.5097 93.5943 81.745C93.475 81.977 93.4136 82.2571 93.4103 82.5852ZM103.442 90.0227C102.756 90.0227 102.167 89.9283 101.677 89.7393C101.19 89.5537 100.802 89.3002 100.513 88.9787C100.225 88.6572 100.038 88.2959 99.9517 87.8949L101.911 87.6314C101.97 87.7839 102.065 87.9264 102.194 88.0589C102.323 88.1915 102.494 88.2976 102.706 88.3771C102.921 88.46 103.183 88.5014 103.491 88.5014C103.952 88.5014 104.332 88.3887 104.63 88.1634C104.932 87.9413 105.082 87.5684 105.082 87.0447V85.6477H104.993C104.9 85.8598 104.761 86.0604 104.575 86.2493C104.39 86.4382 104.151 86.5923 103.859 86.7116C103.568 86.831 103.22 86.8906 102.815 86.8906C102.242 86.8906 101.72 86.758 101.249 86.4929C100.782 86.2244 100.409 85.8151 100.131 85.2649C99.8556 84.7114 99.718 84.0121 99.718 83.1669C99.718 82.3018 99.8589 81.5793 100.141 80.9993C100.422 80.4193 100.797 79.9851 101.264 79.6967C101.735 79.4084 102.25 79.2642 102.81 79.2642C103.238 79.2642 103.596 79.3371 103.884 79.483C104.173 79.6255 104.405 79.8045 104.58 80.0199C104.759 80.232 104.897 80.4408 104.993 80.6463H105.072V79.3636H107.175V87.0746C107.175 87.7242 107.016 88.2678 106.698 88.7053C106.38 89.1428 105.939 89.4709 105.376 89.6896C104.816 89.9117 104.171 90.0227 103.442 90.0227ZM103.487 85.2997C103.828 85.2997 104.116 85.2152 104.352 85.0462C104.59 84.8738 104.772 84.6286 104.898 84.3104C105.028 83.9889 105.092 83.6044 105.092 83.157C105.092 82.7095 105.029 82.3217 104.903 81.9936C104.777 81.6622 104.595 81.4053 104.357 81.223C104.118 81.0407 103.828 80.9496 103.487 80.9496C103.138 80.9496 102.845 81.044 102.607 81.233C102.368 81.4186 102.187 81.6771 102.065 82.0085C101.942 82.34 101.881 82.7228 101.881 83.157C101.881 83.5978 101.942 83.9789 102.065 84.3004C102.191 84.6186 102.371 84.8655 102.607 85.0412C102.845 85.2135 103.138 85.2997 103.487 85.2997ZM120.657 76.8182V87H118.798L114.368 80.5916H114.294V87H112.141V76.8182H114.03L118.425 83.2216H118.514V76.8182H120.657ZM125.876 87.1491C125.091 87.1491 124.414 86.9901 123.848 86.6719C123.284 86.3504 122.85 85.8963 122.545 85.3097C122.24 84.7197 122.088 84.022 122.088 83.2166C122.088 82.4311 122.24 81.7417 122.545 81.1484C122.85 80.5552 123.279 80.0928 123.833 79.7614C124.39 79.4299 125.042 79.2642 125.792 79.2642C126.295 79.2642 126.764 79.3454 127.199 79.5078C127.636 79.6669 128.017 79.9072 128.342 80.2287C128.67 80.5502 128.925 80.9545 129.108 81.4418C129.29 81.9257 129.381 82.4924 129.381 83.142V83.7237H122.933V82.4112H127.387C127.387 82.1063 127.321 81.8362 127.189 81.6009C127.056 81.3655 126.872 81.1816 126.637 81.049C126.405 80.9131 126.135 80.8452 125.826 80.8452C125.505 80.8452 125.22 80.9197 124.971 81.0689C124.726 81.2147 124.534 81.4119 124.395 81.6605C124.255 81.9058 124.184 82.1792 124.181 82.4808V83.7287C124.181 84.1065 124.25 84.433 124.39 84.7081C124.532 84.9832 124.733 85.1953 124.991 85.3445C125.25 85.4936 125.556 85.5682 125.911 85.5682C126.146 85.5682 126.362 85.535 126.557 85.4688C126.753 85.4025 126.92 85.303 127.059 85.1705C127.199 85.0379 127.305 84.8755 127.377 84.6832L129.336 84.8125C129.237 85.2831 129.033 85.6941 128.725 86.0455C128.42 86.3935 128.025 86.6652 127.542 86.8608C127.061 87.053 126.506 87.1491 125.876 87.1491ZM132.215 87L130.137 79.3636H132.279L133.463 84.4943H133.532L134.765 79.3636H136.868L138.121 84.4645H138.186L139.349 79.3636H141.487L139.414 87H137.172L135.859 82.1974H135.765L134.452 87H132.215ZM148.97 81.5412L147.031 81.6605C146.998 81.4948 146.927 81.3456 146.818 81.2131C146.708 81.0772 146.564 80.9695 146.385 80.8899C146.209 80.8071 145.999 80.7656 145.754 80.7656C145.426 80.7656 145.149 80.8352 144.923 80.9744C144.698 81.1103 144.585 81.2926 144.585 81.5213C144.585 81.7036 144.658 81.8577 144.804 81.9837C144.95 82.1096 145.2 82.2107 145.555 82.2869L146.937 82.5653C147.679 82.7178 148.233 82.9631 148.597 83.3011C148.962 83.6392 149.144 84.0833 149.144 84.6335C149.144 85.134 148.997 85.5732 148.702 85.951C148.41 86.3288 148.009 86.6238 147.499 86.8359C146.992 87.0447 146.407 87.1491 145.744 87.1491C144.733 87.1491 143.927 86.9387 143.328 86.5178C142.731 86.0935 142.381 85.5168 142.279 84.7876L144.362 84.6783C144.425 84.9865 144.577 85.2218 144.819 85.3842C145.061 85.5433 145.371 85.6229 145.749 85.6229C146.12 85.6229 146.418 85.5516 146.644 85.4091C146.872 85.2633 146.988 85.076 146.992 84.8473C146.988 84.6551 146.907 84.4976 146.748 84.375C146.589 84.2491 146.344 84.1529 146.012 84.0866L144.69 83.8232C143.944 83.674 143.389 83.4155 143.024 83.0476C142.663 82.6797 142.482 82.2107 142.482 81.6406C142.482 81.1501 142.615 80.7275 142.88 80.3729C143.149 80.0182 143.525 79.7448 144.009 79.5526C144.496 79.3603 145.066 79.2642 145.719 79.2642C146.683 79.2642 147.442 79.468 147.996 79.8757C148.553 80.2834 148.878 80.8385 148.97 81.5412Z" fill="#404040"/>
<defs>
<filter id="filter0_d_264_4493" x="2.4043" y="166.308" width="219.327" height="18.6729" filterUnits="userSpaceOnUse" color-interpolation-filters="sRGB">
<feFlood flood-opacity="0" result="BackgroundImageFix"/>
<feColorMatrix in="SourceAlpha" type="matrix" values="0 0 0 0 0 0 0 0 0 0 0 0 0 0 0 0 0 0 127 0" result="hardAlpha"/>
<feOffset dy="4"/>
<feGaussianBlur stdDeviation="2"/>
<feComposite in2="hardAlpha" operator="out"/>
<feColorMatrix type="matrix" values="0 0 0 0 0 0 0 0 0 0 0 0 0 0 0 0 0 0 0.03 0"/>
<feBlend mode="normal" in2="BackgroundImageFix" result="effect1_dropShadow_264_4493"/>
<feBlend mode="normal" in="SourceGraphic" in2="effect1_dropShadow_264_4493" result="shape"/>
</filter>
<linearGradient id="paint0_linear_264_4493" x1="56.1257" y1="113.284" x2="215.184" y2="107.08" gradientUnits="userSpaceOnUse">
<stop stop-color="#0F77EB"/>
<stop offset="1" stop-color="#12C0FF"/>
</linearGradient>
<linearGradient id="paint1_linear_264_4493" x1="55.9393" y1="131.44" x2="185.64" y2="126.687" gradientUnits="userSpaceOnUse">
<stop stop-color="#0F77EB"/>
<stop offset="1" stop-color="#12C0FF"/>
</linearGradient>
<linearGradient id="paint2_linear_264_4493" x1="104.698" y1="33.6955" x2="107.385" y2="33.6473" gradientUnits="userSpaceOnUse">
<stop stop-color="#0F77EB"/>
<stop offset="1" stop-color="#12C0FF"/>
</linearGradient>
<linearGradient id="paint3_linear_264_4493" x1="92.3618" y1="41.9439" x2="107.924" y2="41.5598" gradientUnits="userSpaceOnUse">
<stop stop-color="#0F77EB"/>
<stop offset="1" stop-color="#12C0FF"/>
</linearGradient>
<linearGradient id="paint4_linear_264_4493" x1="93.7509" y1="40.0472" x2="105.175" y2="39.5939" gradientUnits="userSpaceOnUse">
<stop stop-color="#0F77EB"/>
<stop offset="1" stop-color="#12C0FF"/>
</linearGradient>
</defs>
</svg>
